<?xml version="1.0" encoding="utf-8" standalone="no"?>
<!DOCTYPE svg PUBLIC "-//W3C//DTD SVG 1.1//EN"
  "http://www.w3.org/Graphics/SVG/1.1/DTD/svg11.dtd">
<svg xmlns:xlink="http://www.w3.org/1999/xlink" width="460.8pt" height="345.6pt" viewBox="0 0 460.8 345.6" xmlns="http://www.w3.org/2000/svg" version="1.1">
 <metadata>
  <rdf:RDF xmlns:dc="http://purl.org/dc/elements/1.1/" xmlns:cc="http://creativecommons.org/ns#" xmlns:rdf="http://www.w3.org/1999/02/22-rdf-syntax-ns#">
   <cc:Work>
    <dc:type rdf:resource="http://purl.org/dc/dcmitype/StillImage"/>
    <dc:date>2024-09-11T14:12:58.265075</dc:date>
    <dc:format>image/svg+xml</dc:format>
    <dc:creator>
     <cc:Agent>
      <dc:title>Matplotlib v3.9.2, https://matplotlib.org/</dc:title>
     </cc:Agent>
    </dc:creator>
   </cc:Work>
  </rdf:RDF>
 </metadata>
 <defs>
  <style type="text/css">*{stroke-linejoin: round; stroke-linecap: butt}</style>
 </defs>
 <g id="figure_1">
  <g id="patch_1">
   <path d="M 0 345.6 
L 460.8 345.6 
L 460.8 0 
L 0 0 
z
" style="fill: #ffffff"/>
  </g>
  <g id="axes_1">
   <g id="patch_2">
    <path d="M 57.6 307.584 
L 414.72 307.584 
L 414.72 41.472 
L 57.6 41.472 
z
" style="fill: #ffffff"/>
   </g>
   <g id="PolyCollection_1">
    <defs>
     <path id="mdb7391ca7e" d="M 73.832727 -50.384664 
L 73.832727 -50.384664 
L 75.349805 -50.735384 
L 76.866882 -50.244322 
L 78.383959 -50.29431 
L 79.901037 -50.676574 
L 81.418114 -52.135057 
L 82.935191 -51.158814 
L 84.452268 -50.397228 
L 85.969346 -50.611883 
L 87.486423 -50.406049 
L 89.0035 -50.820658 
L 90.520578 -52.067426 
L 92.037655 -52.035081 
L 93.554732 -50.161988 
L 95.07181 -50.112 
L 96.588887 -50.112 
L 98.105964 -50.417811 
L 99.623042 -50.112 
L 101.140119 -50.112 
L 102.657196 -50.620705 
L 104.174274 -50.406049 
L 105.691351 -50.373704 
L 107.208428 -50.206096 
L 108.725506 -50.814777 
L 110.242583 -50.112 
L 111.75966 -50.456037 
L 113.276737 -50.112 
L 114.793815 -50.720681 
L 116.310892 -51.705746 
L 117.827969 -50.112 
L 119.345047 -50.703039 
L 120.862124 -51.682222 
L 122.379201 -50.112 
L 123.896279 -50.338418 
L 125.413356 -50.112 
L 126.930433 -52.09095 
L 128.447511 -50.17081 
L 129.964588 -51.755734 
L 131.481665 -53.299491 
L 132.998743 -54.116947 
L 134.51582 -51.394054 
L 136.032897 -50.112 
L 137.549975 -50.112 
L 139.067052 -50.112 
L 140.584129 -52.434987 
L 142.101206 -50.112 
L 143.618284 -50.112 
L 145.135361 -52.017438 
L 146.652438 -50.112 
L 148.169516 -50.245843 
L 149.686593 -51.77287 
L 151.20367 -50.112 
L 152.720748 -50.112 
L 154.237825 -50.120821 
L 155.754902 -50.112 
L 157.27198 -51.926282 
L 158.789057 -50.112 
L 160.306134 -50.191393 
L 161.823212 -55.483971 
L 163.340289 -51.1941 
L 164.857366 -50.112 
L 166.374444 -50.112 
L 167.891521 -50.112 
L 169.408598 -50.112 
L 170.925675 -50.112 
L 172.442753 -50.112 
L 173.95983 -50.112 
L 175.476907 -50.112 
L 176.993985 -54.693081 
L 178.511062 -53.928756 
L 180.028139 -69.404555 
L 181.545217 -58.174824 
L 183.062294 -63.688243 
L 184.579371 -50.112 
L 186.096449 -62.485582 
L 187.613526 -50.112 
L 189.130603 -53.261265 
L 190.647681 -61.756341 
L 192.164758 -67.213485 
L 193.681835 -61.275723 
L 195.198912 -51.967449 
L 196.71599 -69.530996 
L 198.233067 -79.349293 
L 199.750144 -70.448429 
L 201.267222 -77.117461 
L 202.784299 -52.346772 
L 204.301376 -88.69123 
L 205.818454 -93.428461 
L 207.335531 -106.526823 
L 208.852608 -93.895897 
L 210.369686 -96.595267 
L 211.886763 -83.098418 
L 213.40384 -98.497764 
L 214.920918 -90.749573 
L 216.437995 -104.522828 
L 217.955072 -86.203575 
L 219.47215 -81.281195 
L 220.989227 -100.385559 
L 222.506304 -96.245349 
L 224.023381 -79.381638 
L 225.540459 -97.754023 
L 227.057536 -99.73277 
L 228.574613 -109.732971 
L 230.091691 -122.183412 
L 231.608768 -98.327216 
L 233.125845 -117.899118 
L 234.642923 -100.282642 
L 236.16 -94.525162 
L 237.677077 -92.095897 
L 239.194155 -76.838114 
L 240.711232 -90.818522 
L 242.228309 -80.29025 
L 243.745387 -72.547939 
L 245.262464 -69.325162 
L 246.779541 -95.813097 
L 248.296619 -82.489736 
L 249.813696 -82.098651 
L 251.330773 -77.061592 
L 252.84785 -72.086282 
L 254.364928 -73.600635 
L 255.882005 -85.018558 
L 257.399082 -92.443295 
L 258.91616 -82.03102 
L 260.433237 -69.201662 
L 261.950314 -69.448663 
L 263.467392 -61.141778 
L 264.984469 -71.057111 
L 266.501546 -65.423132 
L 268.018624 -74.579818 
L 269.535701 -63.464765 
L 271.052778 -66.281755 
L 272.569856 -58.313027 
L 274.086933 -62.326796 
L 275.60401 -55.745979 
L 277.121088 -58.647533 
L 278.638165 -50.112 
L 280.155242 -56.395827 
L 281.672319 -55.822432 
L 283.189397 -57.148593 
L 284.706474 -54.778558 
L 286.223551 -57.533797 
L 287.740629 -50.112 
L 289.257706 -50.112 
L 290.774783 -50.112 
L 292.291861 -50.112 
L 293.808938 -50.112 
L 295.326015 -50.112 
L 296.843093 -50.112 
L 298.36017 -53.89053 
L 299.877247 -59.498044 
L 301.394325 -54.263972 
L 302.911402 -50.112 
L 304.428479 -50.112 
L 305.945556 -51.771006 
L 307.462634 -50.112 
L 308.979711 -51.176457 
L 310.496788 -50.112 
L 312.013866 -50.112 
L 313.530943 -50.112 
L 315.04802 -50.112 
L 316.565098 -50.112 
L 318.082175 -50.112 
L 319.599252 -51.535603 
L 321.11633 -51.829246 
L 322.633407 -51.285256 
L 324.150484 -50.112 
L 325.667562 -50.112 
L 327.184639 -50.606002 
L 328.701716 -51.061778 
L 330.218794 -50.847123 
L 331.735871 -50.582478 
L 333.252948 -50.112 
L 334.770025 -50.112 
L 336.287103 -50.112 
L 337.80418 -50.112 
L 339.321257 -50.112 
L 340.838335 -50.65305 
L 342.355412 -50.112 
L 343.872489 -50.112 
L 345.389567 -50.112 
L 346.906644 -50.112 
L 348.423721 -50.964742 
L 349.940799 -50.338418 
L 351.457876 -50.500145 
L 352.974953 -50.112 
L 354.492031 -50.112 
L 356.009108 -50.112 
L 357.526185 -50.112 
L 359.043263 -50.112 
L 360.56034 -50.112 
L 362.077417 -50.112 
L 363.594494 -50.112 
L 365.111572 -50.438394 
L 366.628649 -50.326656 
L 368.145726 -50.17081 
L 369.662804 -50.112 
L 371.179881 -50.112 
L 372.696958 -50.935337 
L 374.214036 -50.467799 
L 375.731113 -50.112 
L 377.24819 -50.112 
L 378.765268 -50.112 
L 380.282345 -50.112 
L 381.799422 -50.112 
L 383.3165 -50.112 
L 384.833577 -50.112 
L 386.350654 -50.767729 
L 387.867732 -51.935104 
L 389.384809 -50.738629 
L 390.901886 -50.750796 
L 392.418963 -50.112 
L 393.936041 -50.112 
L 395.453118 -50.112 
L 396.970195 -51.402875 
L 398.487273 -50.112 
L 398.487273 -50.628686 
L 398.487273 -50.628686 
L 396.970195 -53.784672 
L 395.453118 -53.628826 
L 393.936041 -52.914287 
L 392.418963 -53.524996 
L 390.901886 -53.220808 
L 389.384809 -52.150064 
L 387.867732 -53.346539 
L 386.350654 -53.678814 
L 384.833577 -53.05249 
L 383.3165 -52.813195 
L 381.799422 -53.43374 
L 380.282345 -52.39088 
L 378.765268 -52.464392 
L 377.24819 -51.961568 
L 375.731113 -52.482035 
L 374.214036 -53.026026 
L 372.696958 -53.405349 
L 371.179881 -52.293844 
L 369.662804 -52.123295 
L 368.145726 -51.935104 
L 366.628649 -52.532023 
L 365.111572 -52.467333 
L 363.594494 -52.520261 
L 362.077417 -52.976037 
L 360.56034 -52.961335 
L 359.043263 -53.055431 
L 357.526185 -52.911347 
L 356.009108 -53.528849 
L 354.492031 -52.658464 
L 352.974953 -54.25221 
L 351.457876 -54.91088 
L 349.940799 -55.543085 
L 348.423721 -54.66976 
L 346.906644 -53.505326 
L 345.389567 -54.937344 
L 343.872489 -56.742805 
L 342.355412 -57.821965 
L 340.838335 -57.004509 
L 339.321257 -56.034147 
L 337.80418 -57.301498 
L 336.287103 -57.672 
L 334.770025 -54.925582 
L 333.252948 -54.169876 
L 331.735871 -54.111067 
L 330.218794 -56.316434 
L 328.701716 -59.442175 
L 327.184639 -59.427473 
L 325.667562 -59.523596 
L 324.150484 -59.301032 
L 322.633407 -58.607076 
L 321.11633 -57.827846 
L 319.599252 -57.534203 
L 318.082175 -59.959701 
L 316.565098 -61.200588 
L 315.04802 -72.242128 
L 313.530943 -82.580891 
L 312.013866 -73.862338 
L 310.496788 -78.323062 
L 308.979711 -69.172257 
L 307.462634 -78.543599 
L 305.945556 -69.943234 
L 304.428479 -78.128989 
L 302.911402 -90.340845 
L 301.394325 -85.668406 
L 299.877247 -79.610996 
L 298.36017 -84.85389 
L 296.843093 -89.688056 
L 295.326015 -90.817204 
L 293.808938 -91.33179 
L 292.291861 -87.509153 
L 290.774783 -99.262292 
L 289.257706 -116.625886 
L 287.740629 -121.562968 
L 286.223551 -105.169736 
L 284.706474 -109.912747 
L 283.189397 -117.928523 
L 281.672319 -118.45487 
L 280.155242 -122.645069 
L 278.638165 -133.589573 
L 277.121088 -145.803659 
L 275.60401 -151.723575 
L 274.086933 -127.605676 
L 272.569856 -144.322362 
L 271.052778 -150.526796 
L 269.535701 -158.472 
L 268.018624 -163.059165 
L 266.501546 -160.959655 
L 264.984469 -155.478581 
L 263.467392 -177.144112 
L 261.950314 -181.128476 
L 260.433237 -204.523015 
L 258.91616 -195.916201 
L 257.399082 -196.536644 
L 255.882005 -202.608756 
L 254.364928 -202.923389 
L 252.84785 -200.615104 
L 251.330773 -207.001848 
L 249.813696 -211.421405 
L 248.296619 -202.373517 
L 246.779541 -186.85067 
L 245.262464 -223.524462 
L 243.745387 -214.220751 
L 242.228309 -212.700518 
L 240.711232 -218.200553 
L 239.194155 -224.597741 
L 237.677077 -208.098231 
L 236.16 -213.262152 
L 234.642923 -210.021732 
L 233.125845 -180.619771 
L 231.608768 -208.860238 
L 230.091691 -195.930903 
L 228.574613 -216.296332 
L 227.057536 -233.907333 
L 225.540459 -226.19463 
L 224.023381 -226.700191 
L 222.506304 -206.778371 
L 220.989227 -202.44997 
L 219.47215 -209.545372 
L 217.955072 -185.53333 
L 216.437995 -165.567403 
L 214.920918 -189.37361 
L 213.40384 -189.976411 
L 211.886763 -208.539725 
L 210.369686 -188.514987 
L 208.852608 -200.459258 
L 207.335531 -192.977232 
L 205.818454 -191.170351 
L 204.301376 -180.61095 
L 202.784299 -211.133237 
L 201.267222 -182.445816 
L 199.750144 -180.363949 
L 198.233067 -158.65431 
L 196.71599 -156.687123 
L 195.198912 -173.262665 
L 193.681835 -174.543401 
L 192.164758 -163.191081 
L 190.647681 -154.381778 
L 189.130603 -162.91214 
L 187.613526 -182.028266 
L 186.096449 -172.75396 
L 184.579371 -188.767261 
L 183.062294 -164.870506 
L 181.545217 -147.448103 
L 180.028139 -128.94948 
L 178.511062 -131.204835 
L 176.993985 -127.029137 
L 175.476907 -147.689628 
L 173.95983 -139.409614 
L 172.442753 -131.478301 
L 170.925675 -134.212957 
L 169.408598 -117.822665 
L 167.891521 -115.058604 
L 166.374444 -96.13361 
L 164.857366 -96.274754 
L 163.340289 -82.422105 
L 161.823212 -73.832629 
L 160.306134 -77.096877 
L 158.789057 -76.914567 
L 157.27198 -72.303879 
L 155.754902 -73.353634 
L 154.237825 -66.087683 
L 152.720748 -64.667426 
L 151.20367 -77.665406 
L 149.686593 -70.474387 
L 148.169516 -73.887383 
L 146.652438 -69.101685 
L 145.135361 -67.013937 
L 143.618284 -64.086426 
L 142.101206 -71.218838 
L 140.584129 -67.960775 
L 139.067052 -70.351393 
L 137.549975 -70.913027 
L 136.032897 -63.879375 
L 134.51582 -65.684835 
L 132.998743 -62.585559 
L 131.481665 -58.592373 
L 129.964588 -59.430413 
L 128.447511 -63.755874 
L 126.930433 -58.707053 
L 125.413356 -59.130483 
L 123.896279 -56.778091 
L 122.379201 -55.828313 
L 120.862124 -55.03438 
L 119.345047 -55.731277 
L 117.827969 -55.951813 
L 116.310892 -52.764322 
L 114.793815 -53.455337 
L 113.276737 -54.275734 
L 111.75966 -52.837834 
L 110.242583 -53.861125 
L 108.725506 -52.137998 
L 107.208428 -52.146819 
L 105.691351 -51.696924 
L 104.174274 -51.993914 
L 102.657196 -52.296784 
L 101.140119 -53.005442 
L 99.623042 -52.646702 
L 98.105964 -51.123529 
L 96.588887 -52.261498 
L 95.07181 -52.652583 
L 93.554732 -50.779491 
L 92.037655 -52.387939 
L 90.520578 -52.861358 
L 89.0035 -51.085302 
L 87.486423 -50.406049 
L 85.969346 -50.611883 
L 84.452268 -50.661872 
L 82.935191 -51.158814 
L 81.418114 -52.135057 
L 79.901037 -50.676574 
L 78.383959 -50.29431 
L 76.866882 -50.508966 
L 75.349805 -50.735384 
L 73.832727 -50.384664 
z
"/>
    </defs>
    <g clip-path="url(#p1eb2e0b61a)">
     <use xlink:href="#mdb7391ca7e" x="0" y="345.6" style="fill: #808080; fill-opacity: 0.5"/>
    </g>
   </g>
   <g id="PolyCollection_2">
    <defs>
     <path id="m2111d19bb3" d="M 73.832727 -50.878666 
L 73.832727 -50.112 
L 75.349805 -50.112 
L 76.866882 -50.112 
L 78.383959 -50.112 
L 79.901037 -50.623645 
L 81.418114 -52.099771 
L 82.935191 -50.717741 
L 84.452268 -50.112 
L 85.969346 -50.153167 
L 87.486423 -50.112 
L 89.0035 -50.52955 
L 90.520578 -50.823599 
L 92.037655 -50.112 
L 93.554732 -50.112 
L 95.07181 -50.112 
L 96.588887 -50.112 
L 98.105964 -50.112 
L 99.623042 -50.112 
L 101.140119 -50.112 
L 102.657196 -50.112 
L 104.174274 -50.112 
L 105.691351 -50.112 
L 107.208428 -50.112 
L 108.725506 -50.112 
L 110.242583 -50.112 
L 111.75966 -50.112 
L 113.276737 -50.112 
L 114.793815 -50.112 
L 116.310892 -50.112 
L 117.827969 -50.112 
L 119.345047 -50.112 
L 120.862124 -50.112 
L 122.379201 -50.112 
L 123.896279 -50.112 
L 125.413356 -50.112 
L 126.930433 -50.112 
L 128.447511 -50.112 
L 129.964588 -50.112 
L 131.481665 -50.112 
L 132.998743 -50.112 
L 134.51582 -50.112 
L 136.032897 -50.112 
L 137.549975 -50.112 
L 139.067052 -50.112 
L 140.584129 -50.112 
L 142.101206 -50.112 
L 143.618284 -50.112 
L 145.135361 -50.112 
L 146.652438 -50.112 
L 148.169516 -50.112 
L 149.686593 -50.112 
L 151.20367 -50.112 
L 152.720748 -50.112 
L 154.237825 -50.112 
L 155.754902 -50.112 
L 157.27198 -50.112 
L 158.789057 -50.112 
L 160.306134 -50.112 
L 161.823212 -50.112 
L 163.340289 -50.112 
L 164.857366 -50.112 
L 166.374444 -50.112 
L 167.891521 -50.112 
L 169.408598 -50.112 
L 170.925675 -50.112 
L 172.442753 -50.112 
L 173.95983 -50.112 
L 175.476907 -50.112 
L 176.993985 -50.112 
L 178.511062 -50.112 
L 180.028139 -50.112 
L 181.545217 -50.112 
L 183.062294 -50.112 
L 184.579371 -50.112 
L 186.096449 -50.112 
L 187.613526 -50.112 
L 189.130603 -50.112 
L 190.647681 -50.112 
L 192.164758 -50.112 
L 193.681835 -50.112 
L 195.198912 -50.112 
L 196.71599 -50.112 
L 198.233067 -50.112 
L 199.750144 -50.112 
L 201.267222 -50.112 
L 202.784299 -50.112 
L 204.301376 -50.112 
L 205.818454 -53.308414 
L 207.335531 -50.112 
L 208.852608 -50.112 
L 210.369686 -50.112 
L 211.886763 -50.112 
L 213.40384 -50.112 
L 214.920918 -50.112 
L 216.437995 -50.112 
L 217.955072 -50.112 
L 219.47215 -50.112 
L 220.989227 -50.112 
L 222.506304 -50.276667 
L 224.023381 -50.112 
L 225.540459 -50.112 
L 227.057536 -53.076014 
L 228.574613 -62.414605 
L 230.091691 -50.112 
L 231.608768 -50.112 
L 233.125845 -50.112 
L 234.642923 -55.152 
L 236.16 -50.112 
L 237.677077 -60.576784 
L 239.194155 -50.112 
L 240.711232 -50.112 
L 242.228309 -50.112 
L 243.745387 -54.957928 
L 245.262464 -50.112 
L 246.779541 -50.112 
L 248.296619 -50.112 
L 249.813696 -50.112 
L 251.330773 -50.112 
L 252.84785 -50.112 
L 254.364928 -50.112 
L 255.882005 -50.112 
L 257.399082 -50.112 
L 258.91616 -50.112 
L 260.433237 -50.112 
L 261.950314 -50.112 
L 263.467392 -50.112 
L 264.984469 -50.112 
L 266.501546 -50.112 
L 268.018624 -50.112 
L 269.535701 -50.112 
L 271.052778 -50.112 
L 272.569856 -50.112 
L 274.086933 -50.112 
L 275.60401 -50.112 
L 277.121088 -50.112 
L 278.638165 -50.112 
L 280.155242 -50.112 
L 281.672319 -50.112 
L 283.189397 -50.112 
L 284.706474 -50.112 
L 286.223551 -50.112 
L 287.740629 -50.112 
L 289.257706 -50.112 
L 290.774783 -50.112 
L 292.291861 -50.112 
L 293.808938 -50.112 
L 295.326015 -50.112 
L 296.843093 -50.112 
L 298.36017 -50.112 
L 299.877247 -50.112 
L 301.394325 -50.112 
L 302.911402 -50.112 
L 304.428479 -50.112 
L 305.945556 -50.112 
L 307.462634 -50.112 
L 308.979711 -50.112 
L 310.496788 -50.112 
L 312.013866 -50.112 
L 313.530943 -50.112 
L 315.04802 -50.112 
L 316.565098 -50.112 
L 318.082175 -50.112 
L 319.599252 -50.112 
L 321.11633 -50.112 
L 322.633407 -50.112 
L 324.150484 -50.112 
L 325.667562 -50.112 
L 327.184639 -50.112 
L 328.701716 -50.112 
L 330.218794 -50.112 
L 331.735871 -50.112 
L 333.252948 -50.112 
L 334.770025 -50.112 
L 336.287103 -50.112 
L 337.80418 -50.112 
L 339.321257 -50.112 
L 340.838335 -50.112 
L 342.355412 -50.112 
L 343.872489 -50.112 
L 345.389567 -50.112 
L 346.906644 -50.112 
L 348.423721 -50.112 
L 349.940799 -50.112 
L 351.457876 -50.112 
L 352.974953 -50.112 
L 354.492031 -50.112 
L 356.009108 -50.112 
L 357.526185 -50.112 
L 359.043263 -50.112 
L 360.56034 -50.112 
L 362.077417 -50.112 
L 363.594494 -50.112 
L 365.111572 -50.112 
L 366.628649 -50.112 
L 368.145726 -50.112 
L 369.662804 -50.112 
L 371.179881 -50.112 
L 372.696958 -50.112 
L 374.214036 -50.112 
L 375.731113 -50.112 
L 377.24819 -50.112 
L 378.765268 -50.112 
L 380.282345 -50.112 
L 381.799422 -50.112 
L 383.3165 -50.112 
L 384.833577 -50.112 
L 386.350654 -50.112 
L 387.867732 -50.112 
L 389.384809 -50.112 
L 390.901886 -50.112 
L 392.418963 -50.112 
L 393.936041 -50.112 
L 395.453118 -50.112 
L 396.970195 -50.112 
L 398.487273 -50.112 
L 398.487273 -51.175617 
L 398.487273 -51.175617 
L 396.970195 -55.275501 
L 395.453118 -54.828546 
L 393.936041 -54.052257 
L 392.418963 -54.618859 
L 390.901886 -55.020388 
L 389.384809 -54.514218 
L 387.867732 -55.851837 
L 386.350654 -54.887356 
L 384.833577 -53.934637 
L 383.3165 -54.259916 
L 381.799422 -54.809889 
L 380.282345 -54.569783 
L 378.765268 -53.558254 
L 377.24819 -53.628826 
L 375.731113 -53.964042 
L 374.214036 -55.046142 
L 372.696958 -55.716574 
L 371.179881 -53.475921 
L 369.662804 -54.116947 
L 368.145726 -53.381825 
L 366.628649 -54.657998 
L 365.111572 -55.21081 
L 363.594494 -54.205162 
L 362.077417 -55.498978 
L 360.56034 -54.328663 
L 359.043263 -54.1934 
L 357.526185 -53.581778 
L 356.009108 -55.346072 
L 354.492031 -54.881475 
L 352.974953 -56.422292 
L 351.457876 -57.292677 
L 349.940799 -56.822198 
L 348.423721 -56.345839 
L 346.906644 -55.181405 
L 345.389567 -55.93417 
L 343.872489 -58.551207 
L 342.355412 -62.797274 
L 340.838335 -62.385606 
L 339.321257 -58.909946 
L 337.80418 -62.356201 
L 336.287103 -60.30962 
L 334.770025 -57.210343 
L 333.252948 -56.657531 
L 331.735871 -56.828079 
L 330.218794 -57.869013 
L 328.701716 -62.662012 
L 327.184639 -64.808569 
L 325.667562 -62.981613 
L 324.150484 -63.949946 
L 322.633407 -62.620845 
L 321.11633 -63.085442 
L 319.599252 -63.250515 
L 318.082175 -66.514054 
L 316.565098 -66.837508 
L 315.04802 -89.496924 
L 313.530943 -99.659258 
L 312.013866 -88.973517 
L 310.496788 -97.518581 
L 308.979711 -84.645116 
L 307.462634 -92.296271 
L 305.945556 -84.851519 
L 304.428479 -93.196061 
L 302.911402 -105.663739 
L 301.394325 -138.879515 
L 299.877247 -132.028173 
L 298.36017 -120.607309 
L 296.843093 -104.746306 
L 295.326015 -123.55368 
L 293.808938 -107.65151 
L 292.291861 -109.386399 
L 290.774783 -139.497018 
L 289.257706 -168.884275 
L 287.740629 -167.055291 
L 286.223551 -155.152187 
L 284.706474 -147.465746 
L 283.189397 -141.61417 
L 281.672319 -145.977858 
L 280.155242 -145.607356 
L 278.638165 -156.657718 
L 277.121088 -170.856634 
L 275.60401 -168.537298 
L 274.086933 -161.144905 
L 272.569856 -170.35452 
L 271.052778 -181.834194 
L 269.535701 -214.567729 
L 268.018624 -229.405442 
L 266.501546 -212.609363 
L 264.984469 -202.223552 
L 263.467392 -208.963155 
L 261.950314 -220.03116 
L 260.433237 -250.27116 
L 258.91616 -245.325256 
L 257.399082 -291.455664 
L 255.882005 -292.032 
L 254.364928 -248.847963 
L 252.84785 -256.410903 
L 251.330773 -255.36997 
L 249.813696 -263.838581 
L 248.296619 -255.540518 
L 246.779541 -267.231907 
L 245.262464 -259.815991 
L 243.745387 -231.810763 
L 242.228309 -268.055244 
L 240.711232 -263.472338 
L 239.194155 -256.504999 
L 237.677077 -239.617344 
L 236.16 -265.344112 
L 234.642923 -255.152373 
L 233.125845 -261.203902 
L 231.608768 -259.7513 
L 230.091691 -286.756761 
L 228.574613 -263.614698 
L 227.057536 -280.564089 
L 225.540459 -278.100161 
L 224.023381 -258.827986 
L 222.506304 -252.747053 
L 220.989227 -271.036901 
L 219.47215 -266.002782 
L 217.955072 -244.848896 
L 216.437995 -234.286656 
L 214.920918 -241.03214 
L 213.40384 -280.705232 
L 211.886763 -246.807263 
L 210.369686 -269.460798 
L 208.852608 -266.196854 
L 207.335531 -252.645656 
L 205.818454 -231.290398 
L 204.301376 -230.5934 
L 202.784299 -238.550366 
L 201.267222 -228.511533 
L 199.750144 -217.202408 
L 198.233067 -191.390786 
L 196.71599 -184.898184 
L 195.198912 -202.117694 
L 193.681835 -206.265408 
L 192.164758 -199.464967 
L 190.647681 -190.849736 
L 189.130603 -207.381172 
L 187.613526 -210.521615 
L 186.096449 -254.246702 
L 184.579371 -263.608614 
L 183.062294 -268.002315 
L 181.545217 -173.542012 
L 180.028139 -168.831347 
L 178.511062 -164.885209 
L 176.993985 -156.563419 
L 175.476907 -175.0009 
L 173.95983 -179.353231 
L 172.442753 -163.879561 
L 170.925675 -156.663599 
L 169.408598 -147.348126 
L 167.891521 -128.193774 
L 166.374444 -121.195407 
L 164.857366 -114.861592 
L 163.340289 -100.117974 
L 161.823212 -94.8983 
L 160.306134 -103.39368 
L 158.789057 -93.225466 
L 157.27198 -89.814497 
L 155.754902 -87.644415 
L 154.237825 -71.742245 
L 152.720748 -67.807869 
L 151.20367 -109.704986 
L 149.686593 -92.598634 
L 148.169516 -104.656671 
L 146.652438 -78.575944 
L 145.135361 -92.119841 
L 143.618284 -69.132307 
L 142.101206 -91.684649 
L 140.584129 -91.549386 
L 139.067052 -84.474567 
L 137.549975 -75.764835 
L 136.032897 -69.066399 
L 134.51582 -84.827426 
L 132.998743 -96.354147 
L 131.481665 -71.17179 
L 129.964588 -69.389853 
L 128.447511 -80.481382 
L 126.930433 -74.576877 
L 125.413356 -64.061685 
L 123.896279 -63.61473 
L 122.379201 -57.698464 
L 120.862124 -60.327263 
L 119.345047 -64.914427 
L 117.827969 -61.615197 
L 116.310892 -59.680355 
L 114.793815 -58.739398 
L 113.276737 -56.53403 
L 111.75966 -56.1106 
L 110.242583 -58.686469 
L 108.725506 -55.781265 
L 107.208428 -54.563902 
L 105.691351 -54.052257 
L 104.174274 -53.846422 
L 102.657196 -56.557554 
L 101.140119 -54.999095 
L 99.623042 -54.922642 
L 98.105964 -52.429106 
L 96.588887 -54.211043 
L 95.07181 -53.975804 
L 93.554732 -51.529316 
L 92.037655 -56.41053 
L 90.520578 -54.105186 
L 89.0035 -51.376411 
L 87.486423 -50.776551 
L 85.969346 -51.0706 
L 84.452268 -51.058838 
L 82.935191 -51.599888 
L 81.418114 -52.170343 
L 79.901037 -50.729503 
L 78.383959 -50.541312 
L 76.866882 -51.435221 
L 75.349805 -51.811603 
L 73.832727 -50.878666 
z
"/>
    </defs>
    <g clip-path="url(#p1eb2e0b61a)">
     <use xlink:href="#m2111d19bb3" x="0" y="345.6" style="fill: #d3d3d3; fill-opacity: 0.5"/>
    </g>
   </g>
   <g id="matplotlib.axis_1">
    <g id="xtick_1">
     <g id="line2d_1">
      <defs>
       <path id="m97af335135" d="M 0 0 
L 0 3.5 
" style="stroke: #000000; stroke-width: 0.8"/>
      </defs>
      <g>
       <use xlink:href="#m97af335135" x="73.832727" y="307.584" style="stroke: #000000; stroke-width: 0.8"/>
      </g>
     </g>
     <g id="text_1">
      <!-- Apr 01 -->
      <g transform="translate(64.044823 343.435062) rotate(-45) scale(0.1 -0.1)">
       <defs>
        <path id="DejaVuSans-41" d="M 2188 4044 
L 1331 1722 
L 3047 1722 
L 2188 4044 
z
M 1831 4666 
L 2547 4666 
L 4325 0 
L 3669 0 
L 3244 1197 
L 1141 1197 
L 716 0 
L 50 0 
L 1831 4666 
z
" transform="scale(0.015625)"/>
        <path id="DejaVuSans-70" d="M 1159 525 
L 1159 -1331 
L 581 -1331 
L 581 3500 
L 1159 3500 
L 1159 2969 
Q 1341 3281 1617 3432 
Q 1894 3584 2278 3584 
Q 2916 3584 3314 3078 
Q 3713 2572 3713 1747 
Q 3713 922 3314 415 
Q 2916 -91 2278 -91 
Q 1894 -91 1617 61 
Q 1341 213 1159 525 
z
M 3116 1747 
Q 3116 2381 2855 2742 
Q 2594 3103 2138 3103 
Q 1681 3103 1420 2742 
Q 1159 2381 1159 1747 
Q 1159 1113 1420 752 
Q 1681 391 2138 391 
Q 2594 391 2855 752 
Q 3116 1113 3116 1747 
z
" transform="scale(0.015625)"/>
        <path id="DejaVuSans-72" d="M 2631 2963 
Q 2534 3019 2420 3045 
Q 2306 3072 2169 3072 
Q 1681 3072 1420 2755 
Q 1159 2438 1159 1844 
L 1159 0 
L 581 0 
L 581 3500 
L 1159 3500 
L 1159 2956 
Q 1341 3275 1631 3429 
Q 1922 3584 2338 3584 
Q 2397 3584 2469 3576 
Q 2541 3569 2628 3553 
L 2631 2963 
z
" transform="scale(0.015625)"/>
        <path id="DejaVuSans-20" transform="scale(0.015625)"/>
        <path id="DejaVuSans-30" d="M 2034 4250 
Q 1547 4250 1301 3770 
Q 1056 3291 1056 2328 
Q 1056 1369 1301 889 
Q 1547 409 2034 409 
Q 2525 409 2770 889 
Q 3016 1369 3016 2328 
Q 3016 3291 2770 3770 
Q 2525 4250 2034 4250 
z
M 2034 4750 
Q 2819 4750 3233 4129 
Q 3647 3509 3647 2328 
Q 3647 1150 3233 529 
Q 2819 -91 2034 -91 
Q 1250 -91 836 529 
Q 422 1150 422 2328 
Q 422 3509 836 4129 
Q 1250 4750 2034 4750 
z
" transform="scale(0.015625)"/>
        <path id="DejaVuSans-31" d="M 794 531 
L 1825 531 
L 1825 4091 
L 703 3866 
L 703 4441 
L 1819 4666 
L 2450 4666 
L 2450 531 
L 3481 531 
L 3481 0 
L 794 0 
L 794 531 
z
" transform="scale(0.015625)"/>
       </defs>
       <use xlink:href="#DejaVuSans-41"/>
       <use xlink:href="#DejaVuSans-70" x="68.408203"/>
       <use xlink:href="#DejaVuSans-72" x="131.884766"/>
       <use xlink:href="#DejaVuSans-20" x="172.998047"/>
       <use xlink:href="#DejaVuSans-30" x="204.785156"/>
       <use xlink:href="#DejaVuSans-31" x="268.408203"/>
      </g>
     </g>
    </g>
    <g id="xtick_2">
     <g id="line2d_2">
      <g>
       <use xlink:href="#m97af335135" x="119.345047" y="307.584" style="stroke: #000000; stroke-width: 0.8"/>
      </g>
     </g>
     <g id="text_2">
      <!-- May 01 -->
      <g transform="translate(108.363899 345.821547) rotate(-45) scale(0.1 -0.1)">
       <defs>
        <path id="DejaVuSans-4d" d="M 628 4666 
L 1569 4666 
L 2759 1491 
L 3956 4666 
L 4897 4666 
L 4897 0 
L 4281 0 
L 4281 4097 
L 3078 897 
L 2444 897 
L 1241 4097 
L 1241 0 
L 628 0 
L 628 4666 
z
" transform="scale(0.015625)"/>
        <path id="DejaVuSans-61" d="M 2194 1759 
Q 1497 1759 1228 1600 
Q 959 1441 959 1056 
Q 959 750 1161 570 
Q 1363 391 1709 391 
Q 2188 391 2477 730 
Q 2766 1069 2766 1631 
L 2766 1759 
L 2194 1759 
z
M 3341 1997 
L 3341 0 
L 2766 0 
L 2766 531 
Q 2569 213 2275 61 
Q 1981 -91 1556 -91 
Q 1019 -91 701 211 
Q 384 513 384 1019 
Q 384 1609 779 1909 
Q 1175 2209 1959 2209 
L 2766 2209 
L 2766 2266 
Q 2766 2663 2505 2880 
Q 2244 3097 1772 3097 
Q 1472 3097 1187 3025 
Q 903 2953 641 2809 
L 641 3341 
Q 956 3463 1253 3523 
Q 1550 3584 1831 3584 
Q 2591 3584 2966 3190 
Q 3341 2797 3341 1997 
z
" transform="scale(0.015625)"/>
        <path id="DejaVuSans-79" d="M 2059 -325 
Q 1816 -950 1584 -1140 
Q 1353 -1331 966 -1331 
L 506 -1331 
L 506 -850 
L 844 -850 
Q 1081 -850 1212 -737 
Q 1344 -625 1503 -206 
L 1606 56 
L 191 3500 
L 800 3500 
L 1894 763 
L 2988 3500 
L 3597 3500 
L 2059 -325 
z
" transform="scale(0.015625)"/>
       </defs>
       <use xlink:href="#DejaVuSans-4d"/>
       <use xlink:href="#DejaVuSans-61" x="86.279297"/>
       <use xlink:href="#DejaVuSans-79" x="147.558594"/>
       <use xlink:href="#DejaVuSans-20" x="206.738281"/>
       <use xlink:href="#DejaVuSans-30" x="238.525391"/>
       <use xlink:href="#DejaVuSans-31" x="302.148438"/>
      </g>
     </g>
    </g>
    <g id="xtick_3">
     <g id="line2d_3">
      <g>
       <use xlink:href="#m97af335135" x="166.374444" y="307.584" style="stroke: #000000; stroke-width: 0.8"/>
      </g>
     </g>
     <g id="text_3">
      <!-- Jun 01 -->
      <g transform="translate(157.178741 342.250658) rotate(-45) scale(0.1 -0.1)">
       <defs>
        <path id="DejaVuSans-4a" d="M 628 4666 
L 1259 4666 
L 1259 325 
Q 1259 -519 939 -900 
Q 619 -1281 -91 -1281 
L -331 -1281 
L -331 -750 
L -134 -750 
Q 284 -750 456 -515 
Q 628 -281 628 325 
L 628 4666 
z
" transform="scale(0.015625)"/>
        <path id="DejaVuSans-75" d="M 544 1381 
L 544 3500 
L 1119 3500 
L 1119 1403 
Q 1119 906 1312 657 
Q 1506 409 1894 409 
Q 2359 409 2629 706 
Q 2900 1003 2900 1516 
L 2900 3500 
L 3475 3500 
L 3475 0 
L 2900 0 
L 2900 538 
Q 2691 219 2414 64 
Q 2138 -91 1772 -91 
Q 1169 -91 856 284 
Q 544 659 544 1381 
z
M 1991 3584 
L 1991 3584 
z
" transform="scale(0.015625)"/>
        <path id="DejaVuSans-6e" d="M 3513 2113 
L 3513 0 
L 2938 0 
L 2938 2094 
Q 2938 2591 2744 2837 
Q 2550 3084 2163 3084 
Q 1697 3084 1428 2787 
Q 1159 2491 1159 1978 
L 1159 0 
L 581 0 
L 581 3500 
L 1159 3500 
L 1159 2956 
Q 1366 3272 1645 3428 
Q 1925 3584 2291 3584 
Q 2894 3584 3203 3211 
Q 3513 2838 3513 2113 
z
" transform="scale(0.015625)"/>
       </defs>
       <use xlink:href="#DejaVuSans-4a"/>
       <use xlink:href="#DejaVuSans-75" x="29.492188"/>
       <use xlink:href="#DejaVuSans-6e" x="92.871094"/>
       <use xlink:href="#DejaVuSans-20" x="156.25"/>
       <use xlink:href="#DejaVuSans-30" x="188.037109"/>
       <use xlink:href="#DejaVuSans-31" x="251.660156"/>
      </g>
     </g>
    </g>
    <g id="xtick_4">
     <g id="line2d_4">
      <g>
       <use xlink:href="#m97af335135" x="211.886763" y="307.584" style="stroke: #000000; stroke-width: 0.8"/>
      </g>
     </g>
     <g id="text_4">
      <!-- Jul 01 -->
      <g transform="translate(203.949489 339.733799) rotate(-45) scale(0.1 -0.1)">
       <defs>
        <path id="DejaVuSans-6c" d="M 603 4863 
L 1178 4863 
L 1178 0 
L 603 0 
L 603 4863 
z
" transform="scale(0.015625)"/>
       </defs>
       <use xlink:href="#DejaVuSans-4a"/>
       <use xlink:href="#DejaVuSans-75" x="29.492188"/>
       <use xlink:href="#DejaVuSans-6c" x="92.871094"/>
       <use xlink:href="#DejaVuSans-20" x="120.654297"/>
       <use xlink:href="#DejaVuSans-30" x="152.441406"/>
       <use xlink:href="#DejaVuSans-31" x="216.064453"/>
      </g>
     </g>
    </g>
    <g id="xtick_5">
     <g id="line2d_5">
      <g>
       <use xlink:href="#m97af335135" x="258.91616" y="307.584" style="stroke: #000000; stroke-width: 0.8"/>
      </g>
     </g>
     <g id="text_5">
      <!-- Aug 01 -->
      <g transform="translate(248.341046 345.009479) rotate(-45) scale(0.1 -0.1)">
       <defs>
        <path id="DejaVuSans-67" d="M 2906 1791 
Q 2906 2416 2648 2759 
Q 2391 3103 1925 3103 
Q 1463 3103 1205 2759 
Q 947 2416 947 1791 
Q 947 1169 1205 825 
Q 1463 481 1925 481 
Q 2391 481 2648 825 
Q 2906 1169 2906 1791 
z
M 3481 434 
Q 3481 -459 3084 -895 
Q 2688 -1331 1869 -1331 
Q 1566 -1331 1297 -1286 
Q 1028 -1241 775 -1147 
L 775 -588 
Q 1028 -725 1275 -790 
Q 1522 -856 1778 -856 
Q 2344 -856 2625 -561 
Q 2906 -266 2906 331 
L 2906 616 
Q 2728 306 2450 153 
Q 2172 0 1784 0 
Q 1141 0 747 490 
Q 353 981 353 1791 
Q 353 2603 747 3093 
Q 1141 3584 1784 3584 
Q 2172 3584 2450 3431 
Q 2728 3278 2906 2969 
L 2906 3500 
L 3481 3500 
L 3481 434 
z
" transform="scale(0.015625)"/>
       </defs>
       <use xlink:href="#DejaVuSans-41"/>
       <use xlink:href="#DejaVuSans-75" x="68.408203"/>
       <use xlink:href="#DejaVuSans-67" x="131.787109"/>
       <use xlink:href="#DejaVuSans-20" x="195.263672"/>
       <use xlink:href="#DejaVuSans-30" x="227.050781"/>
       <use xlink:href="#DejaVuSans-31" x="290.673828"/>
      </g>
     </g>
    </g>
    <g id="xtick_6">
     <g id="line2d_6">
      <g>
       <use xlink:href="#m97af335135" x="305.945556" y="307.584" style="stroke: #000000; stroke-width: 0.8"/>
      </g>
     </g>
     <g id="text_6">
      <!-- Sep 01 -->
      <g transform="translate(295.609644 344.531077) rotate(-45) scale(0.1 -0.1)">
       <defs>
        <path id="DejaVuSans-53" d="M 3425 4513 
L 3425 3897 
Q 3066 4069 2747 4153 
Q 2428 4238 2131 4238 
Q 1616 4238 1336 4038 
Q 1056 3838 1056 3469 
Q 1056 3159 1242 3001 
Q 1428 2844 1947 2747 
L 2328 2669 
Q 3034 2534 3370 2195 
Q 3706 1856 3706 1288 
Q 3706 609 3251 259 
Q 2797 -91 1919 -91 
Q 1588 -91 1214 -16 
Q 841 59 441 206 
L 441 856 
Q 825 641 1194 531 
Q 1563 422 1919 422 
Q 2459 422 2753 634 
Q 3047 847 3047 1241 
Q 3047 1584 2836 1778 
Q 2625 1972 2144 2069 
L 1759 2144 
Q 1053 2284 737 2584 
Q 422 2884 422 3419 
Q 422 4038 858 4394 
Q 1294 4750 2059 4750 
Q 2388 4750 2728 4690 
Q 3069 4631 3425 4513 
z
" transform="scale(0.015625)"/>
        <path id="DejaVuSans-65" d="M 3597 1894 
L 3597 1613 
L 953 1613 
Q 991 1019 1311 708 
Q 1631 397 2203 397 
Q 2534 397 2845 478 
Q 3156 559 3463 722 
L 3463 178 
Q 3153 47 2828 -22 
Q 2503 -91 2169 -91 
Q 1331 -91 842 396 
Q 353 884 353 1716 
Q 353 2575 817 3079 
Q 1281 3584 2069 3584 
Q 2775 3584 3186 3129 
Q 3597 2675 3597 1894 
z
M 3022 2063 
Q 3016 2534 2758 2815 
Q 2500 3097 2075 3097 
Q 1594 3097 1305 2825 
Q 1016 2553 972 2059 
L 3022 2063 
z
" transform="scale(0.015625)"/>
       </defs>
       <use xlink:href="#DejaVuSans-53"/>
       <use xlink:href="#DejaVuSans-65" x="63.476562"/>
       <use xlink:href="#DejaVuSans-70" x="125"/>
       <use xlink:href="#DejaVuSans-20" x="188.476562"/>
       <use xlink:href="#DejaVuSans-30" x="220.263672"/>
       <use xlink:href="#DejaVuSans-31" x="283.886719"/>
      </g>
     </g>
    </g>
    <g id="xtick_7">
     <g id="line2d_7">
      <g>
       <use xlink:href="#m97af335135" x="351.457876" y="307.584" style="stroke: #000000; stroke-width: 0.8"/>
      </g>
     </g>
     <g id="text_7">
      <!-- Oct 01 -->
      <g transform="translate(341.673286 343.428432) rotate(-45) scale(0.1 -0.1)">
       <defs>
        <path id="DejaVuSans-4f" d="M 2522 4238 
Q 1834 4238 1429 3725 
Q 1025 3213 1025 2328 
Q 1025 1447 1429 934 
Q 1834 422 2522 422 
Q 3209 422 3611 934 
Q 4013 1447 4013 2328 
Q 4013 3213 3611 3725 
Q 3209 4238 2522 4238 
z
M 2522 4750 
Q 3503 4750 4090 4092 
Q 4678 3434 4678 2328 
Q 4678 1225 4090 567 
Q 3503 -91 2522 -91 
Q 1538 -91 948 565 
Q 359 1222 359 2328 
Q 359 3434 948 4092 
Q 1538 4750 2522 4750 
z
" transform="scale(0.015625)"/>
        <path id="DejaVuSans-63" d="M 3122 3366 
L 3122 2828 
Q 2878 2963 2633 3030 
Q 2388 3097 2138 3097 
Q 1578 3097 1268 2742 
Q 959 2388 959 1747 
Q 959 1106 1268 751 
Q 1578 397 2138 397 
Q 2388 397 2633 464 
Q 2878 531 3122 666 
L 3122 134 
Q 2881 22 2623 -34 
Q 2366 -91 2075 -91 
Q 1284 -91 818 406 
Q 353 903 353 1747 
Q 353 2603 823 3093 
Q 1294 3584 2113 3584 
Q 2378 3584 2631 3529 
Q 2884 3475 3122 3366 
z
" transform="scale(0.015625)"/>
        <path id="DejaVuSans-74" d="M 1172 4494 
L 1172 3500 
L 2356 3500 
L 2356 3053 
L 1172 3053 
L 1172 1153 
Q 1172 725 1289 603 
Q 1406 481 1766 481 
L 2356 481 
L 2356 0 
L 1766 0 
Q 1100 0 847 248 
Q 594 497 594 1153 
L 594 3053 
L 172 3053 
L 172 3500 
L 594 3500 
L 594 4494 
L 1172 4494 
z
" transform="scale(0.015625)"/>
       </defs>
       <use xlink:href="#DejaVuSans-4f"/>
       <use xlink:href="#DejaVuSans-63" x="78.710938"/>
       <use xlink:href="#DejaVuSans-74" x="133.691406"/>
       <use xlink:href="#DejaVuSans-20" x="172.900391"/>
       <use xlink:href="#DejaVuSans-30" x="204.6875"/>
       <use xlink:href="#DejaVuSans-31" x="268.310547"/>
      </g>
     </g>
    </g>
    <g id="xtick_8">
     <g id="line2d_8">
      <g>
       <use xlink:href="#m97af335135" x="396.970195" y="307.584" style="stroke: #000000; stroke-width: 0.8"/>
      </g>
     </g>
     <g id="text_8">
      <!-- Oct 31 -->
      <g transform="translate(387.185605 343.428432) rotate(-45) scale(0.1 -0.1)">
       <defs>
        <path id="DejaVuSans-33" d="M 2597 2516 
Q 3050 2419 3304 2112 
Q 3559 1806 3559 1356 
Q 3559 666 3084 287 
Q 2609 -91 1734 -91 
Q 1441 -91 1130 -33 
Q 819 25 488 141 
L 488 750 
Q 750 597 1062 519 
Q 1375 441 1716 441 
Q 2309 441 2620 675 
Q 2931 909 2931 1356 
Q 2931 1769 2642 2001 
Q 2353 2234 1838 2234 
L 1294 2234 
L 1294 2753 
L 1863 2753 
Q 2328 2753 2575 2939 
Q 2822 3125 2822 3475 
Q 2822 3834 2567 4026 
Q 2313 4219 1838 4219 
Q 1578 4219 1281 4162 
Q 984 4106 628 3988 
L 628 4550 
Q 988 4650 1302 4700 
Q 1616 4750 1894 4750 
Q 2613 4750 3031 4423 
Q 3450 4097 3450 3541 
Q 3450 3153 3228 2886 
Q 3006 2619 2597 2516 
z
" transform="scale(0.015625)"/>
       </defs>
       <use xlink:href="#DejaVuSans-4f"/>
       <use xlink:href="#DejaVuSans-63" x="78.710938"/>
       <use xlink:href="#DejaVuSans-74" x="133.691406"/>
       <use xlink:href="#DejaVuSans-20" x="172.900391"/>
       <use xlink:href="#DejaVuSans-33" x="204.6875"/>
       <use xlink:href="#DejaVuSans-31" x="268.310547"/>
      </g>
     </g>
    </g>
   </g>
   <g id="matplotlib.axis_2">
    <g id="ytick_1">
     <g id="line2d_9">
      <defs>
       <path id="m26f8496158" d="M 0 0 
L -3.5 0 
" style="stroke: #000000; stroke-width: 0.8"/>
      </defs>
      <g>
       <use xlink:href="#m26f8496158" x="57.6" y="295.488" style="stroke: #000000; stroke-width: 0.8"/>
      </g>
     </g>
     <g id="text_9">
      <!-- 0 -->
      <g transform="translate(44.2375 299.287219) scale(0.1 -0.1)">
       <use xlink:href="#DejaVuSans-30"/>
      </g>
     </g>
    </g>
    <g id="ytick_2">
     <g id="line2d_10">
      <g>
       <use xlink:href="#m26f8496158" x="57.6" y="249.369354" style="stroke: #000000; stroke-width: 0.8"/>
      </g>
     </g>
     <g id="text_10">
      <!-- 10 -->
      <g transform="translate(37.875 253.168572) scale(0.1 -0.1)">
       <use xlink:href="#DejaVuSans-31"/>
       <use xlink:href="#DejaVuSans-30" x="63.623047"/>
      </g>
     </g>
    </g>
    <g id="ytick_3">
     <g id="line2d_11">
      <g>
       <use xlink:href="#m26f8496158" x="57.6" y="203.250707" style="stroke: #000000; stroke-width: 0.8"/>
      </g>
     </g>
     <g id="text_11">
      <!-- 20 -->
      <g transform="translate(37.875 207.049926) scale(0.1 -0.1)">
       <defs>
        <path id="DejaVuSans-32" d="M 1228 531 
L 3431 531 
L 3431 0 
L 469 0 
L 469 531 
Q 828 903 1448 1529 
Q 2069 2156 2228 2338 
Q 2531 2678 2651 2914 
Q 2772 3150 2772 3378 
Q 2772 3750 2511 3984 
Q 2250 4219 1831 4219 
Q 1534 4219 1204 4116 
Q 875 4013 500 3803 
L 500 4441 
Q 881 4594 1212 4672 
Q 1544 4750 1819 4750 
Q 2544 4750 2975 4387 
Q 3406 4025 3406 3419 
Q 3406 3131 3298 2873 
Q 3191 2616 2906 2266 
Q 2828 2175 2409 1742 
Q 1991 1309 1228 531 
z
" transform="scale(0.015625)"/>
       </defs>
       <use xlink:href="#DejaVuSans-32"/>
       <use xlink:href="#DejaVuSans-30" x="63.623047"/>
      </g>
     </g>
    </g>
    <g id="ytick_4">
     <g id="line2d_12">
      <g>
       <use xlink:href="#m26f8496158" x="57.6" y="157.132061" style="stroke: #000000; stroke-width: 0.8"/>
      </g>
     </g>
     <g id="text_12">
      <!-- 30 -->
      <g transform="translate(37.875 160.931279) scale(0.1 -0.1)">
       <use xlink:href="#DejaVuSans-33"/>
       <use xlink:href="#DejaVuSans-30" x="63.623047"/>
      </g>
     </g>
    </g>
    <g id="ytick_5">
     <g id="line2d_13">
      <g>
       <use xlink:href="#m26f8496158" x="57.6" y="111.013414" style="stroke: #000000; stroke-width: 0.8"/>
      </g>
     </g>
     <g id="text_13">
      <!-- 40 -->
      <g transform="translate(37.875 114.812633) scale(0.1 -0.1)">
       <defs>
        <path id="DejaVuSans-34" d="M 2419 4116 
L 825 1625 
L 2419 1625 
L 2419 4116 
z
M 2253 4666 
L 3047 4666 
L 3047 1625 
L 3713 1625 
L 3713 1100 
L 3047 1100 
L 3047 0 
L 2419 0 
L 2419 1100 
L 313 1100 
L 313 1709 
L 2253 4666 
z
" transform="scale(0.015625)"/>
       </defs>
       <use xlink:href="#DejaVuSans-34"/>
       <use xlink:href="#DejaVuSans-30" x="63.623047"/>
      </g>
     </g>
    </g>
    <g id="ytick_6">
     <g id="line2d_14">
      <g>
       <use xlink:href="#m26f8496158" x="57.6" y="64.894768" style="stroke: #000000; stroke-width: 0.8"/>
      </g>
     </g>
     <g id="text_14">
      <!-- 50 -->
      <g transform="translate(37.875 68.693987) scale(0.1 -0.1)">
       <defs>
        <path id="DejaVuSans-35" d="M 691 4666 
L 3169 4666 
L 3169 4134 
L 1269 4134 
L 1269 2991 
Q 1406 3038 1543 3061 
Q 1681 3084 1819 3084 
Q 2600 3084 3056 2656 
Q 3513 2228 3513 1497 
Q 3513 744 3044 326 
Q 2575 -91 1722 -91 
Q 1428 -91 1123 -41 
Q 819 9 494 109 
L 494 744 
Q 775 591 1075 516 
Q 1375 441 1709 441 
Q 2250 441 2565 725 
Q 2881 1009 2881 1497 
Q 2881 1984 2565 2268 
Q 2250 2553 1709 2553 
Q 1456 2553 1204 2497 
Q 953 2441 691 2322 
L 691 4666 
z
" transform="scale(0.015625)"/>
       </defs>
       <use xlink:href="#DejaVuSans-35"/>
       <use xlink:href="#DejaVuSans-30" x="63.623047"/>
      </g>
     </g>
    </g>
    <g id="text_15">
     <!-- Greenland Ice Sheet melt extent (%) -->
     <g transform="translate(31.795312 266.228) rotate(-90) scale(0.1 -0.1)">
      <defs>
       <path id="DejaVuSans-47" d="M 3809 666 
L 3809 1919 
L 2778 1919 
L 2778 2438 
L 4434 2438 
L 4434 434 
Q 4069 175 3628 42 
Q 3188 -91 2688 -91 
Q 1594 -91 976 548 
Q 359 1188 359 2328 
Q 359 3472 976 4111 
Q 1594 4750 2688 4750 
Q 3144 4750 3555 4637 
Q 3966 4525 4313 4306 
L 4313 3634 
Q 3963 3931 3569 4081 
Q 3175 4231 2741 4231 
Q 1884 4231 1454 3753 
Q 1025 3275 1025 2328 
Q 1025 1384 1454 906 
Q 1884 428 2741 428 
Q 3075 428 3337 486 
Q 3600 544 3809 666 
z
" transform="scale(0.015625)"/>
       <path id="DejaVuSans-64" d="M 2906 2969 
L 2906 4863 
L 3481 4863 
L 3481 0 
L 2906 0 
L 2906 525 
Q 2725 213 2448 61 
Q 2172 -91 1784 -91 
Q 1150 -91 751 415 
Q 353 922 353 1747 
Q 353 2572 751 3078 
Q 1150 3584 1784 3584 
Q 2172 3584 2448 3432 
Q 2725 3281 2906 2969 
z
M 947 1747 
Q 947 1113 1208 752 
Q 1469 391 1925 391 
Q 2381 391 2643 752 
Q 2906 1113 2906 1747 
Q 2906 2381 2643 2742 
Q 2381 3103 1925 3103 
Q 1469 3103 1208 2742 
Q 947 2381 947 1747 
z
" transform="scale(0.015625)"/>
       <path id="DejaVuSans-49" d="M 628 4666 
L 1259 4666 
L 1259 0 
L 628 0 
L 628 4666 
z
" transform="scale(0.015625)"/>
       <path id="DejaVuSans-68" d="M 3513 2113 
L 3513 0 
L 2938 0 
L 2938 2094 
Q 2938 2591 2744 2837 
Q 2550 3084 2163 3084 
Q 1697 3084 1428 2787 
Q 1159 2491 1159 1978 
L 1159 0 
L 581 0 
L 581 4863 
L 1159 4863 
L 1159 2956 
Q 1366 3272 1645 3428 
Q 1925 3584 2291 3584 
Q 2894 3584 3203 3211 
Q 3513 2838 3513 2113 
z
" transform="scale(0.015625)"/>
       <path id="DejaVuSans-6d" d="M 3328 2828 
Q 3544 3216 3844 3400 
Q 4144 3584 4550 3584 
Q 5097 3584 5394 3201 
Q 5691 2819 5691 2113 
L 5691 0 
L 5113 0 
L 5113 2094 
Q 5113 2597 4934 2840 
Q 4756 3084 4391 3084 
Q 3944 3084 3684 2787 
Q 3425 2491 3425 1978 
L 3425 0 
L 2847 0 
L 2847 2094 
Q 2847 2600 2669 2842 
Q 2491 3084 2119 3084 
Q 1678 3084 1418 2786 
Q 1159 2488 1159 1978 
L 1159 0 
L 581 0 
L 581 3500 
L 1159 3500 
L 1159 2956 
Q 1356 3278 1631 3431 
Q 1906 3584 2284 3584 
Q 2666 3584 2933 3390 
Q 3200 3197 3328 2828 
z
" transform="scale(0.015625)"/>
       <path id="DejaVuSans-78" d="M 3513 3500 
L 2247 1797 
L 3578 0 
L 2900 0 
L 1881 1375 
L 863 0 
L 184 0 
L 1544 1831 
L 300 3500 
L 978 3500 
L 1906 2253 
L 2834 3500 
L 3513 3500 
z
" transform="scale(0.015625)"/>
       <path id="DejaVuSans-28" d="M 1984 4856 
Q 1566 4138 1362 3434 
Q 1159 2731 1159 2009 
Q 1159 1288 1364 580 
Q 1569 -128 1984 -844 
L 1484 -844 
Q 1016 -109 783 600 
Q 550 1309 550 2009 
Q 550 2706 781 3412 
Q 1013 4119 1484 4856 
L 1984 4856 
z
" transform="scale(0.015625)"/>
       <path id="DejaVuSans-25" d="M 4653 2053 
Q 4381 2053 4226 1822 
Q 4072 1591 4072 1178 
Q 4072 772 4226 539 
Q 4381 306 4653 306 
Q 4919 306 5073 539 
Q 5228 772 5228 1178 
Q 5228 1588 5073 1820 
Q 4919 2053 4653 2053 
z
M 4653 2450 
Q 5147 2450 5437 2106 
Q 5728 1763 5728 1178 
Q 5728 594 5436 251 
Q 5144 -91 4653 -91 
Q 4153 -91 3862 251 
Q 3572 594 3572 1178 
Q 3572 1766 3864 2108 
Q 4156 2450 4653 2450 
z
M 1428 4353 
Q 1159 4353 1004 4120 
Q 850 3888 850 3481 
Q 850 3069 1003 2837 
Q 1156 2606 1428 2606 
Q 1700 2606 1854 2837 
Q 2009 3069 2009 3481 
Q 2009 3884 1853 4118 
Q 1697 4353 1428 4353 
z
M 4250 4750 
L 4750 4750 
L 1831 -91 
L 1331 -91 
L 4250 4750 
z
M 1428 4750 
Q 1922 4750 2215 4408 
Q 2509 4066 2509 3481 
Q 2509 2891 2217 2550 
Q 1925 2209 1428 2209 
Q 931 2209 642 2551 
Q 353 2894 353 3481 
Q 353 4063 643 4406 
Q 934 4750 1428 4750 
z
" transform="scale(0.015625)"/>
       <path id="DejaVuSans-29" d="M 513 4856 
L 1013 4856 
Q 1481 4119 1714 3412 
Q 1947 2706 1947 2009 
Q 1947 1309 1714 600 
Q 1481 -109 1013 -844 
L 513 -844 
Q 928 -128 1133 580 
Q 1338 1288 1338 2009 
Q 1338 2731 1133 3434 
Q 928 4138 513 4856 
z
" transform="scale(0.015625)"/>
      </defs>
      <use xlink:href="#DejaVuSans-47"/>
      <use xlink:href="#DejaVuSans-72" x="77.490234"/>
      <use xlink:href="#DejaVuSans-65" x="116.353516"/>
      <use xlink:href="#DejaVuSans-65" x="177.876953"/>
      <use xlink:href="#DejaVuSans-6e" x="239.400391"/>
      <use xlink:href="#DejaVuSans-6c" x="302.779297"/>
      <use xlink:href="#DejaVuSans-61" x="330.5625"/>
      <use xlink:href="#DejaVuSans-6e" x="391.841797"/>
      <use xlink:href="#DejaVuSans-64" x="455.220703"/>
      <use xlink:href="#DejaVuSans-20" x="518.697266"/>
      <use xlink:href="#DejaVuSans-49" x="550.484375"/>
      <use xlink:href="#DejaVuSans-63" x="579.976562"/>
      <use xlink:href="#DejaVuSans-65" x="634.957031"/>
      <use xlink:href="#DejaVuSans-20" x="696.480469"/>
      <use xlink:href="#DejaVuSans-53" x="728.267578"/>
      <use xlink:href="#DejaVuSans-68" x="791.744141"/>
      <use xlink:href="#DejaVuSans-65" x="855.123047"/>
      <use xlink:href="#DejaVuSans-65" x="916.646484"/>
      <use xlink:href="#DejaVuSans-74" x="978.169922"/>
      <use xlink:href="#DejaVuSans-20" x="1017.378906"/>
      <use xlink:href="#DejaVuSans-6d" x="1049.166016"/>
      <use xlink:href="#DejaVuSans-65" x="1146.578125"/>
      <use xlink:href="#DejaVuSans-6c" x="1208.101562"/>
      <use xlink:href="#DejaVuSans-74" x="1235.884766"/>
      <use xlink:href="#DejaVuSans-20" x="1275.09375"/>
      <use xlink:href="#DejaVuSans-65" x="1306.880859"/>
      <use xlink:href="#DejaVuSans-78" x="1366.654297"/>
      <use xlink:href="#DejaVuSans-74" x="1425.833984"/>
      <use xlink:href="#DejaVuSans-65" x="1465.042969"/>
      <use xlink:href="#DejaVuSans-6e" x="1526.566406"/>
      <use xlink:href="#DejaVuSans-74" x="1589.945312"/>
      <use xlink:href="#DejaVuSans-20" x="1629.154297"/>
      <use xlink:href="#DejaVuSans-28" x="1660.941406"/>
      <use xlink:href="#DejaVuSans-25" x="1699.955078"/>
      <use xlink:href="#DejaVuSans-29" x="1794.974609"/>
     </g>
    </g>
   </g>
   <g id="line2d_15">
    <path d="M 73.832727 295.215336 
L 75.349805 294.864616 
L 76.866882 295.223356 
L 78.383959 295.30569 
L 79.901037 294.923426 
L 81.418114 293.464943 
L 82.935191 294.441186 
L 84.452268 295.07045 
L 85.969346 294.988117 
L 87.486423 295.193951 
L 89.0035 294.64702 
L 90.520578 293.135608 
L 92.037655 293.38849 
L 93.554732 295.12926 
L 95.07181 294.535281 
L 96.588887 294.617615 
L 98.105964 294.82933 
L 99.623042 294.452947 
L 101.140119 294.358852 
L 102.657196 294.141256 
L 105.691351 294.564686 
L 107.208428 294.423543 
L 110.242583 293.723706 
L 111.75966 293.953064 
L 113.276737 293.617848 
L 116.310892 293.364966 
L 117.827969 292.647487 
L 119.345047 292.382842 
L 120.862124 292.241699 
L 122.379201 292.770987 
L 125.413356 291.365433 
L 126.930433 290.200999 
L 128.447511 288.636658 
L 129.964588 290.006926 
L 131.481665 289.654068 
L 132.998743 287.248747 
L 134.51582 287.060555 
L 136.032897 288.954231 
L 137.549975 287.654534 
L 139.067052 285.613834 
L 140.584129 285.402119 
L 142.101206 285.319785 
L 143.618284 288.74718 
L 145.135361 286.084313 
L 146.652438 287.260509 
L 148.169516 283.533387 
L 149.686593 284.476372 
L 151.20367 282.754664 
L 152.720748 288.430824 
L 154.237825 287.495748 
L 155.754902 285.125713 
L 157.27198 283.484919 
L 158.789057 283.020322 
L 161.823212 280.9417 
L 163.340289 278.791897 
L 164.857366 274.686973 
L 166.374444 273.504896 
L 169.408598 266.018408 
L 170.925675 259.419949 
L 172.442753 257.479225 
L 173.95983 252.238461 
L 175.476907 250.839193 
L 176.993985 254.738891 
L 178.511062 253.033204 
L 180.028139 246.422982 
L 181.545217 242.788537 
L 183.062294 231.320625 
L 184.579371 228.286648 
L 186.096449 227.980229 
L 187.613526 234.760999 
L 189.130603 237.513298 
L 190.647681 237.53094 
L 192.164758 230.397717 
L 193.681835 227.690438 
L 195.198912 232.984943 
L 196.71599 232.49094 
L 198.233067 226.598198 
L 199.750144 220.193811 
L 201.267222 215.818362 
L 202.784299 213.859995 
L 204.301376 210.94891 
L 207.335531 195.847973 
L 208.852608 198.422422 
L 210.369686 203.044873 
L 211.886763 199.780929 
L 213.40384 201.362912 
L 214.920918 205.538408 
L 216.437995 210.554884 
L 217.955072 209.731547 
L 219.47215 200.186716 
L 220.989227 194.182236 
L 222.506304 194.08814 
L 224.023381 192.559085 
L 225.540459 183.625674 
L 227.057536 178.779949 
L 230.091691 186.542842 
L 231.608768 192.006273 
L 233.125845 196.340555 
L 234.642923 190.447813 
L 236.16 191.706343 
L 237.677077 195.502936 
L 239.194155 194.882072 
L 240.711232 191.090462 
L 242.228309 199.104616 
L 243.745387 202.215655 
L 245.262464 199.175188 
L 246.779541 204.268117 
L 248.296619 203.168373 
L 249.813696 198.839972 
L 251.330773 203.56828 
L 252.84785 209.249307 
L 254.364928 207.337988 
L 255.882005 201.786343 
L 257.399082 201.11003 
L 258.91616 206.62639 
L 260.433237 208.737662 
L 261.950314 220.311431 
L 264.984469 232.332154 
L 266.501546 232.408607 
L 268.018624 226.780509 
L 269.535701 234.631617 
L 271.052778 237.195725 
L 272.569856 244.282306 
L 274.086933 250.633764 
L 275.60401 241.865223 
L 277.121088 243.374404 
L 278.638165 255.544383 
L 280.155242 256.079552 
L 281.672319 258.461349 
L 283.189397 258.061442 
L 284.706474 263.254348 
L 286.223551 264.248233 
L 287.740629 263.68954 
L 289.257706 263.377848 
L 290.774783 271.081932 
L 292.291861 277.233438 
L 293.808938 275.969027 
L 295.326015 275.910217 
L 296.843093 276.333648 
L 299.877247 276.04548 
L 301.394325 275.633811 
L 302.911402 278.944803 
L 304.428479 282.820369 
L 305.945556 284.74288 
L 307.462634 282.89094 
L 308.979711 285.425643 
L 310.496788 283.596658 
L 312.013866 285.190404 
L 313.530943 283.132061 
L 315.04802 284.737568 
L 316.565098 290.442119 
L 318.082175 291.153718 
L 319.599252 291.065097 
L 321.11633 290.771454 
L 322.633407 290.653834 
L 324.150484 290.93024 
L 325.667562 291.369286 
L 327.184639 290.583263 
L 328.701716 290.348023 
L 330.218794 292.018222 
L 331.735871 293.253228 
L 333.252948 293.635491 
L 334.770025 293.541396 
L 336.287103 291.941769 
L 337.80418 292.135841 
L 339.321257 293.182656 
L 340.838335 291.771221 
L 342.355412 291.924126 
L 343.872489 292.959179 
L 345.389567 293.794278 
L 346.906644 294.123613 
L 348.423721 292.782749 
L 349.940799 292.659249 
L 351.457876 292.894488 
L 354.492031 294.264756 
L 356.009108 294.188303 
L 359.043263 294.441186 
L 362.077417 294.211827 
L 363.594494 294.447067 
L 365.111572 294.147137 
L 366.628649 294.17066 
L 368.145726 294.547043 
L 371.179881 294.541162 
L 372.696958 293.429657 
L 374.214036 293.853088 
L 375.731113 294.5294 
L 377.24819 294.652901 
L 383.3165 294.19824 
L 384.833577 294.311804 
L 386.350654 293.376728 
L 387.867732 292.959179 
L 389.384809 294.155654 
L 390.901886 293.614198 
L 392.418963 294.015727 
L 393.936041 294.22947 
L 395.453118 293.735468 
L 396.970195 293.006226 
L 398.487273 295.235958 
L 398.487273 295.235958 
" clip-path="url(#p1eb2e0b61a)" style="fill: none; stroke: #000000; stroke-width: 1.5; stroke-linecap: square"/>
   </g>
   <g id="line2d_16">
    <path d="M 76.866882 295.488 
L 96.588887 295.488 
L 98.105964 294.958712 
L 99.623042 295.135141 
L 101.140119 295.488 
L 102.657196 295.488 
L 104.174274 295.135141 
L 105.691351 295.488 
L 108.725506 294.429424 
L 111.75966 283.4908 
L 113.276737 283.137942 
L 114.793815 273.434324 
L 116.310892 286.313671 
L 117.827969 287.901536 
L 119.345047 295.135141 
L 120.862124 294.429424 
L 122.379201 295.488 
L 123.896279 295.488 
L 125.413356 295.135141 
L 126.930433 295.488 
L 128.447511 295.311571 
L 129.964588 295.311571 
L 131.481665 295.135141 
L 132.998743 295.488 
L 134.51582 295.311571 
L 136.032897 295.488 
L 137.549975 294.252994 
L 139.067052 291.430124 
L 140.584129 293.723706 
L 142.101206 293.900135 
L 143.618284 295.488 
L 145.135361 295.488 
L 146.652438 295.135141 
L 148.169516 295.488 
L 152.720748 295.488 
L 154.237825 295.135141 
L 155.754902 295.488 
L 157.27198 295.488 
L 158.789057 290.900835 
L 160.306134 274.492901 
L 161.823212 278.374348 
L 163.340289 285.431524 
L 164.857366 282.785083 
L 166.374444 289.66583 
L 167.891521 292.841559 
L 169.408598 291.606553 
L 170.925675 290.018688 
L 172.442753 285.960812 
L 173.95983 274.66933 
L 175.476907 265.495001 
L 176.993985 253.497802 
L 178.511062 263.907137 
L 180.028139 253.85066 
L 181.545217 225.445526 
L 183.062294 234.972714 
L 184.579371 214.154044 
L 186.096449 215.56548 
L 187.613526 219.094068 
L 189.130603 245.20562 
L 190.647681 219.446926 
L 192.164758 164.577382 
L 193.681835 201.803986 
L 195.198912 214.154044 
L 196.71599 227.915538 
L 198.233067 220.681932 
L 199.750144 234.796285 
L 201.267222 224.739809 
L 202.784299 241.147743 
L 204.301376 239.383449 
L 205.818454 222.269797 
L 207.335531 218.38835 
L 208.852608 203.391851 
L 210.369686 222.975515 
L 211.886763 221.740509 
L 213.40384 220.152644 
L 214.920918 226.680532 
L 216.437995 204.450427 
L 217.955072 216.800485 
L 219.47215 214.154044 
L 220.989227 223.328373 
L 222.506304 164.048093 
L 224.023381 191.218222 
L 225.540459 170.046693 
L 227.057536 189.983216 
L 228.574613 199.686833 
L 230.091691 233.737708 
L 231.608768 235.678432 
L 233.125845 251.02779 
L 234.642923 233.20842 
L 236.16 224.034091 
L 237.677077 245.02919 
L 239.194155 153.815188 
L 240.711232 176.92744 
L 242.228309 215.212621 
L 243.745387 216.624056 
L 245.262464 213.448327 
L 246.779541 217.859062 
L 248.296619 213.801186 
L 249.813696 227.38625 
L 251.330773 257.379249 
L 252.84785 268.141442 
L 254.364928 264.612854 
L 255.882005 258.084966 
L 257.399082 253.497802 
L 258.91616 266.906436 
L 260.433237 250.851361 
L 261.950314 256.84996 
L 263.467392 233.384849 
L 264.984469 237.795585 
L 266.501546 267.965013 
L 268.018624 248.381349 
L 269.535701 248.734208 
L 271.052778 224.38695 
L 272.569856 232.326273 
L 274.086933 263.730707 
L 275.60401 269.552877 
L 277.121088 279.432924 
L 278.638165 274.66933 
L 280.155242 273.610754 
L 281.672319 280.138642 
L 283.189397 281.373648 
L 284.706474 290.900835 
L 286.223551 291.430124 
L 287.740629 292.841559 
L 289.257706 293.370847 
L 290.774783 292.312271 
L 292.291861 267.259295 
L 293.808938 262.319272 
L 295.326015 263.024989 
L 296.843093 277.315771 
L 298.36017 285.960812 
L 299.877247 276.962912 
L 301.394325 260.202119 
L 302.911402 289.842259 
L 304.428479 293.547277 
L 304.428479 293.547277 
" clip-path="url(#p1eb2e0b61a)" style="fill: none; stroke: #0000ff; stroke-width: 1.5; stroke-linecap: square"/>
   </g>
   <g id="line2d_17">
    <path d="M 310.496788 289.66583 
L 312.013866 290.371547 
L 313.530943 289.842259 
L 315.04802 276.786483 
L 316.565098 265.318572 
L 318.082175 286.66653 
L 319.599252 290.018688 
L 321.11633 291.430124 
L 322.633407 293.547277 
L 324.150484 293.900135 
L 325.667562 294.605853 
L 327.184639 294.429424 
L 328.701716 293.900135 
L 330.218794 291.253694 
L 331.735871 292.66513 
L 333.252948 293.547277 
L 334.770025 294.252994 
L 336.287103 293.723706 
L 337.80418 293.900135 
L 339.321257 293.547277 
L 340.838335 293.723706 
L 342.355412 293.370847 
L 343.872489 293.547277 
L 345.389567 292.312271 
L 346.906644 294.076565 
L 348.423721 294.076565 
L 349.940799 294.252994 
L 351.457876 294.252994 
L 352.974953 294.429424 
L 354.492031 294.605853 
L 356.009108 294.605853 
L 357.526185 294.782282 
L 359.043263 294.605853 
L 360.56034 294.782282 
L 362.077417 294.958712 
L 363.594494 294.605853 
L 365.111572 274.66933 
L 366.628649 294.782282 
L 368.145726 294.958712 
L 369.662804 294.958712 
L 371.179881 294.958712 
L 372.696958 294.958712 
L 374.214036 294.429424 
L 375.731113 294.605853 
L 377.24819 294.958712 
L 378.765268 294.958712 
L 380.282345 294.958712 
L 381.799422 294.782282 
L 383.3165 295.135141 
L 384.833577 294.958712 
L 386.350654 294.958712 
L 387.867732 294.958712 
L 389.384809 294.958712 
L 390.901886 294.958712 
L 392.418963 294.958712 
L 393.936041 294.782282 
L 395.453118 295.488 
" clip-path="url(#p1eb2e0b61a)" style="fill: none; stroke: #ff0000; stroke-width: 1.5; stroke-linecap: square"/>
   </g>
   <g id="patch_3">
    <path d="M 57.6 307.584 
L 57.6 41.472 
" style="fill: none; stroke: #000000; stroke-width: 0.8; stroke-linejoin: miter; stroke-linecap: square"/>
   </g>
   <g id="patch_4">
    <path d="M 57.6 307.584 
L 414.72 307.584 
" style="fill: none; stroke: #000000; stroke-width: 0.8; stroke-linejoin: miter; stroke-linecap: square"/>
   </g>
   <g id="legend_1">
    <g id="patch_5">
     <path d="M 281.612188 122.862625 
L 407.72 122.862625 
Q 409.72 122.862625 409.72 120.862625 
L 409.72 48.472 
Q 409.72 46.472 407.72 46.472 
L 281.612188 46.472 
Q 279.612188 46.472 279.612188 48.472 
L 279.612188 120.862625 
Q 279.612188 122.862625 281.612188 122.862625 
z
" style="fill: #ffffff; opacity: 0.8; stroke: #cccccc; stroke-linejoin: miter"/>
    </g>
    <g id="line2d_18">
     <path d="M 283.612188 54.570438 
L 293.612188 54.570438 
L 303.612188 54.570438 
" style="fill: none; stroke: #000000; stroke-width: 1.5; stroke-linecap: square"/>
    </g>
    <g id="text_16">
     <!-- 1991-2020 mean -->
     <g transform="translate(311.612188 58.070438) scale(0.1 -0.1)">
      <defs>
       <path id="DejaVuSans-39" d="M 703 97 
L 703 672 
Q 941 559 1184 500 
Q 1428 441 1663 441 
Q 2288 441 2617 861 
Q 2947 1281 2994 2138 
Q 2813 1869 2534 1725 
Q 2256 1581 1919 1581 
Q 1219 1581 811 2004 
Q 403 2428 403 3163 
Q 403 3881 828 4315 
Q 1253 4750 1959 4750 
Q 2769 4750 3195 4129 
Q 3622 3509 3622 2328 
Q 3622 1225 3098 567 
Q 2575 -91 1691 -91 
Q 1453 -91 1209 -44 
Q 966 3 703 97 
z
M 1959 2075 
Q 2384 2075 2632 2365 
Q 2881 2656 2881 3163 
Q 2881 3666 2632 3958 
Q 2384 4250 1959 4250 
Q 1534 4250 1286 3958 
Q 1038 3666 1038 3163 
Q 1038 2656 1286 2365 
Q 1534 2075 1959 2075 
z
" transform="scale(0.015625)"/>
       <path id="DejaVuSans-2d" d="M 313 2009 
L 1997 2009 
L 1997 1497 
L 313 1497 
L 313 2009 
z
" transform="scale(0.015625)"/>
      </defs>
      <use xlink:href="#DejaVuSans-31"/>
      <use xlink:href="#DejaVuSans-39" x="63.623047"/>
      <use xlink:href="#DejaVuSans-39" x="127.246094"/>
      <use xlink:href="#DejaVuSans-31" x="190.869141"/>
      <use xlink:href="#DejaVuSans-2d" x="254.492188"/>
      <use xlink:href="#DejaVuSans-32" x="290.576172"/>
      <use xlink:href="#DejaVuSans-30" x="354.199219"/>
      <use xlink:href="#DejaVuSans-32" x="417.822266"/>
      <use xlink:href="#DejaVuSans-30" x="481.445312"/>
      <use xlink:href="#DejaVuSans-20" x="545.068359"/>
      <use xlink:href="#DejaVuSans-6d" x="576.855469"/>
      <use xlink:href="#DejaVuSans-65" x="674.267578"/>
      <use xlink:href="#DejaVuSans-61" x="735.791016"/>
      <use xlink:href="#DejaVuSans-6e" x="797.070312"/>
     </g>
    </g>
    <g id="patch_6">
     <path d="M 283.612188 72.748563 
L 303.612188 72.748563 
L 303.612188 65.748563 
L 283.612188 65.748563 
z
" style="fill: #808080; fill-opacity: 0.5"/>
    </g>
    <g id="text_17">
     <!-- Interquartile range -->
     <g transform="translate(311.612188 72.748563) scale(0.1 -0.1)">
      <defs>
       <path id="DejaVuSans-71" d="M 947 1747 
Q 947 1113 1208 752 
Q 1469 391 1925 391 
Q 2381 391 2643 752 
Q 2906 1113 2906 1747 
Q 2906 2381 2643 2742 
Q 2381 3103 1925 3103 
Q 1469 3103 1208 2742 
Q 947 2381 947 1747 
z
M 2906 525 
Q 2725 213 2448 61 
Q 2172 -91 1784 -91 
Q 1150 -91 751 415 
Q 353 922 353 1747 
Q 353 2572 751 3078 
Q 1150 3584 1784 3584 
Q 2172 3584 2448 3432 
Q 2725 3281 2906 2969 
L 2906 3500 
L 3481 3500 
L 3481 -1331 
L 2906 -1331 
L 2906 525 
z
" transform="scale(0.015625)"/>
       <path id="DejaVuSans-69" d="M 603 3500 
L 1178 3500 
L 1178 0 
L 603 0 
L 603 3500 
z
M 603 4863 
L 1178 4863 
L 1178 4134 
L 603 4134 
L 603 4863 
z
" transform="scale(0.015625)"/>
      </defs>
      <use xlink:href="#DejaVuSans-49"/>
      <use xlink:href="#DejaVuSans-6e" x="29.492188"/>
      <use xlink:href="#DejaVuSans-74" x="92.871094"/>
      <use xlink:href="#DejaVuSans-65" x="132.080078"/>
      <use xlink:href="#DejaVuSans-72" x="193.603516"/>
      <use xlink:href="#DejaVuSans-71" x="232.966797"/>
      <use xlink:href="#DejaVuSans-75" x="296.443359"/>
      <use xlink:href="#DejaVuSans-61" x="359.822266"/>
      <use xlink:href="#DejaVuSans-72" x="421.101562"/>
      <use xlink:href="#DejaVuSans-74" x="462.214844"/>
      <use xlink:href="#DejaVuSans-69" x="501.423828"/>
      <use xlink:href="#DejaVuSans-6c" x="529.207031"/>
      <use xlink:href="#DejaVuSans-65" x="556.990234"/>
      <use xlink:href="#DejaVuSans-20" x="618.513672"/>
      <use xlink:href="#DejaVuSans-72" x="650.300781"/>
      <use xlink:href="#DejaVuSans-61" x="691.414062"/>
      <use xlink:href="#DejaVuSans-6e" x="752.693359"/>
      <use xlink:href="#DejaVuSans-67" x="816.072266"/>
      <use xlink:href="#DejaVuSans-65" x="879.548828"/>
     </g>
    </g>
    <g id="patch_7">
     <path d="M 283.612188 87.426688 
L 303.612188 87.426688 
L 303.612188 80.426688 
L 283.612188 80.426688 
z
" style="fill: #d3d3d3; fill-opacity: 0.5"/>
    </g>
    <g id="text_18">
     <!-- Interdecile range -->
     <g transform="translate(311.612188 87.426688) scale(0.1 -0.1)">
      <use xlink:href="#DejaVuSans-49"/>
      <use xlink:href="#DejaVuSans-6e" x="29.492188"/>
      <use xlink:href="#DejaVuSans-74" x="92.871094"/>
      <use xlink:href="#DejaVuSans-65" x="132.080078"/>
      <use xlink:href="#DejaVuSans-72" x="193.603516"/>
      <use xlink:href="#DejaVuSans-64" x="232.966797"/>
      <use xlink:href="#DejaVuSans-65" x="296.443359"/>
      <use xlink:href="#DejaVuSans-63" x="357.966797"/>
      <use xlink:href="#DejaVuSans-69" x="412.947266"/>
      <use xlink:href="#DejaVuSans-6c" x="440.730469"/>
      <use xlink:href="#DejaVuSans-65" x="468.513672"/>
      <use xlink:href="#DejaVuSans-20" x="530.037109"/>
      <use xlink:href="#DejaVuSans-72" x="561.824219"/>
      <use xlink:href="#DejaVuSans-61" x="602.9375"/>
      <use xlink:href="#DejaVuSans-6e" x="664.216797"/>
      <use xlink:href="#DejaVuSans-67" x="727.595703"/>
      <use xlink:href="#DejaVuSans-65" x="791.072266"/>
     </g>
    </g>
    <g id="line2d_19">
     <path d="M 283.612188 98.604813 
L 293.612188 98.604813 
L 303.612188 98.604813 
" style="fill: none; stroke: #0000ff; stroke-width: 1.5; stroke-linecap: square"/>
    </g>
    <g id="text_19">
     <!-- 2024 -->
     <g transform="translate(311.612188 102.104813) scale(0.1 -0.1)">
      <use xlink:href="#DejaVuSans-32"/>
      <use xlink:href="#DejaVuSans-30" x="63.623047"/>
      <use xlink:href="#DejaVuSans-32" x="127.246094"/>
      <use xlink:href="#DejaVuSans-34" x="190.869141"/>
     </g>
    </g>
    <g id="line2d_20">
     <path d="M 283.612188 113.282938 
L 293.612188 113.282938 
L 303.612188 113.282938 
" style="fill: none; stroke: #ff0000; stroke-width: 1.5; stroke-linecap: square"/>
    </g>
    <g id="text_20">
     <!-- Autumn 2023 -->
     <g transform="translate(311.612188 116.782938) scale(0.1 -0.1)">
      <use xlink:href="#DejaVuSans-41"/>
      <use xlink:href="#DejaVuSans-75" x="68.408203"/>
      <use xlink:href="#DejaVuSans-74" x="131.787109"/>
      <use xlink:href="#DejaVuSans-75" x="170.996094"/>
      <use xlink:href="#DejaVuSans-6d" x="234.375"/>
      <use xlink:href="#DejaVuSans-6e" x="331.787109"/>
      <use xlink:href="#DejaVuSans-20" x="395.166016"/>
      <use xlink:href="#DejaVuSans-32" x="426.953125"/>
      <use xlink:href="#DejaVuSans-30" x="490.576172"/>
      <use xlink:href="#DejaVuSans-32" x="554.199219"/>
      <use xlink:href="#DejaVuSans-33" x="617.822266"/>
     </g>
    </g>
   </g>
  </g>
 </g>
 <defs>
  <clipPath id="p1eb2e0b61a">
   <rect x="57.6" y="41.472" width="357.12" height="266.112"/>
  </clipPath>
 </defs>
</svg>
