<?xml version="1.0" encoding="utf-8" standalone="no"?>
<!DOCTYPE svg PUBLIC "-//W3C//DTD SVG 1.1//EN"
  "http://www.w3.org/Graphics/SVG/1.1/DTD/svg11.dtd">
<svg xmlns:xlink="http://www.w3.org/1999/xlink" width="460.8pt" height="345.6pt" viewBox="0 0 460.8 345.6" xmlns="http://www.w3.org/2000/svg" version="1.1">
 <metadata>
  <rdf:RDF xmlns:dc="http://purl.org/dc/elements/1.1/" xmlns:cc="http://creativecommons.org/ns#" xmlns:rdf="http://www.w3.org/1999/02/22-rdf-syntax-ns#">
   <cc:Work>
    <dc:type rdf:resource="http://purl.org/dc/dcmitype/StillImage"/>
    <dc:date>2024-09-11T12:57:30.919106</dc:date>
    <dc:format>image/svg+xml</dc:format>
    <dc:creator>
     <cc:Agent>
      <dc:title>Matplotlib v3.9.2, https://matplotlib.org/</dc:title>
     </cc:Agent>
    </dc:creator>
   </cc:Work>
  </rdf:RDF>
 </metadata>
 <defs>
  <style type="text/css">*{stroke-linejoin: round; stroke-linecap: butt}</style>
 </defs>
 <g id="figure_1">
  <g id="patch_1">
   <path d="M 0 345.6 
L 460.8 345.6 
L 460.8 0 
L 0 0 
z
" style="fill: #ffffff"/>
  </g>
  <g id="axes_1">
   <g id="patch_2">
    <path d="M 57.6 276.48 
L 414.72 276.48 
L 414.72 41.472 
L 57.6 41.472 
z
" style="fill: #ffffff"/>
   </g>
   <g id="PolyCollection_1">
    <defs>
     <path id="m5c1faa997f" d="M 73.832727 -206.173671 
L 73.832727 -113.716408 
L 77.081496 -113.742995 
L 80.330266 -113.748427 
L 83.579035 -113.709202 
L 86.827804 -113.731102 
L 90.076573 -114.032677 
L 93.325342 -114.361346 
L 96.574111 -114.722428 
L 99.82288 -115.073895 
L 103.071649 -115.396144 
L 106.320418 -115.720339 
L 109.569188 -116.044991 
L 112.817957 -116.35628 
L 116.066726 -116.294018 
L 119.315495 -116.240942 
L 122.564264 -116.204858 
L 125.813033 -116.167309 
L 129.061802 -116.127567 
L 132.310571 -116.077399 
L 135.55934 -116.035483 
L 138.80811 -116.000353 
L 142.056879 -115.941602 
L 145.305648 -115.893388 
L 148.554417 -115.840944 
L 151.803186 -115.760676 
L 155.051955 -115.677642 
L 158.300724 -115.676795 
L 161.549493 -115.672159 
L 164.798263 -115.64226 
L 168.047032 -115.605764 
L 171.295801 -115.576613 
L 174.54457 -115.545429 
L 177.793339 -115.508825 
L 181.042108 -115.44527 
L 184.290877 -115.464355 
L 187.539646 -115.552232 
L 190.788415 -115.657748 
L 194.037185 -115.754524 
L 197.285954 -115.872982 
L 200.534723 -115.989499 
L 203.783492 -116.092441 
L 207.032261 -116.188991 
L 210.28103 -116.3034 
L 213.529799 -116.447213 
L 216.778568 -116.551824 
L 220.027337 -116.648761 
L 223.276107 -116.783527 
L 226.524876 -116.899458 
L 229.773645 -117.001485 
L 233.022414 -117.112774 
L 236.271183 -117.223629 
L 239.519952 -117.304899 
L 242.768721 -117.39154 
L 246.01749 -117.489964 
L 249.26626 -117.591361 
L 252.515029 -117.737252 
L 255.763798 -117.875171 
L 259.012567 -118.01742 
L 262.261336 -118.151249 
L 265.510105 -118.29997 
L 268.758874 -118.437738 
L 272.007643 -118.550701 
L 275.256412 -118.661192 
L 278.505182 -118.866988 
L 281.753951 -119.179419 
L 285.00272 -119.459675 
L 288.251489 -119.691097 
L 291.500258 -119.840356 
L 294.749027 -119.99147 
L 297.997796 -120.201371 
L 301.246565 -120.367195 
L 304.495334 -121.097638 
L 307.744104 -121.933715 
L 310.992873 -122.753159 
L 314.241642 -123.596606 
L 317.490411 -124.390492 
L 320.73918 -125.155516 
L 323.987949 -125.882501 
L 327.236718 -126.6393 
L 330.485487 -127.221712 
L 333.734257 -127.385015 
L 336.983026 -127.440309 
L 340.231795 -127.408535 
L 343.480564 -127.393388 
L 346.729333 -127.448346 
L 349.978102 -127.616242 
L 353.226871 -127.808946 
L 356.47564 -127.763173 
L 359.724409 -127.269072 
L 362.973179 -126.782866 
L 366.221948 -126.279615 
L 369.470717 -125.845277 
L 372.719486 -125.338127 
L 375.968255 -124.825362 
L 379.217024 -124.248829 
L 382.465793 -123.509062 
L 385.714562 -123.2343 
L 388.963332 -123.275673 
L 392.212101 -123.434967 
L 395.46087 -123.641108 
L 395.46087 -212.921338 
L 395.46087 -212.921338 
L 392.212101 -214.270502 
L 388.963332 -215.406033 
L 385.714562 -216.541919 
L 382.465793 -217.716393 
L 379.217024 -219.323889 
L 375.968255 -221.772882 
L 372.719486 -224.499312 
L 369.470717 -226.951004 
L 366.221948 -229.539231 
L 362.973179 -231.660986 
L 359.724409 -234.068991 
L 356.47564 -236.350561 
L 353.226871 -237.704941 
L 349.978102 -239.053276 
L 346.729333 -240.114991 
L 343.480564 -240.658941 
L 340.231795 -240.585477 
L 336.983026 -240.076647 
L 333.734257 -239.801716 
L 330.485487 -239.570023 
L 327.236718 -237.7512 
L 323.987949 -235.294036 
L 320.73918 -232.769868 
L 317.490411 -230.451611 
L 314.241642 -228.203916 
L 310.992873 -226.220824 
L 307.744104 -224.144611 
L 304.495334 -222.029873 
L 301.246565 -220.214729 
L 297.997796 -219.362362 
L 294.749027 -218.594932 
L 291.500258 -217.663395 
L 288.251489 -216.935918 
L 285.00272 -216.662407 
L 281.753951 -216.432223 
L 278.505182 -216.367601 
L 275.256412 -215.703623 
L 272.007643 -215.208861 
L 268.758874 -214.946701 
L 265.510105 -214.800798 
L 262.261336 -214.788298 
L 259.012567 -214.715151 
L 255.763798 -214.66692 
L 252.515029 -214.952633 
L 249.26626 -215.420687 
L 246.01749 -215.700674 
L 242.768721 -215.683683 
L 239.519952 -215.152952 
L 236.271183 -214.657436 
L 233.022414 -214.464563 
L 229.773645 -214.522068 
L 226.524876 -214.46643 
L 223.276107 -214.385167 
L 220.027337 -214.511553 
L 216.778568 -214.452026 
L 213.529799 -214.317491 
L 210.28103 -214.207187 
L 207.032261 -214.161478 
L 203.783492 -213.975816 
L 200.534723 -213.8539 
L 197.285954 -213.787041 
L 194.037185 -213.400201 
L 190.788415 -213.24536 
L 187.539646 -213.211089 
L 184.290877 -213.029348 
L 181.042108 -212.868169 
L 177.793339 -212.67282 
L 174.54457 -212.492857 
L 171.295801 -212.392932 
L 168.047032 -212.296083 
L 164.798263 -212.193944 
L 161.549493 -212.172644 
L 158.300724 -212.255855 
L 155.051955 -212.162262 
L 151.803186 -211.736432 
L 148.554417 -211.41554 
L 145.305648 -211.118166 
L 142.056879 -210.89837 
L 138.80811 -210.6714 
L 135.55934 -210.456971 
L 132.310571 -210.159448 
L 129.061802 -209.83835 
L 125.813033 -209.530157 
L 122.564264 -209.243282 
L 119.315495 -208.902941 
L 116.066726 -208.470182 
L 112.817957 -207.803613 
L 109.569188 -207.410954 
L 106.320418 -207.083626 
L 103.071649 -206.717132 
L 99.82288 -206.206881 
L 96.574111 -205.804179 
L 93.325342 -205.403549 
L 90.076573 -204.882898 
L 86.827804 -204.165726 
L 83.579035 -204.356698 
L 80.330266 -204.790339 
L 77.081496 -205.529791 
L 73.832727 -206.173671 
z
"/>
    </defs>
    <g clip-path="url(#p809f499382)">
     <use xlink:href="#m5c1faa997f" x="0" y="345.6" style="fill: #808080; fill-opacity: 0.2"/>
    </g>
   </g>
   <g id="line2d_1">
    <path d="M 86.28523 233.692468 
L 112.969166 216.052885 
L 182.384458 227.884712 
L 329.109041 221.602519 
" clip-path="url(#p809f499382)" style="fill: none; stroke: #999999; stroke-width: 0.2; stroke-linecap: square"/>
   </g>
   <g id="matplotlib.axis_1">
    <g id="xtick_1">
     <g id="line2d_2">
      <defs>
       <path id="m2672b482b4" d="M 0 0 
L 0 3.5 
" style="stroke: #000000; stroke-width: 0.8"/>
      </defs>
      <g>
       <use xlink:href="#m2672b482b4" x="73.832727" y="276.48" style="stroke: #000000; stroke-width: 0.8"/>
      </g>
     </g>
     <g id="text_1">
      <!-- 01-Sep -->
      <g transform="translate(47.484161 313.730912) rotate(-45) scale(0.1 -0.1)">
       <defs>
        <path id="DejaVuSans-30" d="M 2034 4250 
Q 1547 4250 1301 3770 
Q 1056 3291 1056 2328 
Q 1056 1369 1301 889 
Q 1547 409 2034 409 
Q 2525 409 2770 889 
Q 3016 1369 3016 2328 
Q 3016 3291 2770 3770 
Q 2525 4250 2034 4250 
z
M 2034 4750 
Q 2819 4750 3233 4129 
Q 3647 3509 3647 2328 
Q 3647 1150 3233 529 
Q 2819 -91 2034 -91 
Q 1250 -91 836 529 
Q 422 1150 422 2328 
Q 422 3509 836 4129 
Q 1250 4750 2034 4750 
z
" transform="scale(0.015625)"/>
        <path id="DejaVuSans-31" d="M 794 531 
L 1825 531 
L 1825 4091 
L 703 3866 
L 703 4441 
L 1819 4666 
L 2450 4666 
L 2450 531 
L 3481 531 
L 3481 0 
L 794 0 
L 794 531 
z
" transform="scale(0.015625)"/>
        <path id="DejaVuSans-2d" d="M 313 2009 
L 1997 2009 
L 1997 1497 
L 313 1497 
L 313 2009 
z
" transform="scale(0.015625)"/>
        <path id="DejaVuSans-53" d="M 3425 4513 
L 3425 3897 
Q 3066 4069 2747 4153 
Q 2428 4238 2131 4238 
Q 1616 4238 1336 4038 
Q 1056 3838 1056 3469 
Q 1056 3159 1242 3001 
Q 1428 2844 1947 2747 
L 2328 2669 
Q 3034 2534 3370 2195 
Q 3706 1856 3706 1288 
Q 3706 609 3251 259 
Q 2797 -91 1919 -91 
Q 1588 -91 1214 -16 
Q 841 59 441 206 
L 441 856 
Q 825 641 1194 531 
Q 1563 422 1919 422 
Q 2459 422 2753 634 
Q 3047 847 3047 1241 
Q 3047 1584 2836 1778 
Q 2625 1972 2144 2069 
L 1759 2144 
Q 1053 2284 737 2584 
Q 422 2884 422 3419 
Q 422 4038 858 4394 
Q 1294 4750 2059 4750 
Q 2388 4750 2728 4690 
Q 3069 4631 3425 4513 
z
" transform="scale(0.015625)"/>
        <path id="DejaVuSans-65" d="M 3597 1894 
L 3597 1613 
L 953 1613 
Q 991 1019 1311 708 
Q 1631 397 2203 397 
Q 2534 397 2845 478 
Q 3156 559 3463 722 
L 3463 178 
Q 3153 47 2828 -22 
Q 2503 -91 2169 -91 
Q 1331 -91 842 396 
Q 353 884 353 1716 
Q 353 2575 817 3079 
Q 1281 3584 2069 3584 
Q 2775 3584 3186 3129 
Q 3597 2675 3597 1894 
z
M 3022 2063 
Q 3016 2534 2758 2815 
Q 2500 3097 2075 3097 
Q 1594 3097 1305 2825 
Q 1016 2553 972 2059 
L 3022 2063 
z
" transform="scale(0.015625)"/>
        <path id="DejaVuSans-70" d="M 1159 525 
L 1159 -1331 
L 581 -1331 
L 581 3500 
L 1159 3500 
L 1159 2969 
Q 1341 3281 1617 3432 
Q 1894 3584 2278 3584 
Q 2916 3584 3314 3078 
Q 3713 2572 3713 1747 
Q 3713 922 3314 415 
Q 2916 -91 2278 -91 
Q 1894 -91 1617 61 
Q 1341 213 1159 525 
z
M 3116 1747 
Q 3116 2381 2855 2742 
Q 2594 3103 2138 3103 
Q 1681 3103 1420 2742 
Q 1159 2381 1159 1747 
Q 1159 1113 1420 752 
Q 1681 391 2138 391 
Q 2594 391 2855 752 
Q 3116 1113 3116 1747 
z
" transform="scale(0.015625)"/>
       </defs>
       <use xlink:href="#DejaVuSans-30"/>
       <use xlink:href="#DejaVuSans-31" x="63.623047"/>
       <use xlink:href="#DejaVuSans-2d" x="127.246094"/>
       <use xlink:href="#DejaVuSans-53" x="163.330078"/>
       <use xlink:href="#DejaVuSans-65" x="226.806641"/>
       <use xlink:href="#DejaVuSans-70" x="288.330078"/>
      </g>
     </g>
    </g>
    <g id="xtick_2">
     <g id="line2d_3">
      <g>
       <use xlink:href="#m2672b482b4" x="100.516663" y="276.48" style="stroke: #000000; stroke-width: 0.8"/>
      </g>
     </g>
     <g id="text_2">
      <!-- 01-Oct -->
      <g transform="translate(75.076286 312.822722) rotate(-45) scale(0.1 -0.1)">
       <defs>
        <path id="DejaVuSans-4f" d="M 2522 4238 
Q 1834 4238 1429 3725 
Q 1025 3213 1025 2328 
Q 1025 1447 1429 934 
Q 1834 422 2522 422 
Q 3209 422 3611 934 
Q 4013 1447 4013 2328 
Q 4013 3213 3611 3725 
Q 3209 4238 2522 4238 
z
M 2522 4750 
Q 3503 4750 4090 4092 
Q 4678 3434 4678 2328 
Q 4678 1225 4090 567 
Q 3503 -91 2522 -91 
Q 1538 -91 948 565 
Q 359 1222 359 2328 
Q 359 3434 948 4092 
Q 1538 4750 2522 4750 
z
" transform="scale(0.015625)"/>
        <path id="DejaVuSans-63" d="M 3122 3366 
L 3122 2828 
Q 2878 2963 2633 3030 
Q 2388 3097 2138 3097 
Q 1578 3097 1268 2742 
Q 959 2388 959 1747 
Q 959 1106 1268 751 
Q 1578 397 2138 397 
Q 2388 397 2633 464 
Q 2878 531 3122 666 
L 3122 134 
Q 2881 22 2623 -34 
Q 2366 -91 2075 -91 
Q 1284 -91 818 406 
Q 353 903 353 1747 
Q 353 2603 823 3093 
Q 1294 3584 2113 3584 
Q 2378 3584 2631 3529 
Q 2884 3475 3122 3366 
z
" transform="scale(0.015625)"/>
        <path id="DejaVuSans-74" d="M 1172 4494 
L 1172 3500 
L 2356 3500 
L 2356 3053 
L 1172 3053 
L 1172 1153 
Q 1172 725 1289 603 
Q 1406 481 1766 481 
L 2356 481 
L 2356 0 
L 1766 0 
Q 1100 0 847 248 
Q 594 497 594 1153 
L 594 3053 
L 172 3053 
L 172 3500 
L 594 3500 
L 594 4494 
L 1172 4494 
z
" transform="scale(0.015625)"/>
       </defs>
       <use xlink:href="#DejaVuSans-30"/>
       <use xlink:href="#DejaVuSans-31" x="63.623047"/>
       <use xlink:href="#DejaVuSans-2d" x="127.246094"/>
       <use xlink:href="#DejaVuSans-4f" x="166.080078"/>
       <use xlink:href="#DejaVuSans-63" x="244.791016"/>
       <use xlink:href="#DejaVuSans-74" x="299.771484"/>
      </g>
     </g>
    </g>
    <g id="xtick_3">
     <g id="line2d_4">
      <g>
       <use xlink:href="#m2672b482b4" x="128.090062" y="276.48" style="stroke: #000000; stroke-width: 0.8"/>
      </g>
     </g>
     <g id="text_3">
      <!-- 01-Nov -->
      <g transform="translate(101.268618 314.20379) rotate(-45) scale(0.1 -0.1)">
       <defs>
        <path id="DejaVuSans-4e" d="M 628 4666 
L 1478 4666 
L 3547 763 
L 3547 4666 
L 4159 4666 
L 4159 0 
L 3309 0 
L 1241 3903 
L 1241 0 
L 628 0 
L 628 4666 
z
" transform="scale(0.015625)"/>
        <path id="DejaVuSans-6f" d="M 1959 3097 
Q 1497 3097 1228 2736 
Q 959 2375 959 1747 
Q 959 1119 1226 758 
Q 1494 397 1959 397 
Q 2419 397 2687 759 
Q 2956 1122 2956 1747 
Q 2956 2369 2687 2733 
Q 2419 3097 1959 3097 
z
M 1959 3584 
Q 2709 3584 3137 3096 
Q 3566 2609 3566 1747 
Q 3566 888 3137 398 
Q 2709 -91 1959 -91 
Q 1206 -91 779 398 
Q 353 888 353 1747 
Q 353 2609 779 3096 
Q 1206 3584 1959 3584 
z
" transform="scale(0.015625)"/>
        <path id="DejaVuSans-76" d="M 191 3500 
L 800 3500 
L 1894 563 
L 2988 3500 
L 3597 3500 
L 2284 0 
L 1503 0 
L 191 3500 
z
" transform="scale(0.015625)"/>
       </defs>
       <use xlink:href="#DejaVuSans-30"/>
       <use xlink:href="#DejaVuSans-31" x="63.623047"/>
       <use xlink:href="#DejaVuSans-2d" x="127.246094"/>
       <use xlink:href="#DejaVuSans-4e" x="163.330078"/>
       <use xlink:href="#DejaVuSans-6f" x="238.134766"/>
       <use xlink:href="#DejaVuSans-76" x="299.316406"/>
      </g>
     </g>
    </g>
    <g id="xtick_4">
     <g id="line2d_5">
      <g>
       <use xlink:href="#m2672b482b4" x="154.773998" y="276.48" style="stroke: #000000; stroke-width: 0.8"/>
      </g>
     </g>
     <g id="text_4">
      <!-- 01-Dec -->
      <g transform="translate(128.070773 314.08557) rotate(-45) scale(0.1 -0.1)">
       <defs>
        <path id="DejaVuSans-44" d="M 1259 4147 
L 1259 519 
L 2022 519 
Q 2988 519 3436 956 
Q 3884 1394 3884 2338 
Q 3884 3275 3436 3711 
Q 2988 4147 2022 4147 
L 1259 4147 
z
M 628 4666 
L 1925 4666 
Q 3281 4666 3915 4102 
Q 4550 3538 4550 2338 
Q 4550 1131 3912 565 
Q 3275 0 1925 0 
L 628 0 
L 628 4666 
z
" transform="scale(0.015625)"/>
       </defs>
       <use xlink:href="#DejaVuSans-30"/>
       <use xlink:href="#DejaVuSans-31" x="63.623047"/>
       <use xlink:href="#DejaVuSans-2d" x="127.246094"/>
       <use xlink:href="#DejaVuSans-44" x="163.330078"/>
       <use xlink:href="#DejaVuSans-65" x="240.332031"/>
       <use xlink:href="#DejaVuSans-63" x="301.855469"/>
      </g>
     </g>
    </g>
    <g id="xtick_5">
     <g id="line2d_6">
      <g>
       <use xlink:href="#m2672b482b4" x="182.347397" y="276.48" style="stroke: #000000; stroke-width: 0.8"/>
      </g>
     </g>
     <g id="text_5">
      <!-- 01-Jan -->
      <g transform="translate(158.029553 311.70019) rotate(-45) scale(0.1 -0.1)">
       <defs>
        <path id="DejaVuSans-4a" d="M 628 4666 
L 1259 4666 
L 1259 325 
Q 1259 -519 939 -900 
Q 619 -1281 -91 -1281 
L -331 -1281 
L -331 -750 
L -134 -750 
Q 284 -750 456 -515 
Q 628 -281 628 325 
L 628 4666 
z
" transform="scale(0.015625)"/>
        <path id="DejaVuSans-61" d="M 2194 1759 
Q 1497 1759 1228 1600 
Q 959 1441 959 1056 
Q 959 750 1161 570 
Q 1363 391 1709 391 
Q 2188 391 2477 730 
Q 2766 1069 2766 1631 
L 2766 1759 
L 2194 1759 
z
M 3341 1997 
L 3341 0 
L 2766 0 
L 2766 531 
Q 2569 213 2275 61 
Q 1981 -91 1556 -91 
Q 1019 -91 701 211 
Q 384 513 384 1019 
Q 384 1609 779 1909 
Q 1175 2209 1959 2209 
L 2766 2209 
L 2766 2266 
Q 2766 2663 2505 2880 
Q 2244 3097 1772 3097 
Q 1472 3097 1187 3025 
Q 903 2953 641 2809 
L 641 3341 
Q 956 3463 1253 3523 
Q 1550 3584 1831 3584 
Q 2591 3584 2966 3190 
Q 3341 2797 3341 1997 
z
" transform="scale(0.015625)"/>
        <path id="DejaVuSans-6e" d="M 3513 2113 
L 3513 0 
L 2938 0 
L 2938 2094 
Q 2938 2591 2744 2837 
Q 2550 3084 2163 3084 
Q 1697 3084 1428 2787 
Q 1159 2491 1159 1978 
L 1159 0 
L 581 0 
L 581 3500 
L 1159 3500 
L 1159 2956 
Q 1366 3272 1645 3428 
Q 1925 3584 2291 3584 
Q 2894 3584 3203 3211 
Q 3513 2838 3513 2113 
z
" transform="scale(0.015625)"/>
       </defs>
       <use xlink:href="#DejaVuSans-30"/>
       <use xlink:href="#DejaVuSans-31" x="63.623047"/>
       <use xlink:href="#DejaVuSans-2d" x="127.246094"/>
       <use xlink:href="#DejaVuSans-4a" x="168.955078"/>
       <use xlink:href="#DejaVuSans-61" x="198.447266"/>
       <use xlink:href="#DejaVuSans-6e" x="259.726562"/>
      </g>
     </g>
    </g>
    <g id="xtick_6">
     <g id="line2d_7">
      <g>
       <use xlink:href="#m2672b482b4" x="209.920797" y="276.48" style="stroke: #000000; stroke-width: 0.8"/>
      </g>
     </g>
     <g id="text_6">
      <!-- 01-Feb -->
      <g transform="translate(184.383194 312.919949) rotate(-45) scale(0.1 -0.1)">
       <defs>
        <path id="DejaVuSans-46" d="M 628 4666 
L 3309 4666 
L 3309 4134 
L 1259 4134 
L 1259 2759 
L 3109 2759 
L 3109 2228 
L 1259 2228 
L 1259 0 
L 628 0 
L 628 4666 
z
" transform="scale(0.015625)"/>
        <path id="DejaVuSans-62" d="M 3116 1747 
Q 3116 2381 2855 2742 
Q 2594 3103 2138 3103 
Q 1681 3103 1420 2742 
Q 1159 2381 1159 1747 
Q 1159 1113 1420 752 
Q 1681 391 2138 391 
Q 2594 391 2855 752 
Q 3116 1113 3116 1747 
z
M 1159 2969 
Q 1341 3281 1617 3432 
Q 1894 3584 2278 3584 
Q 2916 3584 3314 3078 
Q 3713 2572 3713 1747 
Q 3713 922 3314 415 
Q 2916 -91 2278 -91 
Q 1894 -91 1617 61 
Q 1341 213 1159 525 
L 1159 0 
L 581 0 
L 581 4863 
L 1159 4863 
L 1159 2969 
z
" transform="scale(0.015625)"/>
       </defs>
       <use xlink:href="#DejaVuSans-30"/>
       <use xlink:href="#DejaVuSans-31" x="63.623047"/>
       <use xlink:href="#DejaVuSans-2d" x="127.246094"/>
       <use xlink:href="#DejaVuSans-46" x="163.330078"/>
       <use xlink:href="#DejaVuSans-65" x="215.349609"/>
       <use xlink:href="#DejaVuSans-62" x="276.873047"/>
      </g>
     </g>
    </g>
    <g id="xtick_7">
     <g id="line2d_8">
      <g>
       <use xlink:href="#m2672b482b4" x="234.825803" y="276.48" style="stroke: #000000; stroke-width: 0.8"/>
      </g>
     </g>
     <g id="text_7">
      <!-- 01-Mar -->
      <g transform="translate(208.465083 313.743065) rotate(-45) scale(0.1 -0.1)">
       <defs>
        <path id="DejaVuSans-4d" d="M 628 4666 
L 1569 4666 
L 2759 1491 
L 3956 4666 
L 4897 4666 
L 4897 0 
L 4281 0 
L 4281 4097 
L 3078 897 
L 2444 897 
L 1241 4097 
L 1241 0 
L 628 0 
L 628 4666 
z
" transform="scale(0.015625)"/>
        <path id="DejaVuSans-72" d="M 2631 2963 
Q 2534 3019 2420 3045 
Q 2306 3072 2169 3072 
Q 1681 3072 1420 2755 
Q 1159 2438 1159 1844 
L 1159 0 
L 581 0 
L 581 3500 
L 1159 3500 
L 1159 2956 
Q 1341 3275 1631 3429 
Q 1922 3584 2338 3584 
Q 2397 3584 2469 3576 
Q 2541 3569 2628 3553 
L 2631 2963 
z
" transform="scale(0.015625)"/>
       </defs>
       <use xlink:href="#DejaVuSans-30"/>
       <use xlink:href="#DejaVuSans-31" x="63.623047"/>
       <use xlink:href="#DejaVuSans-2d" x="127.246094"/>
       <use xlink:href="#DejaVuSans-4d" x="163.330078"/>
       <use xlink:href="#DejaVuSans-61" x="249.609375"/>
       <use xlink:href="#DejaVuSans-72" x="310.888672"/>
      </g>
     </g>
    </g>
    <g id="xtick_8">
     <g id="line2d_9">
      <g>
       <use xlink:href="#m2672b482b4" x="262.399203" y="276.48" style="stroke: #000000; stroke-width: 0.8"/>
      </g>
     </g>
     <g id="text_8">
      <!-- 01-Apr -->
      <g transform="translate(237.305751 312.475797) rotate(-45) scale(0.1 -0.1)">
       <defs>
        <path id="DejaVuSans-41" d="M 2188 4044 
L 1331 1722 
L 3047 1722 
L 2188 4044 
z
M 1831 4666 
L 2547 4666 
L 4325 0 
L 3669 0 
L 3244 1197 
L 1141 1197 
L 716 0 
L 50 0 
L 1831 4666 
z
" transform="scale(0.015625)"/>
       </defs>
       <use xlink:href="#DejaVuSans-30"/>
       <use xlink:href="#DejaVuSans-31" x="63.623047"/>
       <use xlink:href="#DejaVuSans-2d" x="127.246094"/>
       <use xlink:href="#DejaVuSans-41" x="161.080078"/>
       <use xlink:href="#DejaVuSans-70" x="229.488281"/>
       <use xlink:href="#DejaVuSans-72" x="292.964844"/>
      </g>
     </g>
    </g>
    <g id="xtick_9">
     <g id="line2d_10">
      <g>
       <use xlink:href="#m2672b482b4" x="289.083138" y="276.48" style="stroke: #000000; stroke-width: 0.8"/>
      </g>
     </g>
     <g id="text_9">
      <!-- 01-May -->
      <g transform="translate(261.444102 315.021382) rotate(-45) scale(0.1 -0.1)">
       <defs>
        <path id="DejaVuSans-79" d="M 2059 -325 
Q 1816 -950 1584 -1140 
Q 1353 -1331 966 -1331 
L 506 -1331 
L 506 -850 
L 844 -850 
Q 1081 -850 1212 -737 
Q 1344 -625 1503 -206 
L 1606 56 
L 191 3500 
L 800 3500 
L 1894 763 
L 2988 3500 
L 3597 3500 
L 2059 -325 
z
" transform="scale(0.015625)"/>
       </defs>
       <use xlink:href="#DejaVuSans-30"/>
       <use xlink:href="#DejaVuSans-31" x="63.623047"/>
       <use xlink:href="#DejaVuSans-2d" x="127.246094"/>
       <use xlink:href="#DejaVuSans-4d" x="163.330078"/>
       <use xlink:href="#DejaVuSans-61" x="249.609375"/>
       <use xlink:href="#DejaVuSans-79" x="310.888672"/>
      </g>
     </g>
    </g>
    <g id="xtick_10">
     <g id="line2d_11">
      <g>
       <use xlink:href="#m2672b482b4" x="316.656538" y="276.48" style="stroke: #000000; stroke-width: 0.8"/>
      </g>
     </g>
     <g id="text_10">
      <!-- 01-Jun -->
      <g transform="translate(292.190643 311.84824) rotate(-45) scale(0.1 -0.1)">
       <defs>
        <path id="DejaVuSans-75" d="M 544 1381 
L 544 3500 
L 1119 3500 
L 1119 1403 
Q 1119 906 1312 657 
Q 1506 409 1894 409 
Q 2359 409 2629 706 
Q 2900 1003 2900 1516 
L 2900 3500 
L 3475 3500 
L 3475 0 
L 2900 0 
L 2900 538 
Q 2691 219 2414 64 
Q 2138 -91 1772 -91 
Q 1169 -91 856 284 
Q 544 659 544 1381 
z
M 1991 3584 
L 1991 3584 
z
" transform="scale(0.015625)"/>
       </defs>
       <use xlink:href="#DejaVuSans-30"/>
       <use xlink:href="#DejaVuSans-31" x="63.623047"/>
       <use xlink:href="#DejaVuSans-2d" x="127.246094"/>
       <use xlink:href="#DejaVuSans-4a" x="168.955078"/>
       <use xlink:href="#DejaVuSans-75" x="198.447266"/>
       <use xlink:href="#DejaVuSans-6e" x="261.826172"/>
      </g>
     </g>
    </g>
    <g id="xtick_11">
     <g id="line2d_12">
      <g>
       <use xlink:href="#m2672b482b4" x="343.340473" y="276.48" style="stroke: #000000; stroke-width: 0.8"/>
      </g>
     </g>
     <g id="text_11">
      <!-- 01-Jul -->
      <g transform="translate(321.391437 309.331382) rotate(-45) scale(0.1 -0.1)">
       <defs>
        <path id="DejaVuSans-6c" d="M 603 4863 
L 1178 4863 
L 1178 0 
L 603 0 
L 603 4863 
z
" transform="scale(0.015625)"/>
       </defs>
       <use xlink:href="#DejaVuSans-30"/>
       <use xlink:href="#DejaVuSans-31" x="63.623047"/>
       <use xlink:href="#DejaVuSans-2d" x="127.246094"/>
       <use xlink:href="#DejaVuSans-4a" x="168.955078"/>
       <use xlink:href="#DejaVuSans-75" x="198.447266"/>
       <use xlink:href="#DejaVuSans-6c" x="261.826172"/>
      </g>
     </g>
    </g>
    <g id="xtick_12">
     <g id="line2d_13">
      <g>
       <use xlink:href="#m2672b482b4" x="370.913873" y="276.48" style="stroke: #000000; stroke-width: 0.8"/>
      </g>
     </g>
     <g id="text_12">
      <!-- 01-Aug -->
      <g transform="translate(344.246004 314.050215) rotate(-45) scale(0.1 -0.1)">
       <defs>
        <path id="DejaVuSans-67" d="M 2906 1791 
Q 2906 2416 2648 2759 
Q 2391 3103 1925 3103 
Q 1463 3103 1205 2759 
Q 947 2416 947 1791 
Q 947 1169 1205 825 
Q 1463 481 1925 481 
Q 2391 481 2648 825 
Q 2906 1169 2906 1791 
z
M 3481 434 
Q 3481 -459 3084 -895 
Q 2688 -1331 1869 -1331 
Q 1566 -1331 1297 -1286 
Q 1028 -1241 775 -1147 
L 775 -588 
Q 1028 -725 1275 -790 
Q 1522 -856 1778 -856 
Q 2344 -856 2625 -561 
Q 2906 -266 2906 331 
L 2906 616 
Q 2728 306 2450 153 
Q 2172 0 1784 0 
Q 1141 0 747 490 
Q 353 981 353 1791 
Q 353 2603 747 3093 
Q 1141 3584 1784 3584 
Q 2172 3584 2450 3431 
Q 2728 3278 2906 2969 
L 2906 3500 
L 3481 3500 
L 3481 434 
z
" transform="scale(0.015625)"/>
       </defs>
       <use xlink:href="#DejaVuSans-30"/>
       <use xlink:href="#DejaVuSans-31" x="63.623047"/>
       <use xlink:href="#DejaVuSans-2d" x="127.246094"/>
       <use xlink:href="#DejaVuSans-41" x="161.080078"/>
       <use xlink:href="#DejaVuSans-75" x="229.488281"/>
       <use xlink:href="#DejaVuSans-67" x="292.867188"/>
      </g>
     </g>
    </g>
    <g id="xtick_13">
     <g id="line2d_14">
      <g>
       <use xlink:href="#m2672b482b4" x="398.487273" y="276.48" style="stroke: #000000; stroke-width: 0.8"/>
      </g>
     </g>
     <g id="text_13">
      <!-- 01-Sep -->
      <g transform="translate(372.138706 313.730912) rotate(-45) scale(0.1 -0.1)">
       <use xlink:href="#DejaVuSans-30"/>
       <use xlink:href="#DejaVuSans-31" x="63.623047"/>
       <use xlink:href="#DejaVuSans-2d" x="127.246094"/>
       <use xlink:href="#DejaVuSans-53" x="163.330078"/>
       <use xlink:href="#DejaVuSans-65" x="226.806641"/>
       <use xlink:href="#DejaVuSans-70" x="288.330078"/>
      </g>
     </g>
    </g>
   </g>
   <g id="matplotlib.axis_2">
    <g id="ytick_1">
     <g id="line2d_15">
      <defs>
       <path id="ma4ca897fc0" d="M 0 0 
L -3.5 0 
" style="stroke: #000000; stroke-width: 0.8"/>
      </defs>
      <g>
       <use xlink:href="#ma4ca897fc0" x="57.6" y="245.813319" style="stroke: #000000; stroke-width: 0.8"/>
      </g>
     </g>
     <g id="text_14">
      <!-- 420 -->
      <g transform="translate(31.5125 249.612538) scale(0.1 -0.1)">
       <defs>
        <path id="DejaVuSans-34" d="M 2419 4116 
L 825 1625 
L 2419 1625 
L 2419 4116 
z
M 2253 4666 
L 3047 4666 
L 3047 1625 
L 3713 1625 
L 3713 1100 
L 3047 1100 
L 3047 0 
L 2419 0 
L 2419 1100 
L 313 1100 
L 313 1709 
L 2253 4666 
z
" transform="scale(0.015625)"/>
        <path id="DejaVuSans-32" d="M 1228 531 
L 3431 531 
L 3431 0 
L 469 0 
L 469 531 
Q 828 903 1448 1529 
Q 2069 2156 2228 2338 
Q 2531 2678 2651 2914 
Q 2772 3150 2772 3378 
Q 2772 3750 2511 3984 
Q 2250 4219 1831 4219 
Q 1534 4219 1204 4116 
Q 875 4013 500 3803 
L 500 4441 
Q 881 4594 1212 4672 
Q 1544 4750 1819 4750 
Q 2544 4750 2975 4387 
Q 3406 4025 3406 3419 
Q 3406 3131 3298 2873 
Q 3191 2616 2906 2266 
Q 2828 2175 2409 1742 
Q 1991 1309 1228 531 
z
" transform="scale(0.015625)"/>
       </defs>
       <use xlink:href="#DejaVuSans-34"/>
       <use xlink:href="#DejaVuSans-32" x="63.623047"/>
       <use xlink:href="#DejaVuSans-30" x="127.246094"/>
      </g>
     </g>
    </g>
    <g id="ytick_2">
     <g id="line2d_16">
      <g>
       <use xlink:href="#ma4ca897fc0" x="57.6" y="209.458037" style="stroke: #000000; stroke-width: 0.8"/>
      </g>
     </g>
     <g id="text_15">
      <!-- 440 -->
      <g transform="translate(31.5125 213.257255) scale(0.1 -0.1)">
       <use xlink:href="#DejaVuSans-34"/>
       <use xlink:href="#DejaVuSans-34" x="63.623047"/>
       <use xlink:href="#DejaVuSans-30" x="127.246094"/>
      </g>
     </g>
    </g>
    <g id="ytick_3">
     <g id="line2d_17">
      <g>
       <use xlink:href="#ma4ca897fc0" x="57.6" y="173.102754" style="stroke: #000000; stroke-width: 0.8"/>
      </g>
     </g>
     <g id="text_16">
      <!-- 460 -->
      <g transform="translate(31.5125 176.901973) scale(0.1 -0.1)">
       <defs>
        <path id="DejaVuSans-36" d="M 2113 2584 
Q 1688 2584 1439 2293 
Q 1191 2003 1191 1497 
Q 1191 994 1439 701 
Q 1688 409 2113 409 
Q 2538 409 2786 701 
Q 3034 994 3034 1497 
Q 3034 2003 2786 2293 
Q 2538 2584 2113 2584 
z
M 3366 4563 
L 3366 3988 
Q 3128 4100 2886 4159 
Q 2644 4219 2406 4219 
Q 1781 4219 1451 3797 
Q 1122 3375 1075 2522 
Q 1259 2794 1537 2939 
Q 1816 3084 2150 3084 
Q 2853 3084 3261 2657 
Q 3669 2231 3669 1497 
Q 3669 778 3244 343 
Q 2819 -91 2113 -91 
Q 1303 -91 875 529 
Q 447 1150 447 2328 
Q 447 3434 972 4092 
Q 1497 4750 2381 4750 
Q 2619 4750 2861 4703 
Q 3103 4656 3366 4563 
z
" transform="scale(0.015625)"/>
       </defs>
       <use xlink:href="#DejaVuSans-34"/>
       <use xlink:href="#DejaVuSans-36" x="63.623047"/>
       <use xlink:href="#DejaVuSans-30" x="127.246094"/>
      </g>
     </g>
    </g>
    <g id="ytick_4">
     <g id="line2d_18">
      <g>
       <use xlink:href="#ma4ca897fc0" x="57.6" y="136.747471" style="stroke: #000000; stroke-width: 0.8"/>
      </g>
     </g>
     <g id="text_17">
      <!-- 480 -->
      <g transform="translate(31.5125 140.54669) scale(0.1 -0.1)">
       <defs>
        <path id="DejaVuSans-38" d="M 2034 2216 
Q 1584 2216 1326 1975 
Q 1069 1734 1069 1313 
Q 1069 891 1326 650 
Q 1584 409 2034 409 
Q 2484 409 2743 651 
Q 3003 894 3003 1313 
Q 3003 1734 2745 1975 
Q 2488 2216 2034 2216 
z
M 1403 2484 
Q 997 2584 770 2862 
Q 544 3141 544 3541 
Q 544 4100 942 4425 
Q 1341 4750 2034 4750 
Q 2731 4750 3128 4425 
Q 3525 4100 3525 3541 
Q 3525 3141 3298 2862 
Q 3072 2584 2669 2484 
Q 3125 2378 3379 2068 
Q 3634 1759 3634 1313 
Q 3634 634 3220 271 
Q 2806 -91 2034 -91 
Q 1263 -91 848 271 
Q 434 634 434 1313 
Q 434 1759 690 2068 
Q 947 2378 1403 2484 
z
M 1172 3481 
Q 1172 3119 1398 2916 
Q 1625 2713 2034 2713 
Q 2441 2713 2670 2916 
Q 2900 3119 2900 3481 
Q 2900 3844 2670 4047 
Q 2441 4250 2034 4250 
Q 1625 4250 1398 4047 
Q 1172 3844 1172 3481 
z
" transform="scale(0.015625)"/>
       </defs>
       <use xlink:href="#DejaVuSans-34"/>
       <use xlink:href="#DejaVuSans-38" x="63.623047"/>
       <use xlink:href="#DejaVuSans-30" x="127.246094"/>
      </g>
     </g>
    </g>
    <g id="ytick_5">
     <g id="line2d_19">
      <g>
       <use xlink:href="#ma4ca897fc0" x="57.6" y="100.392189" style="stroke: #000000; stroke-width: 0.8"/>
      </g>
     </g>
     <g id="text_18">
      <!-- 500 -->
      <g transform="translate(31.5125 104.191407) scale(0.1 -0.1)">
       <defs>
        <path id="DejaVuSans-35" d="M 691 4666 
L 3169 4666 
L 3169 4134 
L 1269 4134 
L 1269 2991 
Q 1406 3038 1543 3061 
Q 1681 3084 1819 3084 
Q 2600 3084 3056 2656 
Q 3513 2228 3513 1497 
Q 3513 744 3044 326 
Q 2575 -91 1722 -91 
Q 1428 -91 1123 -41 
Q 819 9 494 109 
L 494 744 
Q 775 591 1075 516 
Q 1375 441 1709 441 
Q 2250 441 2565 725 
Q 2881 1009 2881 1497 
Q 2881 1984 2565 2268 
Q 2250 2553 1709 2553 
Q 1456 2553 1204 2497 
Q 953 2441 691 2322 
L 691 4666 
z
" transform="scale(0.015625)"/>
       </defs>
       <use xlink:href="#DejaVuSans-35"/>
       <use xlink:href="#DejaVuSans-30" x="63.623047"/>
       <use xlink:href="#DejaVuSans-30" x="127.246094"/>
      </g>
     </g>
    </g>
    <g id="ytick_6">
     <g id="line2d_20">
      <g>
       <use xlink:href="#ma4ca897fc0" x="57.6" y="64.036906" style="stroke: #000000; stroke-width: 0.8"/>
      </g>
     </g>
     <g id="text_19">
      <!-- 520 -->
      <g transform="translate(31.5125 67.836125) scale(0.1 -0.1)">
       <use xlink:href="#DejaVuSans-35"/>
       <use xlink:href="#DejaVuSans-32" x="63.623047"/>
       <use xlink:href="#DejaVuSans-30" x="127.246094"/>
      </g>
     </g>
    </g>
    <g id="text_20">
     <!-- Discharge (Gt/yr) -->
     <g transform="translate(25.432812 202.04475) rotate(-90) scale(0.1 -0.1)">
      <defs>
       <path id="DejaVuSans-69" d="M 603 3500 
L 1178 3500 
L 1178 0 
L 603 0 
L 603 3500 
z
M 603 4863 
L 1178 4863 
L 1178 4134 
L 603 4134 
L 603 4863 
z
" transform="scale(0.015625)"/>
       <path id="DejaVuSans-73" d="M 2834 3397 
L 2834 2853 
Q 2591 2978 2328 3040 
Q 2066 3103 1784 3103 
Q 1356 3103 1142 2972 
Q 928 2841 928 2578 
Q 928 2378 1081 2264 
Q 1234 2150 1697 2047 
L 1894 2003 
Q 2506 1872 2764 1633 
Q 3022 1394 3022 966 
Q 3022 478 2636 193 
Q 2250 -91 1575 -91 
Q 1294 -91 989 -36 
Q 684 19 347 128 
L 347 722 
Q 666 556 975 473 
Q 1284 391 1588 391 
Q 1994 391 2212 530 
Q 2431 669 2431 922 
Q 2431 1156 2273 1281 
Q 2116 1406 1581 1522 
L 1381 1569 
Q 847 1681 609 1914 
Q 372 2147 372 2553 
Q 372 3047 722 3315 
Q 1072 3584 1716 3584 
Q 2034 3584 2315 3537 
Q 2597 3491 2834 3397 
z
" transform="scale(0.015625)"/>
       <path id="DejaVuSans-68" d="M 3513 2113 
L 3513 0 
L 2938 0 
L 2938 2094 
Q 2938 2591 2744 2837 
Q 2550 3084 2163 3084 
Q 1697 3084 1428 2787 
Q 1159 2491 1159 1978 
L 1159 0 
L 581 0 
L 581 4863 
L 1159 4863 
L 1159 2956 
Q 1366 3272 1645 3428 
Q 1925 3584 2291 3584 
Q 2894 3584 3203 3211 
Q 3513 2838 3513 2113 
z
" transform="scale(0.015625)"/>
       <path id="DejaVuSans-20" transform="scale(0.015625)"/>
       <path id="DejaVuSans-28" d="M 1984 4856 
Q 1566 4138 1362 3434 
Q 1159 2731 1159 2009 
Q 1159 1288 1364 580 
Q 1569 -128 1984 -844 
L 1484 -844 
Q 1016 -109 783 600 
Q 550 1309 550 2009 
Q 550 2706 781 3412 
Q 1013 4119 1484 4856 
L 1984 4856 
z
" transform="scale(0.015625)"/>
       <path id="DejaVuSans-47" d="M 3809 666 
L 3809 1919 
L 2778 1919 
L 2778 2438 
L 4434 2438 
L 4434 434 
Q 4069 175 3628 42 
Q 3188 -91 2688 -91 
Q 1594 -91 976 548 
Q 359 1188 359 2328 
Q 359 3472 976 4111 
Q 1594 4750 2688 4750 
Q 3144 4750 3555 4637 
Q 3966 4525 4313 4306 
L 4313 3634 
Q 3963 3931 3569 4081 
Q 3175 4231 2741 4231 
Q 1884 4231 1454 3753 
Q 1025 3275 1025 2328 
Q 1025 1384 1454 906 
Q 1884 428 2741 428 
Q 3075 428 3337 486 
Q 3600 544 3809 666 
z
" transform="scale(0.015625)"/>
       <path id="DejaVuSans-2f" d="M 1625 4666 
L 2156 4666 
L 531 -594 
L 0 -594 
L 1625 4666 
z
" transform="scale(0.015625)"/>
       <path id="DejaVuSans-29" d="M 513 4856 
L 1013 4856 
Q 1481 4119 1714 3412 
Q 1947 2706 1947 2009 
Q 1947 1309 1714 600 
Q 1481 -109 1013 -844 
L 513 -844 
Q 928 -128 1133 580 
Q 1338 1288 1338 2009 
Q 1338 2731 1133 3434 
Q 928 4138 513 4856 
z
" transform="scale(0.015625)"/>
      </defs>
      <use xlink:href="#DejaVuSans-44"/>
      <use xlink:href="#DejaVuSans-69" x="77.001953"/>
      <use xlink:href="#DejaVuSans-73" x="104.785156"/>
      <use xlink:href="#DejaVuSans-63" x="156.884766"/>
      <use xlink:href="#DejaVuSans-68" x="211.865234"/>
      <use xlink:href="#DejaVuSans-61" x="275.244141"/>
      <use xlink:href="#DejaVuSans-72" x="336.523438"/>
      <use xlink:href="#DejaVuSans-67" x="375.886719"/>
      <use xlink:href="#DejaVuSans-65" x="439.363281"/>
      <use xlink:href="#DejaVuSans-20" x="500.886719"/>
      <use xlink:href="#DejaVuSans-28" x="532.673828"/>
      <use xlink:href="#DejaVuSans-47" x="571.6875"/>
      <use xlink:href="#DejaVuSans-74" x="649.177734"/>
      <use xlink:href="#DejaVuSans-2f" x="688.386719"/>
      <use xlink:href="#DejaVuSans-79" x="722.078125"/>
      <use xlink:href="#DejaVuSans-72" x="781.257812"/>
      <use xlink:href="#DejaVuSans-29" x="822.371094"/>
     </g>
    </g>
   </g>
   <g id="line2d_21">
    <path d="M 182.384458 225.743386 
L 329.998506 219.808386 
L 356.682441 213.920648 
L 384.255841 218.54504 
" clip-path="url(#p809f499382)" style="fill: none; stroke: #999999; stroke-width: 0.2; stroke-linecap: square"/>
   </g>
   <g id="patch_3">
    <path d="M 57.6 276.48 
L 57.6 41.472 
" style="fill: none; stroke: #000000; stroke-width: 0.8; stroke-linejoin: miter; stroke-linecap: square"/>
   </g>
   <g id="patch_4">
    <path d="M 57.6 276.48 
L 414.72 276.48 
" style="fill: none; stroke: #000000; stroke-width: 0.8; stroke-linejoin: miter; stroke-linecap: square"/>
   </g>
   <g id="line2d_22">
    <path d="M 86.28523 216.939954 
L 112.969166 215.620257 
L 182.384458 220.184663 
L 247.315367 218.426885 
L 274.851706 218.1215 
L 301.535641 217.119912 
L 329.109041 217.921546 
L 355.792976 216.747271 
L 383.366376 217.401666 
" clip-path="url(#p809f499382)" style="fill: none; stroke: #999999; stroke-width: 0.2; stroke-linecap: square"/>
   </g>
   <g id="line2d_23">
    <path d="M 86.28523 216.976309 
L 182.384458 217.530727 
L 301.535641 222.069684 
L 329.109041 228.82086 
L 355.792976 197.958861 
L 383.366376 205.351707 
" clip-path="url(#p809f499382)" style="fill: none; stroke: #999999; stroke-width: 0.2; stroke-linecap: square"/>
   </g>
   <g id="line2d_24">
    <path d="M 86.28523 247.851033 
L 112.969166 249.55246 
L 182.384458 255.169351 
L 247.315367 250.837619 
L 274.851706 252.482696 
L 301.535641 242.783106 
L 329.109041 222.191474 
L 355.792976 222.756799 
L 383.366376 230.525923 
" clip-path="url(#p809f499382)" style="fill: none; stroke: #008000; stroke-width: 1.5; stroke-linecap: square"/>
   </g>
   <g id="line2d_25">
    <path d="M 86.28523 237.786073 
L 182.384458 243.706531 
L 274.851706 243.497488 
L 301.535641 243.721073 
L 329.109041 244.04827 
L 355.792976 245.133476 
L 383.366376 245.791506 
" clip-path="url(#p809f499382)" style="fill: none; stroke: #999999; stroke-width: 0.2; stroke-linecap: square"/>
   </g>
   <g id="line2d_26">
    <path d="M 73.832727 133.224644 
L 75.611656 133.482767 
L 80.948443 136.34211 
L 83.616837 135.41505 
L 86.28523 133.900853 
L 91.622017 122.950642 
L 93.400946 121.989044 
L 96.958804 120.445763 
L 100.516663 118.424409 
L 102.295592 117.69185 
L 107.632379 119.226043 
L 112.969166 121.149237 
L 118.305953 117.235591 
L 121.863811 115.565066 
L 124.532204 114.356253 
L 128.090062 112.905677 
L 128.979527 112.400338 
L 134.353375 109.657332 
L 139.690162 108.395804 
L 145.026949 105.71642 
L 148.584807 103.6678 
L 149.474271 103.506019 
L 150.363736 102.96796 
L 154.811059 100.713933 
L 155.700523 100.486712 
L 158.368917 101.172009 
L 161.03731 102.060896 
L 164.595168 102.195411 
L 166.374097 102.051807 
L 168.153026 101.74097 
L 172.600349 101.335608 
L 177.047671 101.306524 
L 177.937136 100.906616 
L 178.8266 100.779372 
L 182.384458 99.13066 
L 187.721245 97.90367 
L 193.058032 97.929118 
L 198.394819 97.66736 
L 203.731606 96.314944 
L 209.068394 95.235192 
L 210.847323 95.37516 
L 214.405181 95.793245 
L 219.741968 94.373572 
L 225.078755 96.952979 
L 230.415542 97.78915 
L 235.752329 98.474447 
L 241.089116 97.071134 
L 248.167771 98.325391 
L 251.725629 98.816187 
L 257.95188 98.141797 
L 262.399203 97.354705 
L 263.288667 97.136573 
L 267.73599 96.745754 
L 271.293848 95.542394 
L 273.072777 94.973434 
L 278.409564 92.561261 
L 283.746351 98.452634 
L 289.083138 97.558294 
L 289.972603 97.231097 
L 294.419925 93.837331 
L 305.093499 93.110226 
L 310.430286 87.620578 
L 315.767073 85.36655 
L 318.435467 82.018229 
L 321.103861 79.087993 
L 326.440648 76.699451 
L 329.109041 73.39112 
L 332.666899 68.546779 
L 337.114222 61.368428 
L 343.340473 54.815389 
L 344.229938 54.062834 
L 347.787796 52.770404 
L 353.124583 60.070545 
L 358.46137 63.520661 
L 362.908692 69.193903 
L 363.798157 70.411805 
L 368.245479 79.402466 
L 369.134944 81.300212 
L 373.582267 88.416759 
L 375.361196 90.776216 
L 378.029589 93.822789 
L 379.808518 95.507856 
L 385.145305 90.565356 
L 386.924234 90.638066 
L 388.703163 91.256106 
L 390.482092 91.963216 
L 395.818879 106.641662 
L 397.597808 109.684599 
L 398.487273 111.118815 
L 398.487273 111.118815 
" clip-path="url(#p809f499382)" style="fill: none; stroke: #ffbf00; stroke-width: 1.5; stroke-linecap: square"/>
   </g>
   <g id="legend_1">
    <g id="patch_5">
     <path d="M 71.7424 79.98354 
L 263.237713 79.98354 
Q 265.237713 79.98354 265.237713 77.98354 
L 265.237713 20.27104 
Q 265.237713 18.27104 263.237713 18.27104 
L 71.7424 18.27104 
Q 69.7424 18.27104 69.7424 20.27104 
L 69.7424 77.98354 
Q 69.7424 79.98354 71.7424 79.98354 
z
" style="fill: #ffffff; opacity: 0.8; stroke: #cccccc; stroke-linejoin: miter"/>
    </g>
    <g id="line2d_27">
     <path d="M 73.7424 26.369478 
L 83.7424 26.369478 
L 93.7424 26.369478 
" style="fill: none; stroke: #008000; stroke-width: 1.5; stroke-linecap: square"/>
    </g>
    <g id="text_21">
     <!-- 1998 -->
     <g transform="translate(101.7424 29.869478) scale(0.1 -0.1)">
      <defs>
       <path id="DejaVuSans-39" d="M 703 97 
L 703 672 
Q 941 559 1184 500 
Q 1428 441 1663 441 
Q 2288 441 2617 861 
Q 2947 1281 2994 2138 
Q 2813 1869 2534 1725 
Q 2256 1581 1919 1581 
Q 1219 1581 811 2004 
Q 403 2428 403 3163 
Q 403 3881 828 4315 
Q 1253 4750 1959 4750 
Q 2769 4750 3195 4129 
Q 3622 3509 3622 2328 
Q 3622 1225 3098 567 
Q 2575 -91 1691 -91 
Q 1453 -91 1209 -44 
Q 966 3 703 97 
z
M 1959 2075 
Q 2384 2075 2632 2365 
Q 2881 2656 2881 3163 
Q 2881 3666 2632 3958 
Q 2384 4250 1959 4250 
Q 1534 4250 1286 3958 
Q 1038 3666 1038 3163 
Q 1038 2656 1286 2365 
Q 1534 2075 1959 2075 
z
" transform="scale(0.015625)"/>
      </defs>
      <use xlink:href="#DejaVuSans-31"/>
      <use xlink:href="#DejaVuSans-39" x="63.623047"/>
      <use xlink:href="#DejaVuSans-39" x="127.246094"/>
      <use xlink:href="#DejaVuSans-38" x="190.869141"/>
     </g>
    </g>
    <g id="line2d_28">
     <path d="M 73.7424 41.047603 
L 83.7424 41.047603 
L 93.7424 41.047603 
" style="fill: none; stroke: #ffbf00; stroke-width: 1.5; stroke-linecap: square"/>
    </g>
    <g id="text_22">
     <!-- 2020 -->
     <g transform="translate(101.7424 44.547603) scale(0.1 -0.1)">
      <use xlink:href="#DejaVuSans-32"/>
      <use xlink:href="#DejaVuSans-30" x="63.623047"/>
      <use xlink:href="#DejaVuSans-32" x="127.246094"/>
      <use xlink:href="#DejaVuSans-30" x="190.869141"/>
     </g>
    </g>
    <g id="line2d_29">
     <path d="M 73.7424 55.725728 
L 83.7424 55.725728 
L 93.7424 55.725728 
" style="fill: none; stroke: #ff591a; stroke-width: 1.5; stroke-linecap: square"/>
    </g>
    <g id="text_23">
     <!-- 2021 -->
     <g transform="translate(101.7424 59.225728) scale(0.1 -0.1)">
      <use xlink:href="#DejaVuSans-32"/>
      <use xlink:href="#DejaVuSans-30" x="63.623047"/>
      <use xlink:href="#DejaVuSans-32" x="127.246094"/>
      <use xlink:href="#DejaVuSans-31" x="190.869141"/>
     </g>
    </g>
    <g id="line2d_30">
     <path d="M 73.7424 70.403853 
L 83.7424 70.403853 
L 93.7424 70.403853 
" style="fill: none; stroke: #ff0000; stroke-width: 1.5; stroke-linecap: square"/>
    </g>
    <g id="text_24">
     <!-- 2022 -->
     <g transform="translate(101.7424 73.903853) scale(0.1 -0.1)">
      <use xlink:href="#DejaVuSans-32"/>
      <use xlink:href="#DejaVuSans-30" x="63.623047"/>
      <use xlink:href="#DejaVuSans-32" x="127.246094"/>
      <use xlink:href="#DejaVuSans-32" x="190.869141"/>
     </g>
    </g>
    <g id="line2d_31">
     <path d="M 147.1924 26.369478 
L 157.1924 26.369478 
L 167.1924 26.369478 
" style="fill: none; stroke: #ff0dcc; stroke-width: 1.5; stroke-linecap: square"/>
    </g>
    <g id="text_25">
     <!-- 2023 -->
     <g transform="translate(175.1924 29.869478) scale(0.1 -0.1)">
      <defs>
       <path id="DejaVuSans-33" d="M 2597 2516 
Q 3050 2419 3304 2112 
Q 3559 1806 3559 1356 
Q 3559 666 3084 287 
Q 2609 -91 1734 -91 
Q 1441 -91 1130 -33 
Q 819 25 488 141 
L 488 750 
Q 750 597 1062 519 
Q 1375 441 1716 441 
Q 2309 441 2620 675 
Q 2931 909 2931 1356 
Q 2931 1769 2642 2001 
Q 2353 2234 1838 2234 
L 1294 2234 
L 1294 2753 
L 1863 2753 
Q 2328 2753 2575 2939 
Q 2822 3125 2822 3475 
Q 2822 3834 2567 4026 
Q 2313 4219 1838 4219 
Q 1578 4219 1281 4162 
Q 984 4106 628 3988 
L 628 4550 
Q 988 4650 1302 4700 
Q 1616 4750 1894 4750 
Q 2613 4750 3031 4423 
Q 3450 4097 3450 3541 
Q 3450 3153 3228 2886 
Q 3006 2619 2597 2516 
z
" transform="scale(0.015625)"/>
      </defs>
      <use xlink:href="#DejaVuSans-32"/>
      <use xlink:href="#DejaVuSans-30" x="63.623047"/>
      <use xlink:href="#DejaVuSans-32" x="127.246094"/>
      <use xlink:href="#DejaVuSans-33" x="190.869141"/>
     </g>
    </g>
    <g id="line2d_32">
     <path d="M 147.1924 41.047603 
L 157.1924 41.047603 
L 167.1924 41.047603 
" style="fill: none; stroke: #000000; stroke-width: 1.5; stroke-linecap: square"/>
    </g>
    <g id="text_26">
     <!-- 1991-2020 mean -->
     <g transform="translate(175.1924 44.547603) scale(0.1 -0.1)">
      <defs>
       <path id="DejaVuSans-6d" d="M 3328 2828 
Q 3544 3216 3844 3400 
Q 4144 3584 4550 3584 
Q 5097 3584 5394 3201 
Q 5691 2819 5691 2113 
L 5691 0 
L 5113 0 
L 5113 2094 
Q 5113 2597 4934 2840 
Q 4756 3084 4391 3084 
Q 3944 3084 3684 2787 
Q 3425 2491 3425 1978 
L 3425 0 
L 2847 0 
L 2847 2094 
Q 2847 2600 2669 2842 
Q 2491 3084 2119 3084 
Q 1678 3084 1418 2786 
Q 1159 2488 1159 1978 
L 1159 0 
L 581 0 
L 581 3500 
L 1159 3500 
L 1159 2956 
Q 1356 3278 1631 3431 
Q 1906 3584 2284 3584 
Q 2666 3584 2933 3390 
Q 3200 3197 3328 2828 
z
" transform="scale(0.015625)"/>
      </defs>
      <use xlink:href="#DejaVuSans-31"/>
      <use xlink:href="#DejaVuSans-39" x="63.623047"/>
      <use xlink:href="#DejaVuSans-39" x="127.246094"/>
      <use xlink:href="#DejaVuSans-31" x="190.869141"/>
      <use xlink:href="#DejaVuSans-2d" x="254.492188"/>
      <use xlink:href="#DejaVuSans-32" x="290.576172"/>
      <use xlink:href="#DejaVuSans-30" x="354.199219"/>
      <use xlink:href="#DejaVuSans-32" x="417.822266"/>
      <use xlink:href="#DejaVuSans-30" x="481.445312"/>
      <use xlink:href="#DejaVuSans-20" x="545.068359"/>
      <use xlink:href="#DejaVuSans-6d" x="576.855469"/>
      <use xlink:href="#DejaVuSans-65" x="674.267578"/>
      <use xlink:href="#DejaVuSans-61" x="735.791016"/>
      <use xlink:href="#DejaVuSans-6e" x="797.070312"/>
     </g>
    </g>
    <g id="patch_6">
     <path d="M 147.1924 59.225728 
L 167.1924 59.225728 
L 167.1924 52.225728 
L 147.1924 52.225728 
z
" style="fill: #808080; fill-opacity: 0.2"/>
    </g>
    <g id="text_27">
     <!-- $\pm$ 1 st. dev. -->
     <g transform="translate(175.1924 59.225728) scale(0.1 -0.1)">
      <defs>
       <path id="DejaVuSans-b1" d="M 2944 4013 
L 2944 2803 
L 4684 2803 
L 4684 2272 
L 2944 2272 
L 2944 1063 
L 2419 1063 
L 2419 2272 
L 678 2272 
L 678 2803 
L 2419 2803 
L 2419 4013 
L 2944 4013 
z
M 678 531 
L 4684 531 
L 4684 0 
L 678 0 
L 678 531 
z
" transform="scale(0.015625)"/>
       <path id="DejaVuSans-2e" d="M 684 794 
L 1344 794 
L 1344 0 
L 684 0 
L 684 794 
z
" transform="scale(0.015625)"/>
       <path id="DejaVuSans-64" d="M 2906 2969 
L 2906 4863 
L 3481 4863 
L 3481 0 
L 2906 0 
L 2906 525 
Q 2725 213 2448 61 
Q 2172 -91 1784 -91 
Q 1150 -91 751 415 
Q 353 922 353 1747 
Q 353 2572 751 3078 
Q 1150 3584 1784 3584 
Q 2172 3584 2448 3432 
Q 2725 3281 2906 2969 
z
M 947 1747 
Q 947 1113 1208 752 
Q 1469 391 1925 391 
Q 2381 391 2643 752 
Q 2906 1113 2906 1747 
Q 2906 2381 2643 2742 
Q 2381 3103 1925 3103 
Q 1469 3103 1208 2742 
Q 947 2381 947 1747 
z
" transform="scale(0.015625)"/>
      </defs>
      <use xlink:href="#DejaVuSans-b1" transform="translate(0 0.015625)"/>
      <use xlink:href="#DejaVuSans-20" transform="translate(83.789062 0.015625)"/>
      <use xlink:href="#DejaVuSans-31" transform="translate(115.576172 0.015625)"/>
      <use xlink:href="#DejaVuSans-20" transform="translate(179.199219 0.015625)"/>
      <use xlink:href="#DejaVuSans-73" transform="translate(210.986328 0.015625)"/>
      <use xlink:href="#DejaVuSans-74" transform="translate(263.085938 0.015625)"/>
      <use xlink:href="#DejaVuSans-2e" transform="translate(302.294922 0.015625)"/>
      <use xlink:href="#DejaVuSans-20" transform="translate(334.082031 0.015625)"/>
      <use xlink:href="#DejaVuSans-64" transform="translate(365.869141 0.015625)"/>
      <use xlink:href="#DejaVuSans-65" transform="translate(429.345703 0.015625)"/>
      <use xlink:href="#DejaVuSans-76" transform="translate(490.869141 0.015625)"/>
      <use xlink:href="#DejaVuSans-2e" transform="translate(550.048828 0.015625)"/>
     </g>
    </g>
    <g id="line2d_33">
     <path d="M 147.1924 70.403853 
L 157.1924 70.403853 
L 167.1924 70.403853 
" style="fill: none; stroke: #0000ff; stroke-width: 3; stroke-linecap: square"/>
    </g>
    <g id="text_28">
     <!-- 2024 -->
     <g transform="translate(175.1924 73.903853) scale(0.1 -0.1)">
      <use xlink:href="#DejaVuSans-32"/>
      <use xlink:href="#DejaVuSans-30" x="63.623047"/>
      <use xlink:href="#DejaVuSans-32" x="127.246094"/>
      <use xlink:href="#DejaVuSans-34" x="190.869141"/>
     </g>
    </g>
   </g>
   <g id="line2d_34">
    <path d="M 86.28523 246.17869 
L 112.969166 246.489528 
L 182.384458 250.555866 
L 275.741171 242.008739 
L 302.425106 241.53612 
L 329.998506 239.183934 
L 356.682441 239.700179 
L 384.255841 239.312995 
" clip-path="url(#p809f499382)" style="fill: none; stroke: #999999; stroke-width: 0.2; stroke-linecap: square"/>
   </g>
   <g id="line2d_35">
    <path d="M 73.832727 112.573026 
L 75.611656 114.598015 
L 80.948443 118.737064 
L 86.28523 114.912489 
L 90.732553 110.333541 
L 91.622017 109.39921 
L 98.737733 102.458986 
L 100.516663 100.804821 
L 102.295592 99.414232 
L 107.632379 96.840278 
L 110.300772 96.285859 
L 112.969166 95.936849 
L 118.305953 96.416738 
L 123.64274 96.153163 
L 129.016588 95.424239 
L 134.353375 93.733719 
L 139.690162 93.379255 
L 145.026949 92.421293 
L 150.363736 91.763262 
L 155.700523 90.210892 
L 161.03731 87.620578 
L 171.710884 87.169772 
L 177.047671 85.232036 
L 180.605529 84.132288 
L 182.384458 83.541515 
L 194.836961 84.203181 
L 198.394819 84.733968 
L 203.731606 84.19591 
L 209.068394 86.837121 
L 211.736787 86.384498 
L 214.405181 85.904608 
L 225.968219 88.351319 
L 228.636613 88.569451 
L 230.415542 88.68397 
L 235.752329 89.923685 
L 238.420722 89.643749 
L 241.089116 89.411075 
L 246.425903 88.542184 
L 251.725629 88.514918 
L 257.062416 89.576492 
L 257.95188 89.409258 
L 262.399203 88.729414 
L 265.067597 88.622166 
L 267.73599 88.493105 
L 273.072777 87.335189 
L 276.630635 86.384498 
L 279.299029 86.588088 
L 283.746351 87.131599 
L 289.083138 89.002079 
L 292.640996 86.555368 
L 294.419925 85.204769 
L 299.756712 81.934612 
L 301.535641 81.016641 
L 310.430286 72.825796 
L 315.767073 68.197768 
L 316.656538 66.978048 
L 321.103861 62.766289 
L 326.440648 60.87945 
L 332.666899 56.202343 
L 337.114222 52.156 
L 340.67208 52.237799 
L 341.561544 52.394127 
L 342.451009 52.777675 
L 343.340473 53.759268 
L 346.898331 58.585431 
L 347.787796 59.726987 
L 350.456189 57.383889 
L 353.124583 54.837202 
L 358.46137 56.744036 
L 363.798157 55.762444 
L 365.577086 59.48886 
L 369.134944 67.234353 
L 370.913873 72.353177 
L 374.471731 82.867125 
L 379.808518 86.104563 
L 382.476912 89.974582 
L 385.145305 93.990023 
L 391.371557 107.221528 
L 395.818879 115.172429 
L 395.818879 115.172429 
" clip-path="url(#p809f499382)" style="fill: none; stroke: #ff591a; stroke-width: 1.5; stroke-linecap: square"/>
   </g>
   <g id="line2d_36">
    <path d="M 86.28523 238.462281 
L 112.969166 237.973303 
L 182.384458 235.830159 
L 247.315367 239.789249 
L 274.851706 240.965342 
L 301.535641 242.165067 
L 329.109041 243.197557 
L 355.792976 244.786283 
" clip-path="url(#p809f499382)" style="fill: none; stroke: #999999; stroke-width: 0.2; stroke-linecap: square"/>
   </g>
   <g id="line2d_37">
    <path d="M 73.832727 117.853631 
L 75.611656 118.52075 
L 77.390585 119.00064 
L 78.28005 119.004276 
L 81.837908 119.693208 
L 87.174695 116.17947 
L 92.511482 112.503951 
L 95.179875 110.249924 
L 100.516663 106.259931 
L 103.185056 104.796631 
L 108.521843 104.60213 
L 113.85863 104.653028 
L 124.532204 102.74074 
L 128.090062 102.578959 
L 135.242839 101.726428 
L 141.469091 100.36674 
L 145.916413 99.726887 
L 151.2532 98.045455 
L 156.589988 97.452864 
L 162.816239 96.629417 
L 167.263562 96.205878 
L 172.600349 93.997294 
L 177.937136 92.384938 
L 182.384458 91.554219 
L 188.61071 91.361536 
L 192.168568 91.452425 
L 199.284284 92.204979 
L 201.952677 92.695775 
L 210.847323 93.70827 
L 212.626252 93.764621 
L 216.18411 94.355394 
L 223.299826 95.380613 
L 231.305006 94.982523 
L 233.9734 94.620788 
L 241.97858 94.782569 
L 244.646974 94.622605 
L 245.536438 94.419016 
L 252.615093 92.617611 
L 255.283487 92.379484 
L 265.957061 93.370166 
L 275.741171 93.788252 
L 276.630635 93.837331 
L 283.746351 93.082959 
L 285.52528 92.753944 
L 287.304209 92.346765 
L 289.083138 92.264965 
L 296.198854 90.509005 
L 297.977783 89.99276 
L 300.646177 88.845751 
L 301.535641 88.647615 
L 306.872428 86.375409 
L 308.651357 85.731921 
L 309.540822 85.677388 
L 316.656538 85.490158 
L 319.324932 84.883025 
L 320.214396 84.417677 
L 321.103861 84.294069 
L 325.551183 81.723751 
L 328.219577 80.155021 
L 329.998506 79.026189 
L 330.88797 78.849866 
L 334.445828 76.603109 
L 338.003686 73.907365 
L 340.67208 71.449748 
L 343.340473 68.52133 
L 349.566725 65.558375 
L 350.456189 65.543832 
L 351.345654 65.105751 
L 353.124583 64.769465 
L 357.571905 64.153243 
L 358.46137 64.087803 
L 359.350834 64.173238 
L 362.019228 68.075978 
L 369.134944 83.543333 
L 370.024408 85.673752 
L 370.913873 87.213399 
L 372.692802 89.640114 
L 378.919054 96.596697 
L 379.808518 97.863679 
L 380.697983 98.90344 
L 383.366376 100.803003 
L 386.924234 102.27721 
L 389.592628 102.684389 
L 391.371557 102.764371 
L 393.150486 101.78096 
L 394.03995 101.186552 
L 397.597808 97.907305 
L 397.597808 97.907305 
" clip-path="url(#p809f499382)" style="fill: none; stroke: #ff0000; stroke-width: 1.5; stroke-linecap: square"/>
   </g>
   <g id="line2d_38">
    <path d="M 73.832727 97.267452 
L 75.611656 96.344028 
L 76.501121 95.698722 
L 77.390585 95.242463 
L 80.058979 97.858225 
L 83.616837 104.344008 
L 88.064159 112.014972 
L 90.732553 114.927031 
L 95.179875 117.826364 
L 98.737733 119.909522 
L 100.516663 119.914975 
L 101.406127 120.676619 
L 109.411308 115.094265 
L 112.079701 113.749119 
L 116.527024 112.533035 
L 120.974346 111.551443 
L 122.753275 110.982482 
L 128.090062 108.904778 
L 129.868991 106.432619 
L 130.758456 105.979996 
L 133.46391 105.376498 
L 141.469091 105.258343 
L 145.026949 104.745734 
L 152.142665 103.20427 
L 154.811059 102.902521 
L 155.700523 102.935241 
L 162.816239 103.671435 
L 175.268742 105.938187 
L 176.158207 106.061795 
L 185.052852 106.47261 
L 194.836961 106.518054 
L 199.284284 107.4233 
L 205.510535 109.002937 
L 209.068394 109.373761 
L 218.852503 109.955446 
L 226.857684 109.439201 
L 229.526077 109.72459 
L 240.199651 111.409657 
L 250.836164 114.461683 
L 259.730809 115.59415 
L 261.509738 115.40692 
L 263.288667 114.808876 
L 270.404384 112.276731 
L 272.183313 111.945897 
L 273.962242 112.244011 
L 280.188493 113.034738 
L 281.077958 113.478273 
L 283.746351 114.514398 
L 290.862067 117.920888 
L 293.530461 117.833635 
L 301.535641 116.168564 
L 304.204035 116.164928 
L 312.209215 114.299902 
L 323.772254 109.337406 
L 325.551183 108.915685 
L 331.777435 108.152224 
L 333.556364 107.650521 
L 336.224757 104.09861 
L 343.340473 87.842345 
L 344.229938 85.788272 
L 346.898331 82.016411 
L 347.787796 81.945518 
L 349.566725 82.190916 
L 352.235118 82.743517 
L 354.903512 83.61059 
L 355.792976 85.12297 
L 357.571905 87.853252 
L 360.240299 93.57012 
L 361.129763 95.442417 
L 362.019228 97.725529 
L 367.356015 111.900453 
L 368.245479 114.087224 
L 370.913873 119.060626 
L 372.692802 121.347374 
L 376.25066 125.966312 
L 378.029589 124.861112 
L 378.919054 123.69956 
L 381.587447 118.491666 
L 386.03477 109.453743 
L 386.924234 107.928639 
L 388.703163 109.65915 
L 389.592628 110.498957 
L 390.482092 113.694587 
L 392.261021 121.058349 
L 396.708344 139.604997 
L 397.597808 143.189627 
L 397.597808 143.189627 
" clip-path="url(#p809f499382)" style="fill: none; stroke: #ff0dcc; stroke-width: 1.5; stroke-linecap: square"/>
   </g>
   <g id="line2d_39">
    <path d="M 86.28523 265.797818 
L 112.969166 248.141875 
L 182.384458 245.822408 
L 355.792976 231.921966 
L 383.366376 238.051466 
" clip-path="url(#p809f499382)" style="fill: none; stroke: #999999; stroke-width: 0.2; stroke-linecap: square"/>
   </g>
   <g id="line2d_40">
    <path d="M 86.28523 226.330523 
L 112.969166 228.273713 
L 140.579626 229.149875 
L 167.263562 230.169641 
L 182.384458 230.980364 
L 222.410361 235.106689 
L 248.204832 237.78062 
L 275.741171 228.001049 
L 302.425106 229.871528 
L 329.998506 210.279666 
L 356.682441 207.994737 
L 384.255841 204.299222 
" clip-path="url(#p809f499382)" style="fill: none; stroke: #999999; stroke-width: 0.2; stroke-linecap: square"/>
   </g>
   <g id="line2d_41">
    <path d="M 75.611656 237.426156 
L 86.28523 239.345715 
L 112.969166 241.159843 
L 140.579626 241.567022 
L 247.315367 243.602918 
L 274.851706 243.026687 
L 301.535641 244.091897 
L 329.109041 226.272355 
L 355.792976 230.353235 
L 383.366376 240.645416 
" clip-path="url(#p809f499382)" style="fill: none; stroke: #999999; stroke-width: 0.2; stroke-linecap: square"/>
   </g>
   <g id="line2d_42">
    <path d="M 86.28523 239.907404 
L 112.969166 239.936488 
L 140.579626 235.773808 
L 194.836961 231.174865 
L 222.410361 228.535471 
L 247.315367 225.748839 
L 274.851706 221.509813 
L 301.535641 214.478701 
L 329.109041 201.209023 
L 355.792976 201.737992 
L 383.366376 210.60141 
" clip-path="url(#p809f499382)" style="fill: none; stroke: #999999; stroke-width: 0.2; stroke-linecap: square"/>
   </g>
   <g id="line2d_43">
    <path d="M 86.28523 211.446671 
L 112.969166 206.287856 
L 222.410361 196.266522 
L 247.315367 193.967051 
L 274.851706 191.285849 
L 301.535641 189.048181 
L 329.109041 180.973673 
L 355.792976 182.649651 
L 383.366376 187.679405 
" clip-path="url(#p809f499382)" style="fill: none; stroke: #999999; stroke-width: 0.2; stroke-linecap: square"/>
   </g>
   <g id="line2d_44">
    <path d="M 86.28523 184.01661 
L 112.969166 181.782578 
L 248.204832 171.185013 
L 275.741171 170.336117 
L 302.425106 167.320446 
L 329.998506 148.410246 
L 356.682441 157.806269 
L 384.255841 166.338854 
" clip-path="url(#p809f499382)" style="fill: none; stroke: #999999; stroke-width: 0.2; stroke-linecap: square"/>
   </g>
   <g id="line2d_45">
    <path d="M 86.28523 164.217523 
L 112.969166 161.632662 
L 247.315367 147.272326 
L 274.851706 146.047153 
L 301.535641 141.96809 
L 329.109041 128.658421 
L 355.792976 131.897677 
L 383.366376 143.811303 
" clip-path="url(#p809f499382)" style="fill: none; stroke: #999999; stroke-width: 0.2; stroke-linecap: square"/>
   </g>
   <g id="line2d_46">
    <path d="M 86.28523 151.340482 
L 112.969166 150.637007 
L 165.484633 148.021244 
L 247.315367 149.186431 
L 274.851706 151.44773 
L 301.535641 148.448419 
L 329.109041 147.492275 
L 355.792976 142.498877 
L 383.366376 159.007811 
" clip-path="url(#p809f499382)" style="fill: none; stroke: #999999; stroke-width: 0.2; stroke-linecap: square"/>
   </g>
   <g id="line2d_47">
    <path d="M 86.28523 171.693987 
L 112.969166 169.559932 
L 140.579626 171.432229 
L 169.931955 172.759197 
L 247.278306 170.565155 
L 274.851706 170.301579 
L 301.535641 165.579028 
L 329.109041 140.893791 
L 355.792976 156.461123 
L 383.366376 180.126595 
" clip-path="url(#p809f499382)" style="fill: none; stroke: #999999; stroke-width: 0.2; stroke-linecap: square"/>
   </g>
   <g id="line2d_48">
    <path d="M 79.169514 182.635109 
L 86.28523 183.56944 
L 112.969166 180.501054 
L 248.167771 167.018697 
L 275.741171 165.315452 
L 302.425106 161.130959 
L 329.998506 138.756101 
L 331.777435 138.845171 
L 356.682441 157.066439 
L 384.255841 161.300011 
L 398.487273 160.436573 
" clip-path="url(#p809f499382)" style="fill: none; stroke: #999999; stroke-width: 0.2; stroke-linecap: square"/>
   </g>
   <g id="line2d_49">
    <path d="M 74.722192 160.923734 
L 86.28523 161.021894 
L 112.969166 160.263886 
L 131.684981 159.567682 
L 132.574446 159.505878 
L 133.46391 159.471341 
L 140.579626 159.136872 
L 194.836961 156.584731 
L 209.068394 154.461583 
L 209.957858 154.316162 
L 210.847323 153.658131 
L 211.736787 153.51271 
L 212.626252 152.527482 
L 213.515716 152.243911 
L 214.405181 151.725848 
L 217.073574 151.249594 
L 217.963039 150.836961 
L 218.852503 150.778793 
L 221.520897 150.266183 
L 222.410361 150.128033 
L 231.305006 150.906036 
L 241.089116 151.614964 
L 246.388842 152.080312 
L 247.278306 152.127574 
L 250.836164 151.498627 
L 256.172951 150.669727 
L 260.620274 149.977159 
L 270.404384 148.324811 
L 274.851706 147.421382 
L 280.188493 147.810384 
L 285.52528 148.517494 
L 286.414745 148.635649 
L 287.304209 148.730172 
L 288.193674 148.806519 
L 289.083138 148.877411 
L 289.972603 148.942851 
L 290.862067 148.988295 
L 291.751532 149.00829 
L 292.640996 149.021015 
L 299.756712 149.126445 
L 301.535641 148.988295 
L 309.540822 143.704055 
L 319.324932 137.445493 
L 324.661719 134.064451 
L 325.551183 133.480949 
L 328.219577 131.726807 
L 329.109041 131.161482 
L 334.445828 129.085595 
L 335.335293 128.77294 
L 337.114222 128.147629 
L 338.893151 127.544131 
L 344.229938 125.977219 
L 345.119402 125.65911 
L 346.898331 125.02471 
L 347.787796 124.757499 
L 348.67726 124.497559 
L 349.566725 124.28488 
L 350.456189 124.09038 
L 351.345654 123.914057 
L 354.014047 123.414171 
L 354.903512 123.363274 
L 355.792976 123.352367 
L 356.682441 124.666611 
L 358.46137 127.036975 
L 363.798157 135.682262 
L 364.687621 137.054673 
L 366.46655 139.79768 
L 367.356015 141.075568 
L 368.245479 142.357091 
L 373.582267 149.104632 
L 374.471731 150.24437 
L 376.25066 152.522028 
L 377.140125 153.703575 
L 378.029589 154.857855 
L 383.366376 161.899874 
L 384.255841 162.088921 
L 386.03477 162.465198 
L 386.924234 162.605166 
L 387.813699 162.736045 
L 393.150486 163.499506 
L 394.03995 163.615843 
L 394.929415 163.752175 
L 395.818879 163.830339 
L 396.708344 163.950312 
L 397.597808 164.07392 
" clip-path="url(#p809f499382)" style="fill: none; stroke: #999999; stroke-width: 0.2; stroke-linecap: square"/>
   </g>
   <g id="line2d_50">
    <path d="M 74.722192 164.628338 
L 75.611656 164.755581 
L 78.28005 165.066419 
L 79.169514 165.182756 
L 81.837908 165.402705 
L 82.727372 165.451785 
L 86.28523 165.724449 
L 88.064159 165.591753 
L 88.953624 165.524495 
L 89.843088 165.437243 
L 91.622017 165.235471 
L 92.511482 165.160942 
L 93.400946 165.070054 
L 97.848269 164.619249 
L 101.406127 164.253878 
L 102.295592 164.14663 
L 110.300772 163.14686 
L 112.079701 162.883284 
L 112.969166 162.737863 
L 121.863811 161.674471 
L 131.684981 160.567452 
L 132.574446 160.456569 
L 133.46391 160.345685 
L 134.353375 160.232984 
L 137.021768 159.949413 
L 137.911233 159.856707 
L 138.800697 159.771272 
L 140.579626 159.596766 
L 141.469091 159.509514 
L 146.805878 159.164139 
L 149.474271 158.980544 
L 150.363736 158.927829 
L 151.2532 158.880567 
L 161.03731 157.882615 
L 170.82142 156.524745 
L 180.605529 155.57769 
L 190.389639 154.663355 
L 211.736787 151.836731 
L 212.626252 151.72403 
L 215.294645 151.30958 
L 217.073574 151.047822 
L 218.852503 150.807877 
L 219.741968 150.693358 
L 229.526077 149.264595 
L 239.310187 147.890365 
L 247.278306 146.968759 
L 249.057235 147.194162 
L 258.841345 148.321176 
L 268.625455 149.466367 
L 274.851706 150.373431 
L 278.409564 150.104402 
L 283.746351 149.629966 
L 284.635816 149.557255 
L 285.52528 149.489998 
L 286.414745 149.428194 
L 287.304209 149.360937 
L 288.193674 149.271866 
L 289.083138 149.166436 
L 289.972603 149.051917 
L 290.862067 148.931944 
L 293.530461 148.630195 
L 295.30939 148.430241 
L 297.977783 148.13031 
L 301.535641 147.657692 
L 304.204035 146.16349 
L 307.761893 144.173038 
L 313.988144 140.0249 
L 317.546002 137.654536 
L 323.772254 134.328027 
L 326.440648 132.901082 
L 327.330112 132.473908 
L 329.109041 131.481409 
L 332.666899 132.270318 
L 333.556364 132.468455 
L 335.335293 132.862909 
L 337.114222 133.340981 
L 342.451009 136.100347 
L 343.340473 136.560242 
L 345.119402 137.478212 
L 346.898331 138.245309 
L 347.787796 138.485254 
L 348.67726 138.759736 
L 349.566725 139.066938 
L 352.235118 139.868572 
L 353.124583 140.135784 
L 354.014047 140.401177 
L 354.903512 140.670206 
L 355.792976 140.955595 
L 356.682441 140.942871 
L 362.019228 141.291882 
L 362.908692 141.35005 
L 364.687621 141.466387 
L 365.577086 141.500925 
L 374.471731 141.620897 
L 382.476912 141.757229 
L 383.366376 141.771771 
L 384.255841 142.028076 
L 391.371557 143.665882 
L 394.03995 144.280286 
L 394.929415 144.523866 
L 396.708344 144.863788 
L 397.597808 145.001938 
" clip-path="url(#p809f499382)" style="fill: none; stroke: #999999; stroke-width: 0.2; stroke-linecap: square"/>
   </g>
   <g id="line2d_51">
    <path d="M 73.832727 145.141906 
L 76.501121 145.625431 
L 77.390585 145.778124 
L 78.28005 145.905367 
L 79.169514 146.023522 
L 80.058979 146.208934 
L 80.948443 146.450696 
L 83.616837 146.983301 
L 86.28523 147.483186 
L 96.06934 146.061695 
L 110.300772 144.076696 
L 112.969166 143.747681 
L 120.084882 143.336866 
L 125.421669 142.906056 
L 128.090062 142.684289 
L 129.868991 142.518872 
L 135.242839 142.15532 
L 137.911233 141.973543 
L 139.690162 142.208035 
L 142.358555 142.066249 
L 145.026949 141.8463 
L 145.916413 141.773589 
L 146.805878 141.70815 
L 147.695342 141.17918 
L 148.584807 141.130101 
L 149.474271 140.91924 
L 150.363736 140.682931 
L 156.589988 139.05785 
L 157.479452 138.823358 
L 158.368917 138.588866 
L 159.258381 138.503431 
L 164.595168 138.141696 
L 167.263562 137.879938 
L 169.042491 137.707251 
L 176.158207 136.01673 
L 178.8266 135.742248 
L 193.947497 133.904488 
L 213.515716 132.093995 
L 214.405181 132.030373 
L 215.294645 131.974023 
L 220.631432 131.652278 
L 224.18929 131.4396 
L 225.078755 131.385067 
L 228.636613 131.205108 
L 232.194471 131.023332 
L 233.083935 130.983341 
L 235.752329 131.154211 
L 236.641793 131.0815 
L 237.531258 132.133986 
L 238.420722 132.293949 
L 241.089116 132.115808 
L 241.97858 132.166706 
L 242.868045 132.117626 
L 244.646974 132.275772 
L 245.536438 132.344847 
L 246.388842 132.31758 
L 247.278306 132.303038 
L 248.167771 132.292131 
L 249.057235 132.059458 
L 250.836164 131.917672 
L 251.725629 132.624782 
L 257.062416 132.206696 
L 262.399203 131.592292 
L 263.288667 131.539577 
L 265.067597 131.434147 
L 266.846526 131.326899 
L 269.514919 130.458007 
L 272.183313 130.181707 
L 274.851706 129.905407 
L 276.630635 129.963576 
L 283.746351 130.30168 
L 284.635816 130.334399 
L 285.52528 130.359848 
L 287.304209 130.421652 
L 288.193674 130.450736 
L 289.083138 130.474367 
L 291.751532 130.554349 
L 292.640996 130.574344 
L 294.419925 130.627059 
L 301.535641 130.850644 
L 302.425106 130.156259 
L 305.982964 127.380533 
L 321.103861 115.094265 
L 323.772254 112.762074 
L 324.661719 111.980435 
L 327.330112 109.477374 
L 329.109041 107.76504 
L 333.556364 110.160853 
L 334.445828 110.640743 
L 337.114222 112.045874 
L 343.340473 115.185153 
L 344.229938 115.655954 
L 346.898331 117.421003 
L 352.235118 121.271027 
L 353.124583 121.932694 
L 354.014047 122.578 
L 355.792976 123.841346 
L 356.682441 123.852253 
L 360.240299 124.552092 
L 361.129763 124.757499 
L 362.908692 125.181038 
L 365.577086 125.791807 
L 372.692802 127.404164 
L 373.582267 127.616842 
L 376.25066 128.229429 
L 379.808518 128.274873 
L 382.476912 128.311228 
L 383.366376 128.298504 
L 386.03477 130.154441 
L 389.592628 132.421193 
L 392.261021 134.102624 
L 394.929415 135.774967 
L 396.708344 137.209183 
" clip-path="url(#p809f499382)" style="fill: none; stroke: #999999; stroke-width: 0.2; stroke-linecap: square"/>
   </g>
   <g id="line2d_52">
    <path d="M 73.832727 138.652488 
L 77.390585 141.64271 
L 80.058979 144.193033 
L 81.837908 145.56181 
L 86.28523 148.871958 
L 89.843088 149.059188 
L 99.627198 149.470002 
L 108.521843 150.218921 
L 109.411308 150.117126 
L 112.969166 150.458866 
L 128.979527 149.413652 
L 143.24802 149.142805 
L 157.479452 148.633831 
L 167.263562 148.012156 
L 169.042491 147.557715 
L 178.8266 146.892413 
L 193.058032 146.290733 
L 193.947497 146.105321 
L 194.836961 146.108957 
L 197.505355 145.881736 
L 206.4 144.901961 
L 212.626252 143.831298 
L 218.852503 143.540456 
L 225.968219 142.860612 
L 226.857684 142.657022 
L 234.862864 142.053525 
L 236.641793 139.037854 
L 238.420722 135.993099 
L 243.757509 127.658651 
L 244.646974 127.011527 
L 245.499377 128.365761 
L 248.167771 131.948574 
L 254.394022 141.837211 
L 260.620274 142.484335 
L 268.625455 142.786084 
L 275.741171 142.798808 
L 278.409564 142.573405 
L 293.530461 141.622715 
L 302.425106 141.52092 
L 306.872428 138.354375 
L 314.877609 132.526623 
L 323.772254 125.275562 
L 325.551183 124.075838 
L 329.998506 119.771372 
L 333.556364 120.191276 
L 339.782615 122.361686 
L 343.340473 123.012446 
L 349.566725 124.517554 
L 353.124583 126.266243 
L 354.903512 128.393027 
L 357.571905 130.16353 
L 367.356015 136.393007 
L 370.913873 138.816087 
L 380.697983 146.30164 
L 383.366376 148.152123 
L 384.255841 148.926491 
L 391.371557 149.82992 
L 393.150486 149.949892 
L 394.03995 149.848097 
L 398.487273 149.050099 
L 398.487273 149.050099 
" clip-path="url(#p809f499382)" style="fill: none; stroke: #999999; stroke-width: 0.2; stroke-linecap: square"/>
   </g>
   <g id="line2d_53">
    <path d="M 73.832727 148.85378 
L 78.28005 147.595888 
L 86.28523 145.072831 
L 87.174695 144.741998 
L 95.179875 142.173497 
L 96.958804 141.715421 
L 107.632379 140.383 
L 112.969166 139.086934 
L 116.527024 138.945148 
L 117.416488 139.106929 
L 138.800697 138.605226 
L 145.026949 138.499796 
L 146.805878 138.001729 
L 154.811059 137.381871 
L 155.700523 137.08194 
L 156.589988 136.580237 
L 165.484633 136.507526 
L 166.374097 136.189418 
L 173.489813 136.409367 
L 176.158207 136.622046 
L 184.163387 137.707251 
L 185.942316 137.334609 
L 193.947497 138.063533 
L 195.726426 137.639993 
L 203.731606 137.998093 
L 204.621071 137.703615 
L 213.515716 138.205318 
L 214.405181 137.954467 
L 224.18929 138.263487 
L 225.078755 138.099888 
L 232.194471 138.756101 
L 243.720448 139.197817 
L 247.278306 139.230537 
L 261.509738 145.054653 
L 272.183313 149.36639 
L 274.851706 150.275272 
L 281.967422 145.461833 
L 282.856887 144.436614 
L 290.862067 139.635899 
L 293.530461 137.77269 
L 301.535641 131.950392 
L 305.982964 126.509824 
L 312.209215 118.887939 
L 313.09868 117.550064 
L 322.88279 105.412853 
L 329.109041 96.560342 
L 331.777435 97.794604 
L 332.666899 98.061815 
L 337.114222 100.684849 
L 341.561544 103.43149 
L 349.566725 107.116098 
L 355.792976 110.404433 
L 359.350834 108.73209 
L 363.798157 106.690741 
L 366.46655 104.99295 
L 368.245479 104.373092 
L 373.582267 103.046124 
L 383.366376 101.077486 
L 389.592628 106.063613 
L 390.482092 107.408758 
L 394.03995 110.209933 
L 397.597808 112.798429 
L 397.597808 112.798429 
" clip-path="url(#p809f499382)" style="fill: none; stroke: #999999; stroke-width: 0.2; stroke-linecap: square"/>
   </g>
   <g id="line2d_54">
    <path d="M 73.832727 113.411015 
L 75.611656 114.581655 
L 76.501121 114.656184 
L 79.169514 116.45577 
L 86.28523 121.540057 
L 95.179875 121.939965 
L 96.06934 122.101746 
L 104.963985 123.174227 
L 105.85345 123.134236 
L 114.748095 124.210352 
L 115.637559 124.13037 
L 122.753275 124.744775 
L 124.532204 124.837481 
L 125.421669 124.592083 
L 134.353375 125.113781 
L 135.242839 124.888378 
L 142.358555 125.746363 
L 152.142665 127.091508 
L 153.921594 127.307822 
L 154.811059 127.213298 
L 167.263562 128.453014 
L 170.82142 128.418476 
L 173.489813 128.396663 
L 174.379278 128.229429 
L 185.942316 128.405752 
L 195.726426 128.418476 
L 202.842142 128.969259 
L 203.731606 128.858375 
L 218.852503 129.483686 
L 222.410361 129.696364 
L 229.526077 128.393027 
L 241.089116 126.489828 
L 242.830984 125.768176 
L 247.278306 125.330095 
L 250.836164 126.39894 
L 260.620274 128.427565 
L 264.178132 129.087413 
L 269.514919 130.201703 
L 272.183313 130.632513 
L 274.851706 131.314174 
L 280.188493 131.203291 
L 281.967422 130.26896 
L 285.52528 129.901772 
L 297.977783 128.387574 
L 301.535641 127.72409 
L 305.982964 125.266473 
L 310.430286 122.239896 
L 318.435467 116.463041 
L 321.103861 114.430781 
L 326.440648 108.917502 
L 328.219577 107.341501 
L 329.109041 106.588947 
L 335.335293 103.762323 
L 338.893151 103.242443 
L 345.119402 103.475117 
L 346.898331 104.189498 
L 354.903512 108.412164 
L 355.792976 108.681193 
L 358.46137 111.440559 
L 359.350834 113.640054 
L 366.46655 119.287847 
L 372.692802 124.686606 
L 382.476912 133.093765 
L 383.366376 133.84632 
L 386.03477 135.445952 
L 390.482092 138.836082 
L 394.03995 141.657252 
L 395.818879 142.729733 
L 396.708344 142.58613 
L 396.708344 142.58613 
" clip-path="url(#p809f499382)" style="fill: none; stroke: #999999; stroke-width: 0.2; stroke-linecap: square"/>
   </g>
   <g id="line2d_55">
    <path d="M 73.832727 143.287787 
L 79.169514 144.545679 
L 86.28523 146.314364 
L 112.079701 139.086934 
L 113.85863 138.027177 
L 126.311133 134.149886 
L 138.800697 131.314174 
L 140.579626 130.994248 
L 147.695342 130.534353 
L 153.03213 129.972664 
L 154.811059 129.321905 
L 161.926775 129.103773 
L 162.816239 128.867464 
L 170.82142 128.442107 
L 176.158207 127.620478 
L 177.047671 127.524136 
L 180.605529 127.827703 
L 181.494994 127.20421 
L 182.384458 127.798618 
L 186.831781 126.86247 
L 190.389639 126.704324 
L 191.279103 126.17172 
L 194.836961 125.446432 
L 196.61589 125.206487 
L 197.505355 125.417347 
L 200.173748 125.339184 
L 201.063213 125.010168 
L 206.4 124.561181 
L 208.178929 126.733409 
L 209.068394 126.731591 
L 209.957858 126.302599 
L 211.736787 125.962677 
L 217.963039 125.448249 
L 219.741968 125.460974 
L 222.410361 125.322824 
L 234.862864 125.697283 
L 239.310187 126.051747 
L 240.199651 125.786354 
L 247.278306 126.242612 
L 249.057235 126.240795 
L 249.9467 125.95177 
L 250.836164 125.929957 
L 261.509738 125.873606 
L 262.399203 125.739092 
L 273.962242 124.810214 
L 274.851706 124.69206 
L 283.746351 124.942911 
L 289.083138 124.882925 
L 293.530461 123.946776 
L 299.756712 123.121511 
L 301.535641 122.799767 
L 307.761893 118.442586 
L 310.430286 116.604827 
L 314.877609 113.994518 
L 316.656538 112.734807 
L 320.214396 110.308092 
L 325.551183 106.16359 
L 327.330112 104.771182 
L 329.109041 103.180639 
L 332.666899 100.937518 
L 335.335293 99.468764 
L 336.224757 99.185193 
L 338.893151 97.783697 
L 343.340473 95.785974 
L 345.119402 96.018648 
L 346.898331 96.365841 
L 348.67726 97.08204 
L 352.235118 98.856178 
L 355.792976 100.921158 
L 356.682441 101.799138 
L 359.350834 104.883884 
L 364.687621 111.011567 
L 367.356015 113.70004 
L 368.245479 114.848867 
L 370.913873 117.171969 
L 376.25066 120.638446 
L 377.140125 121.456439 
L 383.366376 124.650251 
L 386.03477 125.310099 
L 387.813699 126.133547 
L 391.371557 127.587758 
L 395.818879 129.069236 
L 396.708344 129.141946 
L 397.597808 129.412793 
L 397.597808 129.412793 
" clip-path="url(#p809f499382)" style="fill: none; stroke: #999999; stroke-width: 0.2; stroke-linecap: square"/>
   </g>
   <g id="line2d_56">
    <path d="M 73.832727 129.690911 
L 78.28005 131.079683 
L 80.948443 132.079453 
L 83.616837 133.088312 
L 86.28523 134.118984 
L 90.732553 134.275312 
L 91.622017 134.131709 
L 100.516663 134.200784 
L 101.406127 133.911759 
L 107.632379 133.091948 
L 110.300772 132.384837 
L 111.190237 131.959481 
L 112.969166 131.548666 
L 118.305953 131.33417 
L 120.084882 131.414151 
L 120.974346 131.216015 
L 129.016588 131.701358 
L 131.684981 132.101266 
L 138.800697 133.064681 
L 139.690162 133.239187 
L 143.24802 133.400968 
L 150.363736 133.744525 
L 156.589988 135.047862 
L 159.258381 135.696804 
L 160.147846 135.635 
L 161.03731 135.880398 
L 169.042491 137.636358 
L 169.931955 137.3746 
L 179.716065 138.80518 
L 185.942316 139.619539 
L 189.500174 139.964914 
L 194.836961 140.168503 
L 195.726426 136.722023 
L 204.621071 136.594779 
L 205.510535 136.565695 
L 206.4 136.200324 
L 209.957858 136.35847 
L 215.294645 137.060127 
L 216.18411 137.247356 
L 217.073574 137.300072 
L 217.963039 137.527292 
L 218.852503 137.563647 
L 226.857684 139.801315 
L 227.747148 139.904928 
L 228.636613 139.830399 
L 236.641793 141.242802 
L 237.531258 141.33369 
L 238.420722 141.137372 
L 247.278306 141.859024 
L 249.057235 141.52092 
L 257.062416 140.606585 
L 257.95188 140.237578 
L 259.730809 139.88675 
L 266.846526 139.077845 
L 267.73599 138.467076 
L 270.404384 137.798139 
L 275.741171 135.533205 
L 276.630635 135.031502 
L 277.5201 134.368018 
L 278.409564 133.977199 
L 279.299029 133.731801 
L 281.077958 133.037415 
L 289.083138 135.302349 
L 289.972603 135.375059 
L 291.751532 135.218732 
L 296.198854 132.950162 
L 297.088319 132.141257 
L 302.425106 129.345536 
L 309.540822 127.27692 
L 310.430286 127.338724 
L 313.09868 126.119004 
L 315.767073 124.099468 
L 317.546002 122.516196 
L 319.324932 121.192864 
L 321.103861 119.814998 
L 323.772254 118.744335 
L 328.219577 117.386466 
L 330.88797 116.76479 
L 333.556364 116.279447 
L 340.67208 114.612557 
L 344.229938 113.894541 
L 346.898331 114.138121 
L 353.124583 114.481678 
L 355.792976 115.426916 
L 356.682441 116.059498 
L 361.129763 121.23649 
L 364.687621 125.809985 
L 368.245479 130.685228 
L 372.692802 137.191006 
L 374.471731 139.581366 
L 378.029589 143.400488 
L 381.587447 146.099868 
L 385.145305 148.324811 
L 386.03477 148.710177 
L 389.592628 149.81356 
L 390.482092 150.098949 
L 395.818879 153.027367 
L 398.487273 154.928748 
L 398.487273 154.928748 
" clip-path="url(#p809f499382)" style="fill: none; stroke: #999999; stroke-width: 0.2; stroke-linecap: square"/>
   </g>
   <g id="line2d_57">
    <path d="M 73.832727 155.532246 
L 74.722192 155.890345 
L 78.28005 156.744695 
L 84.506301 157.370005 
L 87.174695 157.431809 
L 88.953624 157.259122 
L 91.622017 157.38273 
L 94.290411 156.037584 
L 102.295592 149.982612 
L 104.074521 148.672004 
L 104.963985 148.342989 
L 107.632379 147.686776 
L 110.300772 146.643379 
L 115.637559 144.963765 
L 120.974346 144.229388 
L 123.64274 144.06579 
L 126.311133 144.258473 
L 131.64792 143.702237 
L 133.46391 143.225983 
L 137.021768 142.713373 
L 137.911233 142.420713 
L 142.358555 142.611578 
L 146.805878 141.371863 
L 147.695342 140.961049 
L 148.584807 140.87016 
L 153.03213 141.217353 
L 156.589988 140.155779 
L 158.368917 139.259621 
L 163.705704 139.543193 
L 166.374097 139.672254 
L 168.153026 139.321425 
L 174.379278 139.359598 
L 176.158207 138.741559 
L 177.937136 137.659989 
L 179.716065 136.956514 
L 185.052852 136.538428 
L 185.942316 136.567513 
L 186.831781 136.234862 
L 187.721245 136.109436 
L 195.726426 135.725888 
L 196.61589 135.560471 
L 201.952677 135.304167 
L 205.510535 135.640453 
L 206.4 135.222367 
L 207.289465 135.218732 
L 214.405181 134.444364 
L 219.741968 133.731801 
L 222.410361 133.506398 
L 227.747148 132.064911 
L 233.083935 132.303038 
L 238.420722 131.141487 
L 243.757509 130.010837 
L 249.057235 130.441648 
L 259.730809 130.530718 
L 260.620274 130.365301 
L 262.399203 130.214427 
L 265.067597 129.523677 
L 270.404384 128.476644 
L 273.962242 127.485963 
L 274.851706 127.006073 
L 275.741171 126.711596 
L 281.077958 123.641392 
L 283.746351 121.151055 
L 284.635816 120.027677 
L 285.52528 119.196959 
L 286.414745 118.61891 
L 291.751532 116.697533 
L 293.530461 116.628458 
L 297.088319 116.132208 
L 300.646177 115.092447 
L 303.31457 114.71617 
L 304.204035 114.323533 
L 307.761893 113.643689 
L 318.435467 112.947485 
L 321.103861 111.909542 
L 322.88279 111.116997 
L 324.661719 109.911819 
L 329.109041 106.570769 
L 331.777435 103.816856 
L 335.335293 100.388553 
L 339.782615 96.800287 
L 342.451009 96.104083 
L 345.119402 96.00047 
L 350.456189 91.419705 
L 352.235118 90.710777 
L 353.124583 90.625342 
L 355.792976 89.736455 
L 361.129763 88.80576 
L 362.019228 88.863928 
L 366.46655 89.649203 
L 372.692802 100.628498 
L 377.140125 106.198127 
L 381.587447 110.751626 
L 382.476912 111.971346 
L 383.366376 112.643919 
L 387.813699 115.048821 
L 391.371557 114.30172 
L 392.261021 114.283542 
L 393.150486 114.138121 
L 397.597808 115.150616 
L 397.597808 115.150616 
" clip-path="url(#p809f499382)" style="fill: none; stroke: #999999; stroke-width: 0.2; stroke-linecap: square"/>
   </g>
   <g id="line2d_58">
    <path d="M 73.832727 115.403285 
L 74.722192 114.856138 
L 76.501121 116.572107 
L 77.390585 117.940884 
L 79.169514 119.638675 
L 80.058979 119.607773 
L 80.948443 119.389642 
L 81.837908 118.993369 
L 84.506301 118.226273 
L 86.28523 118.069945 
L 89.843088 117.286488 
L 95.179875 119.567782 
L 100.516663 120.994727 
L 105.85345 118.769784 
L 111.190237 117.230138 
L 112.969166 116.375789 
L 116.527024 115.003377 
L 121.863811 114.912489 
L 125.421669 115.061545 
L 126.311133 114.908853 
L 128.090062 114.97611 
L 132.574446 114.936119 
L 135.242839 115.290583 
L 136.132304 115.201513 
L 137.911233 115.468724 
L 143.24802 114.745254 
L 145.026949 114.705263 
L 145.916413 114.565296 
L 148.584807 114.534394 
L 153.921594 113.505539 
L 155.700523 113.77275 
L 159.258381 114.768885 
L 164.595168 115.981334 
L 165.484633 115.812282 
L 169.931955 116.152204 
L 174.379278 117.215596 
L 175.268742 117.239227 
L 180.605529 118.426227 
L 184.163387 118.424409 
L 185.052852 118.248086 
L 185.942316 118.249903 
L 191.279103 119.998593 
L 193.947497 120.305795 
L 194.836961 120.178551 
L 196.61589 120.558464 
L 202.842142 121.429173 
L 203.731606 121.645487 
L 204.621071 121.587318 
L 209.957858 122.867024 
L 212.626252 123.294199 
L 213.515716 123.583223 
L 214.405181 123.535962 
L 217.963039 124.672064 
L 223.299826 127.264196 
L 224.18929 127.029704 
L 228.636613 127.086055 
L 233.083935 127.286009 
L 233.9734 127.026069 
L 234.862864 127.264196 
L 239.310187 128.307592 
L 247.278306 127.609571 
L 249.9467 127.624113 
L 255.283487 129.22011 
L 260.620274 128.627519 
L 265.957061 129.043787 
L 271.293848 128.754762 
L 274.851706 127.616842 
L 276.630635 126.629796 
L 281.967422 129.652738 
L 287.304209 128.089461 
L 289.972603 127.660468 
L 292.640996 127.184214 
L 297.977783 122.016311 
L 299.756712 121.489159 
L 301.535641 120.831129 
L 302.425106 120.022224 
L 303.31457 119.671395 
L 308.651357 116.822959 
L 313.988144 116.273994 
L 320.214396 115.161522 
L 321.993325 114.508945 
L 324.661719 113.461913 
L 329.109041 110.53713 
L 329.998506 109.799118 
L 333.556364 107.901372 
L 335.335293 107.07429 
L 340.67208 101.693708 
L 343.340473 101.210182 
L 346.008867 101.337426 
L 351.345654 102.248126 
L 355.792976 101.095663 
L 356.682441 101.121112 
L 358.46137 102.549875 
L 360.240299 103.885931 
L 362.019228 105.663705 
L 367.356015 107.57781 
L 372.692802 104.832986 
L 378.029589 112.5294 
L 383.366376 116.453953 
L 386.924234 119.476894 
L 388.703163 120.703885 
L 394.03995 122.165367 
L 396.708344 122.339873 
L 396.708344 122.339873 
" clip-path="url(#p809f499382)" style="fill: none; stroke: #999999; stroke-width: 0.2; stroke-linecap: square"/>
   </g>
   <g id="line2d_59">
    <path d="M 73.832727 122.45621 
L 74.722192 122.368957 
L 80.058979 120.044037 
L 83.616837 120.669348 
L 86.28523 121.243761 
L 90.732553 121.300112 
L 96.06934 119.12243 
L 101.406127 118.217184 
L 106.742914 116.753884 
L 112.969166 115.432369 
L 117.416488 112.936579 
L 122.753275 112.149487 
L 128.090062 111.576891 
L 136.132304 109.697323 
L 138.800697 109.131999 
L 140.579626 108.528501 
L 144.137484 109.397392 
L 149.474271 110.389891 
L 154.811059 108.588487 
L 160.147846 108.513959 
L 165.484633 107.963176 
L 167.263562 108.154041 
L 170.82142 108.777535 
L 176.158207 108.784806 
L 181.494994 108.246747 
L 187.721245 108.493963 
L 193.058032 108.183126 
L 197.505355 107.694147 
L 202.842142 109.461014 
L 208.178929 108.761175 
L 213.515716 109.284691 
L 218.852503 109.753674 
L 224.18929 108.893871 
L 229.526077 108.464879 
L 234.862864 109.651879 
L 240.199651 107.928639 
L 245.499377 108.003167 
L 250.836164 106.227211 
L 256.172951 106.092697 
L 262.399203 104.874795 
L 266.846526 105.247437 
L 272.183313 104.071343 
L 277.5201 101.284711 
L 281.077958 100.595778 
L 282.856887 100.368558 
L 288.193674 103.13883 
L 289.083138 102.838899 
L 293.530461 99.576013 
L 298.867248 98.894351 
L 300.646177 96.987516 
L 304.204035 92.941173 
L 310.430286 87.993219 
L 314.877609 84.719426 
L 316.656538 82.965284 
L 320.214396 81.225684 
L 325.551183 73.256606 
L 329.998506 73.47292 
L 330.88797 73.70014 
L 335.335293 80.336797 
L 336.224757 81.451086 
L 339.782615 79.456999 
L 341.561544 78.30999 
L 343.340473 79.062544 
L 345.119402 80.37497 
L 346.898331 82.034589 
L 355.792976 91.650561 
L 357.571905 93.74099 
L 362.908692 104.554868 
L 368.245479 107.821391 
L 370.913873 112.912948 
L 373.582267 117.022913 
L 378.919054 128.543902 
L 382.476912 134.222597 
L 384.255841 136.852902 
L 389.592628 139.170551 
L 394.929415 132.65932 
L 396.708344 132.922896 
L 396.708344 132.922896 
" clip-path="url(#p809f499382)" style="fill: none; stroke: #999999; stroke-width: 0.2; stroke-linecap: square"/>
   </g>
   <g id="line2d_60">
    <path d="M 73.832727 185.654961 
L 77.081496 185.963607 
L 80.330266 186.330617 
L 83.579035 186.56705 
L 86.827804 186.651586 
L 90.076573 186.142213 
L 93.325342 185.717552 
L 96.574111 185.336697 
L 99.82288 184.959612 
L 103.071649 184.543362 
L 106.320418 184.198017 
L 109.569188 183.872027 
L 112.817957 183.520054 
L 116.066726 183.2179 
L 119.315495 183.028058 
L 122.564264 182.87593 
L 125.813033 182.751267 
L 129.061802 182.617041 
L 132.310571 182.481576 
L 135.55934 182.353773 
L 138.80811 182.264123 
L 142.056879 182.180014 
L 145.305648 182.094223 
L 148.554417 181.971758 
L 151.803186 181.851446 
L 155.051955 181.680048 
L 158.300724 181.633675 
L 161.549493 181.677598 
L 164.798263 181.681898 
L 168.047032 181.649077 
L 171.295801 181.615228 
L 174.54457 181.580857 
L 177.793339 181.509178 
L 181.042108 181.44328 
L 184.290877 181.353149 
L 187.539646 181.218339 
L 190.788415 181.148446 
L 194.037185 181.022638 
L 197.285954 180.769989 
L 200.534723 180.678301 
L 203.783492 180.565871 
L 207.032261 180.424765 
L 210.28103 180.344707 
L 213.529799 180.217648 
L 216.778568 180.098075 
L 220.027337 180.019843 
L 223.276107 180.015653 
L 226.524876 179.917056 
L 229.773645 179.838223 
L 233.022414 179.811331 
L 236.271183 179.659468 
L 239.519952 179.371075 
L 242.768721 179.062389 
L 246.01749 179.004681 
L 249.26626 179.093976 
L 252.515029 179.255057 
L 255.763798 179.328955 
L 259.012567 179.233714 
L 262.261336 179.130226 
L 265.510105 179.049616 
L 268.758874 178.907781 
L 272.007643 178.720219 
L 275.256412 178.417593 
L 278.505182 177.982705 
L 281.753951 177.794179 
L 285.00272 177.538959 
L 288.251489 177.286493 
L 291.500258 176.848124 
L 294.749027 176.306799 
L 297.997796 175.818134 
L 301.246565 175.309038 
L 304.495334 174.036244 
L 307.744104 172.560837 
L 310.992873 171.113008 
L 314.241642 169.699739 
L 317.490411 168.178948 
L 320.73918 166.637308 
L 323.987949 165.011732 
L 327.236718 163.40475 
L 330.485487 162.204133 
L 333.734257 162.006635 
L 336.983026 161.841522 
L 340.231795 161.602994 
L 343.480564 161.573836 
L 346.729333 161.818332 
L 349.978102 162.265241 
L 353.226871 162.843057 
L 356.47564 163.543133 
L 359.724409 164.930968 
L 362.973179 166.378074 
L 366.221948 167.690577 
L 369.470717 169.201859 
L 372.719486 170.681281 
L 375.968255 172.300878 
L 379.217024 173.813641 
L 382.465793 174.987273 
L 385.714562 175.711891 
L 388.963332 176.259147 
L 392.212101 176.747265 
L 395.46087 177.318777 
" clip-path="url(#p809f499382)" style="fill: none; stroke: #000000; stroke-width: 1.5; stroke-linecap: square"/>
   </g>
   <g id="line2d_61">
    <path d="M 73.832727 145.623614 
L 74.722192 148.070324 
L 75.611656 150.627918 
L 76.501121 152.211191 
L 77.390585 152.831048 
L 80.058979 154.396143 
L 80.948443 155.079623 
L 81.837908 155.254128 
L 82.727372 157.159145 
L 83.616837 157.286388 
L 84.506301 156.875574 
L 85.395766 157.068257 
L 86.28523 156.62654 
L 94.290411 155.195959 
L 96.958804 154.201643 
L 107.632379 144.043977 
L 118.305953 137.314614 
L 128.979527 132.502992 
L 139.690162 130.425288 
L 147.695342 126.249883 
L 150.363736 125.304646 
L 158.368917 122.494383 
L 161.03731 122.029035 
L 169.042491 121.932694 
L 171.710884 121.149237 
L 180.605529 117.880897 
L 182.384458 117.937248 
L 191.279103 119.89498 
L 193.058032 119.980415 
L 201.063213 120.251262 
L 203.731606 120.612997 
L 211.736787 121.14742 
L 214.405181 121.467346 
L 222.410361 120.556646 
L 225.078755 120.084027 
L 233.083935 119.438721 
L 235.752329 119.820452 
L 243.757509 121.08198 
L 246.388842 121.321925 
L 255.283487 122.450756 
L 257.062416 122.714332 
L 265.067597 120.787502 
L 267.73599 120.416678 
L 275.741171 118.288077 
L 278.409564 118.104482 
L 286.414745 112.716629 
L 297.088319 116.403055 
L 307.761893 116.421233 
L 318.435467 117.290124 
L 350.456189 106.441708 
L 361.129763 105.107469 
L 371.803337 111.48055 
L 382.476912 120.034948 
" clip-path="url(#p809f499382)" style="fill: none; stroke: #0000ff; stroke-width: 3; stroke-linecap: square"/>
   </g>
  </g>
 </g>
 <defs>
  <clipPath id="p809f499382">
   <rect x="57.6" y="41.472" width="357.12" height="235.008"/>
  </clipPath>
 </defs>
</svg>
